<?xml version="1.0" standalone="no"?>
<!DOCTYPE svg PUBLIC "-//W3C//DTD SVG 1.1//EN" "http://www.w3.org/Graphics/SVG/1.1/DTD/svg11.dtd" >
<svg xmlns="http://www.w3.org/2000/svg" xmlns:xlink="http://www.w3.org/1999/xlink" version="1.1">
<metadata>
Created by FontForge 20150824 at Tue Oct 11 09:39:51 2016
 By Everything Fonts
Adrien Coquet - 2014
</metadata>
<defs>
<font id="Cabana" horiz-adv-x="237" >
  <font-face 
    font-family="Cabana"
    font-weight="400"
    font-stretch="normal"
    units-per-em="1000"
    panose-1="0 0 5 0 0 0 0 0 0 0"
    ascent="800"
    descent="-200"
    x-height="714"
    cap-height="719"
    bbox="-17.2105 -166 509.211 830.765"
    underline-thickness="50"
    underline-position="-150"
    unicode-range="U+0020-2212"
  />
<missing-glyph horiz-adv-x="500" 
d="M0 700h500v-700h-500v700zM420 650h-340l170 -255zM450 95v510l-170 -255zM420 50l-170 255l-170 -255h340zM50 95l170 255l-170 255v-510z" />
    <glyph glyph-name=".notdef" horiz-adv-x="500" 
d="M0 700h500v-700h-500v700zM420 650h-340l170 -255zM450 95v510l-170 -255zM420 50l-170 255l-170 -255h340zM50 95l170 255l-170 255v-510z" />
    <glyph glyph-name=".null" horiz-adv-x="0" 
 />
    <glyph glyph-name="nonmarkingreturn" horiz-adv-x="333" 
 />
    <glyph glyph-name="space" unicode=" " horiz-adv-x="180" 
 />
    <glyph glyph-name="exclam" unicode="!" horiz-adv-x="101" 
d="M69 707q-2 16 -19 16q-16 -2 -16 -19q1 -3 1 -7l3 -61l1 -73v-6q-1 -9 -1 -27l1 -84q1 -15 0 -30q-3 -15 -3 -29q0 -10 2 -30t2 -30q1 -9 1 -29l-3 -229q0 -14 14 -14q13 0 13 14l-3 229q0 20 1 29q0 10 2 30t2 30q0 9 -2 29q-3 13 -1 30l1 71l-2 65l3 80q0 10 1 15z
M74 20q-10 15 -27 15q-10 0 -15 -5q-7 -8 -6 -18q1 -12 12 -17t26 -2q11 3 13 17q-4 11 -3 10z" />
    <glyph glyph-name="quotedbl" unicode="&#x22;" horiz-adv-x="141" 
d="M52 707q-2 16 -19 16q-18 -2 -16 -19l1 -16l3 -43v-45q0 -14 14 -14q13 0 13 14l1 62q0 10 1 15zM128 707q-2 16 -19 16q-18 -2 -16 -19l1 -16l3 -43v-45q0 -14 14 -14q13 0 13 14l1 62q0 10 1 15z" />
    <glyph glyph-name="numbersign" unicode="#" horiz-adv-x="274" 
d="M259 288q3 -17 -15 -19q-2 -2 -4 0l-32 2h-31l-16 -51q-4 -18 -21 -12q-15 5 -12 22q1 0 1 1l14 40h-7q-25 0 -38 -1h-8l-15 -50q-4 -18 -21 -12t-12 22l15 39h-15q-6 0 -9 -1q-18 0 -18 17q0 18 18 18h9q5 -1 23 -1h3q7 17 11 31q4 9 7 20l1 3l-54 -1q-18 -2 -18 16
t18 18l64 -2l1 2q4 9 5 16l2 7q2 4 2 6l5 20q2 17 20 13q17 -4 13 -20q0 -3 -1 -4l-16 -40l55 -1l1 3q4 9 5 16q2 5 4 13l5 20q4 17 20 13q18 -4 14 -20l-10 -23l-7 -21l25 2q17 2 19 -15q4 -17 -15 -19l-40 2q0 -2 -2 -6q-1 -5 -2 -7q-4 -9 -7 -20l-7 -24l45 2q6 0 9 1
q17 2 19 -15zM100 301l54 -1l20 58l-56 -1z" />
    <glyph glyph-name="dollar" unicode="$" horiz-adv-x="219" 
d="M204 556q0 -17 -18 -17q-17 2 -17 18v5q0 5 1 9q0 21 -1 36l-3 26q-3 12 -8 28q-5 11 -13 21l-2 -82l3 -80v-52q-2 -24 -2 -36l3 -74l-1 -27l17 -23l16 -25q7 -15 11 -28l3 -15q2 -10 2 -14q2 -18 2 -28l1 -13v-66q-2 -29 -7 -52q-4 -16 -7 -24q-8 -16 -14 -23
q-7 -10 -20 -18l-5 -3v-35q2 -14 -12 -14q-13 0 -13 14v29q-2 -1 -6 -1l-19 1v-29q2 -14 -12 -14q-13 0 -13 14v39l-9 7q-6 5 -14 15q-10 14 -17 31q-5 13 -9 28q-5 21 -5 40l-1 14q0 14 14 14q15 2 15 -13l-1 -13q0 -16 4 -36q4 -16 7 -24q5 -14 13 -25l3 -4l1 110
q0 43 1 66l-1 72l-3 36q-1 12 -1 37q-1 8 1 24q-9 11 -13 21q-4 5 -7 13l-7 13q-8 18 -11 27q-12 30 -13 56q-2 20 -2 28v27q0 35 2 53q0 14 3 26q1 10 7 26q6 14 15 24l11 9l13 8l-1 39q-2 17 16 19q16 0 18 -16l-2 -34l20 1l-2 30q-2 17 16 19q16 0 18 -16l-2 -41l11 -8
q8 -7 15 -17q6 -7 9 -17q5 -10 12 -33q4 -20 5 -28q4 -23 4 -40zM112 698q-11 0 -16 -1l-3 -97l3 -80v-52q-2 -24 -2 -36v-28q0 -6 1 -9v-2l22 -25l3 45l-2 55v69q0 22 1 32q1 11 1 31l-2 98h-6zM63 440l7 -13v5q-2 24 -2 36v69q0 22 1 32q1 11 1 31l-2 88l-8 -8
q-6 -6 -9 -17q-3 -10 -5 -21q-2 -16 -2 -24q-1 -16 -1 -51t1 -52q2 -31 8 -51q4 -11 11 -24zM120 17l2 232q-1 11 -1 36l-3 36l-16 18q-3 4 -5 5q-1 -4 -1 -11l-3 -48q-1 -13 -1 -36l3 -230l6 -2h19zM144 293q-1 -2 -1 -8q-1 -13 -1 -36l3 -221q2 1 4 3q1 2 3 4q10 13 17 38
q5 20 7 47q1 16 1 51q0 18 -1 27q0 17 -1 26q-1 10 -5 25q-5 14 -11 22z" />
    <glyph glyph-name="percent" unicode="%" horiz-adv-x="272" 
d="M257 701q1 0 1 2q3 17 -13 21q-18 4 -21 -13l-27 -109q-4 -15 -7 -26l-9 -26q-4 -9 -10 -29l-18 -60q-2 -5 -4 -16l-4 -16q-8 -24 -10 -31q-9 -18 -12 -32q-6 -22 -8 -33l-4 -16q-3 -11 -4 -16q-3 -14 -8 -32l-44 -140q-21 -65 -34 -108q-6 -13 9 -17q13 -4 17 10l71 249
l34 94q3 11 7 33l9 32l11 31q3 9 5 16l5 15q1 5 4 15l23 84l12 35q4 14 7 20q5 17 12 34zM159 609l-2 30q-5 27 -10 41q-10 16 -16 22q-11 11 -26 14l-12 1l-1 1l-17 -3q-10 -2 -15 -6q-9 -5 -13 -11q-6 -5 -10 -13l-6 -14l-7 -29q-7 -32 -8 -57l7 -58q7 -35 6 -29
q1 -5 5 -15q4 -8 9 -13q4 -7 12 -12q7 -6 16 -9l12 -2h12q2 0 8 2q7 2 15 6q4 2 11 9q5 6 15 22q3 7 7 21l3 19q3 18 3 31q1 8 1 19zM136 558l-4 -28q-4 -21 -11 -33q-3 -7 -10 -14q-4 -4 -14 -6h-11q-1 0 -2 1q-2 0 -3 1q-8 3 -13 10l-5 9q-4 6 -5 10q-6 13 -8 24
q-3 16 -1 26l1 23l1 2q0 1 -1 2l-1 27q-2 14 0 27q0 4 2 12q0 6 3 12q2 9 10 19q8 7 16 8q10 2 19 0q7 -1 15 -7q6 -6 9 -14q4 -7 6 -16l3 -17l3 -39zM252 164q0 8 -2 30q-5 27 -10 41q-10 16 -16 22q-11 11 -26 14l-12 1l-1 1l-17 -3q-10 -2 -15 -6q-9 -5 -13 -11
q-7 -6 -9 -13q-5 -7 -7 -14l-7 -29l-8 -59l4 -27q2 -20 4 -29q2 -20 5 -29q1 -7 5 -14l9 -14q4 -7 12 -12q8 -7 16 -8q4 -2 8 -2q1 -1 4 -1h12q2 0 8 2q7 2 15 6q8 6 11 9q9 10 15 22l7 21l3 19q3 18 3 31q1 8 1 19zM229 113q0 -15 -4 -28q-4 -18 -10 -33q-5 -7 -11 -14
q-4 -4 -14 -6h-10q-2 0 -2 1q-3 0 -4 1q-8 3 -13 10l-10 19q-6 14 -7 24q-4 14 -2 26l2 27q-2 18 -2 27q-2 14 0 27q0 4 2 12q0 6 3 12q2 9 10 19q8 7 16 8q10 2 19 0q7 -1 15 -7q6 -6 9 -14q4 -7 6 -16q3 -9 3 -17l3 -28q1 -8 1 -19v-31z" />
    <glyph glyph-name="ampersand" unicode="&#x26;" horiz-adv-x="370" 
d="M353 24q9 -14 -6 -23q-14 -9 -23 5l-54 99l-12 -15q-19 -23 -38 -39q-29 -23 -53 -34l-43 -12l-18 -1l-10 1q-14 2 -20 5q-12 4 -18 9q-18 14 -27 33q-8 16 -13 39q-3 20 -3 41q0 20 3 41q1 15 7 41q9 43 24 83l18 41q9 20 20 40q12 20 19 29l-27 56l-24 60q-8 28 -10 43
q-3 25 -2 46q0 24 9 48q3 8 13 22l4 5q1 2 4 5l11 9q7 5 23 11l6 2q2 1 7 1q8 2 12 2l19 1q1 -1 5 -1l25 -2q12 -1 24 -6l18 -8l6 -4q13 -11 18 -22q2 -2 6 -13l3 -13q1 -9 1 -25v-23l-6 -24q0 -2 -1 -3l-10 -23q-8 -14 -26 -40l-21 -28q-4 -6 -7 -9l-29 -35q-9 -10 -25 -30
l30 -58l35 -63l77 -132q9 16 20 38l9 19q5 13 19 7q13 -6 6 -18l-1 -3q0 -1 -1 -2l-8 -16q-11 -22 -29 -51zM122 431q3 3 9 11l35 47l25 37q16 26 22 39l9 19l4 14l1 47q0 4 -2 10q0 2 -2 8l-10 14q-12 10 -36 14l-27 3l-20 -2q-3 0 -5 -1q-4 0 -5 -1l-5 -1q-13 -6 -16 -9
q-15 -12 -21 -30q-7 -17 -7 -39q-1 -18 2 -41l3 -20l16 -48zM247 119q6 8 9 11l-139 256l-12 -19l-20 -38q-6 -13 -16 -39q-16 -43 -23 -80q-4 -19 -6 -40q-2 -13 -2 -38q0 -19 3 -37q6 -22 11 -33q8 -14 20 -23q4 -3 12 -7l22 -3l16 1l14 3q1 1 4 1l17 6q25 12 46 31
q14 11 35 36q4 4 9 12z" />
    <glyph glyph-name="quotesingle" unicode="'" horiz-adv-x="75" 
d="M57 707q-2 16 -19 16q-18 -2 -16 -19l1 -16l3 -43v-45q0 -14 14 -14q13 0 13 14l1 62q0 10 1 15z" />
    <glyph glyph-name="parenleft" unicode="(" horiz-adv-x="120" 
d="M108 699q8 15 -7 23t-24 -8l-11 -26q0 -2 -1 -3q-7 -17 -12 -34l-25 -98q-4 -13 -6 -29q-4 -19 -5 -31q-1 -5 -1 -16l-2 -49q0 -11 -1 -16q0 -11 -1 -17l-2 -17v-17q0 -11 1 -16q0 -5 2 -17l7 -50q0 -5 1 -8q0 -5 1 -8q2 -22 4 -31q2 -20 4 -31l10 -57l18 -69l18 -56
l3 -6q0 -1 1 -2q5 -12 18 -7q12 5 7 18q-1 1 -1 2q1 -1 -2 5l-14 35q-1 6 -5 18q-9 27 -7 20l-19 74l-11 59q-4 30 -6 63v48q1 9 0 17l-3 49l15 137l5 27l7 25l14 41q5 13 14 31q2 2 4 6q3 6 2 5l5 8q1 2 3 4q1 1 1 2q1 1 1 2z" />
    <glyph glyph-name="parenright" unicode=")" horiz-adv-x="120" 
d="M33 672q9 -18 14 -31l4 -9l10 -32q2 -4 4 -12l6 -26l16 -135q1 -5 1 -16l-2 -33q-1 -5 -1 -16v-65q0 -23 -6 -63l-17 -85l-25 -86l-14 -35q-3 -6 -2 -5q0 -1 -1 -2q-5 -13 7 -18t19 7l10 30q4 7 5 15l6 19q3 9 6 21l15 62q1 10 2 14q4 17 5 29l5 31l10 81q2 11 2 16
q2 12 2 17q1 5 1 16v17l-2 17q-1 6 -1 17l-1 57l-2 16q0 5 -1 8q-1 12 -5 31q-1 16 -6 29q-8 31 -12 53q-2 5 -7 23l-4 17l-13 39l-9 21q-3 9 -3 7l-1 1q-8 18 -23 8q-15 -7 -8 -23z" />
    <glyph glyph-name="asterisk" unicode="*" horiz-adv-x="153" 
d="M132 648l-8 -2q-3 0 -5 -1q3 0 -15 -3l-4 -5l17 -19q11 -11 1 -21q-11 -11 -21 -1q-3 2 -3 5q-1 0 -1 1l-3 5q-4 7 -8 13l-2 2h-4l-12 -20q0 -1 -1 -1q-5 -14 -20 -8q-13 7 -7 20q1 2 4 5l17 19l-3 5l-17 3q-2 1 -5 1h-2q-15 2 -13 17t17 13l26 -11q1 0 2 -1l4 3l-2 25
q-4 14 11 18q14 2 18 -12l-3 -31q2 -1 4 -3l22 10q1 0 1 1q14 7 21 -6t-6 -21z" />
    <glyph glyph-name="plus" unicode="+" horiz-adv-x="274" 
d="M244 310l-93 3q1 -9 1 -25l2 -56q0 -6 1 -9q0 -18 -17 -18q-16 -2 -18 16l2 91l-89 -2q-18 -2 -18 16t18 18l89 -2l-1 62l-1 6q0 8 -1 11q0 5 -1 9q-2 17 15 19t20 -15l-3 -52l1 -41l89 3q17 4 19 -15q4 -17 -15 -19z" />
    <glyph glyph-name="comma" unicode="," horiz-adv-x="83" 
d="M69 3q0 -8 -1 -13q0 -5 -1 -8l-7 -14l-13 -13l-13 -7q-3 -2 -5 2q-2 2 1 4l11 9l7 11q0 1 1 3l2 15q-14 -2 -23 3q-11 5 -12 17q-1 10 6 18q5 5 15 5q17 0 27 -16q2 0 2 -3z" />
    <glyph glyph-name="hyphen" unicode="-" horiz-adv-x="274" 
d="M32 347q-17 0 -17 -18t18 -16l141 3l70 -3q19 2 15 19q-2 17 -19 15l-48 -3z" />
    <glyph glyph-name="period" unicode="." horiz-adv-x="81" 
d="M64 20q-10 15 -27 15q-10 0 -15 -5q-7 -8 -6 -18q1 -12 12 -17t26 -2q11 3 13 17q-4 11 -3 10z" />
    <glyph glyph-name="slash" unicode="/" horiz-adv-x="268" 
d="M255 694q1 0 1 2q4 17 -13 21t-21 -13l-27 -109q-4 -15 -7 -26l-9 -26q-4 -9 -10 -29l-18 -60q-2 -5 -4 -16l-4 -16q-7 -24 -10 -31q-8 -18 -12 -32q-6 -22 -8 -33l-4 -16q-3 -11 -4 -16q-3 -14 -8 -32l-44 -140q-21 -65 -34 -108q-4 -13 9 -17t17 10l62 218q7 24 10 31
q7 24 10 31l23 63q1 6 4 17l4 16q2 14 8 32l11 31q3 9 5 16l26 94l18 55q4 14 7 20q5 17 12 34z" />
    <glyph glyph-name="zero" unicode="0" horiz-adv-x="262" 
d="M129 712l-19 -2q-11 -2 -24 -9q-5 -2 -13 -9q-8 -8 -11 -13q-8 -10 -18 -34q-7 -19 -12 -42q-7 -30 -13 -99q-4 -49 -4 -118v-31q0 -22 1 -33q0 -21 2 -67q6 -86 17 -140l9 -36q7 -21 16 -35q5 -10 12 -17q6 -7 16 -14l10 -6q15 -5 11 -4q2 -1 5 -1l16 -1q14 0 21 2
q13 2 21 7q12 7 18 14q7 7 12 17q9 14 16 35q4 12 10 36q3 12 7 36q4 21 5 35l3 35q2 22 2 34q2 46 2 67l-1 64l-5 104q0 9 -1 14q-1 22 -5 52q-4 32 -8 48q-3 15 -11 41q-8 21 -18 35q-9 14 -23 24q-10 7 -23 11h-23zM143 680q7 -2 14 -6q9 -6 16 -15q10 -14 15 -28
q7 -14 12 -37q4 -15 10 -44l6 -51q2 -18 4 -56q1 -19 1 -60q-1 -10 -1 -31l-1 -32q0 -22 -2 -66l-4 -68q-2 -22 -4 -35q-1 -13 -5 -34q-3 -16 -9 -33l-6 -15q-7 -12 -9 -14q-4 -6 -10 -11q-3 -4 -11 -8l-13 -4q-5 -1 -16 -1q-15 0 -26 7q-10 5 -21 20q-9 14 -15 30
q-5 10 -11 32q-9 34 -12 68q-2 13 -4 35l-3 67v96q2 79 5 116q4 50 14 96q4 16 11 37q9 19 15 28q9 13 22 17h38z" />
    <glyph glyph-name="one" unicode="1" horiz-adv-x="180" 
d="M171 444q0 -29 -1 -43l-3 -44l3 -346q0 -14 -13 -14q-14 0 -14 14l3 325q0 14 -1 21q0 14 -2 44q-2 28 -2 43v22q2 14 2 21q1 7 1 22v22q0 13 -2 43l1 97l-63 -80q-10 -12 -14 -18l-7 -9q-5 -7 -7 -10q-11 -13 -24 -3t-4 24l17 18q11 11 16 17l31 33l52 60q3 2 7 8
q8 10 16 2q5 -3 5 -8l2 -44v-87l-2 -65l3 -43v-22z" />
    <glyph glyph-name="two" unicode="2" horiz-adv-x="263" 
d="M236 4q-5 -1 -14 -1q-4 -1 -13 -1l-130 -1l-52 1q-12 0 -12 12l1 6q10 18 28 54q15 28 28 56l26 55q9 19 25 57t22 57l26 73q4 7 5 14l12 28q14 32 20 58l5 22l3 22q1 3 1 8q1 2 1 7l2 14v38l-4 37q-2 15 -6 28q0 2 -2 6l-1 4q0 2 -1 3q-2 5 -7 11q-6 11 -18 15
q-13 5 -27 5h-15q-9 0 -13 -1q-13 -1 -26 -8q-8 -4 -20 -16q-8 -10 -15 -23q-4 -8 -10 -26l-5 -29l-1 -21q0 -5 1 -7q0 -18 -17 -18q-16 -2 -18 17l1 17l3 17q4 20 8 32q5 17 13 31q6 13 20 28q16 14 29 20q15 7 34 10q5 1 17 1l16 -1q6 0 16 -2q12 -2 17 -4l17 -9
q10 -8 14 -13q9 -11 16 -31q7 -22 11 -64q1 -11 1 -32l-2 -32q-4 -22 -7 -32l-1 -3q0 -3 -1 -4l-2 -8q0 -2 -2 -7l-28 -98q-3 -10 -11 -30l-129 -282l-19 -38l123 2l64 3q15 2 15 -12q2 -13 -12 -15z" />
    <glyph glyph-name="three" unicode="3" horiz-adv-x="268" 
d="M253 573l-1 -30q0 -7 -1 -11q-1 -8 -5 -19q0 -3 -6 -20q-7 -17 -22 -36q-14 -16 -33 -26q-5 -3 -20 -9q1 0 2 -1l18 -11l23 -23l7 -11q8 -11 12 -22q10 -24 14 -47q5 -24 6 -47q2 -32 2 -47q1 -8 1 -23l-1 -24q0 -9 -2 -23q0 -12 -3 -24q-1 -8 -5 -24q-3 -14 -8 -23
q-5 -14 -11 -22q-5 -9 -16 -20t-21 -16q-16 -8 -24 -10q-16 -4 -25 -4q-3 -1 -12 -1t-13 1q-15 2 -26 7q-12 4 -23 14q-8 7 -17 21q-7 12 -11 23q-8 27 -11 48q-2 32 -2 48q0 13 14 13q14 2 14 -13q0 -30 1 -45q4 -28 9 -42q9 -23 20 -34q13 -13 35 -15q3 -1 10 -1h10l21 3
q22 7 35 20q14 14 23 34q9 27 7 20l5 22q3 14 5 44l1 46l-3 45q-1 21 -8 44q-3 16 -15 41q-11 19 -25 33l-24 18l-5 2q-2 2 -4 2q-22 10 -40 14h-2q-12 4 -9 15q2 12 12 10q19 0 35 3l17 5q5 2 15 8q14 10 24 22q5 5 9 13q3 4 4 8q2 2 2 4l2 4q6 15 9 33q2 12 2 17l1 18
q-2 24 -4 35q-4 22 -8 34l-12 22q-2 3 -6 7q-11 13 -27 17q-1 1 -3 1q-2 1 -4 1l-8 2l-15 1l-2 -1q-14 0 -32 -7q0 -1 -1 -1l-12 -8l-9 -8l-2 -4q-11 -13 -17 -29l-6 -16q-2 -5 -4 -17l-3 -17q-1 -3 -1 -9v-8q-2 -19 -18 -17q-17 0 -17 17l3 22l11 39q3 9 8 19l5 9q1 3 5 9
q6 9 13 16q14 17 34 26q21 9 42 9l21 -1l18 -5q2 0 3 -1q6 -2 9 -4l16 -10q2 -1 2 -2l4 -4q3 -1 4 -4q3 -2 7 -8l6 -8q4 -6 10 -18q8 -17 13 -39q4 -26 4 -39z" />
    <glyph glyph-name="four" unicode="4" horiz-adv-x="262" 
d="M232 236q13 0 15 -13q0 -13 -14 -15l-74 -2l-1 -129l3 -61q2 -17 -15 -19t-19 15l1 28q1 5 1 17v20q0 14 1 22l-2 107h-58q-19 0 -30 1l-15 3l-7 4l-3 5l19 97l2 16q2 17 6 33q0 3 9 31q4 12 8 32l13 62l22 84l14 69q4 19 6 34l5 30q4 18 20 14q18 -2 14 -19v-3l-19 -62
q0 -2 -5 -21l-13 -47l-10 -56q-3 -9 -7 -29l-7 -31l-9 -31q-3 -10 -7 -32q-2 -22 -5 -32q-3 -14 -9 -32l-24 -92v-4q1 -1 4 -1h28q36 0 53 1h5l-1 48q-2 16 16 18q18 0 18 -18v-11q-1 -8 -1 -30v-5q20 0 42 2z" />
    <glyph glyph-name="five" unicode="5" horiz-adv-x="262" 
d="M247 101q0 -6 -1 -9q0 -3 -1 -4q0 -3 -1 -5q-3 -18 -14 -35q-10 -15 -26 -28q-14 -11 -33 -18q-18 -6 -36 -9t-36 -3q-12 0 -36 2q-5 0 -17 2l-18 3q-13 3 -11 17q4 13 17 10l32 -6q22 -2 33 -2t33 2q11 1 31 7q14 4 27 14q15 11 21 21q9 14 12 28q1 2 1 4q1 1 1 4l2 12
l-1 32v4q0 3 -1 4l-1 4q-3 15 -11 28q-6 8 -10 11q-3 4 -11 10q-12 7 -29 10l-24 4l-39 -1q-6 0 -17 -2l-49 -8q-12 -3 -15 9q-1 1 -1 3q1 10 1 31q1 10 1 30l-1 91l4 213l3 61v61q0 12 12 12l193 5q18 2 18 -16q2 -18 -16 -18l-183 5l-2 -49v-15l-2 -274l-1 -46
q-1 -10 -1 -30l-1 -43l10 2q6 2 9 2q16 4 35 6l9 1l28 -1q24 -4 36 -8q22 -7 34 -17q15 -10 27 -28q8 -14 14 -35l1 -9q1 -3 1 -9q1 -3 1 -9z" />
    <glyph glyph-name="six" unicode="6" horiz-adv-x="266" 
d="M252 722h-1v-3l-56 -112l-57 -123l-19 -49q-6 -17 -20 -51q-14 -36 -20 -54q-4 -10 -10 -28l-17 -57l-3 -17l3 2q1 2 2 2q8 6 17 10q3 2 9 4l10 3q21 6 44 6q27 0 49 -8h2l10 -6q8 -4 12 -7l20 -20q18 -22 21 -54q2 -10 2 -15l-2 -43q0 -10 -4 -30l-5 -15q-4 -10 -7 -15
l-10 -14l-13 -11q-10 -8 -30 -14q-10 -4 -32 -6l-33 -1q-22 4 -34 9q-16 8 -30 21q-9 10 -19 30q-5 11 -11 33q-6 27 -3 62q-1 3 0 8q0 5 1 8q1 18 5 52q3 22 4 31l6 31l19 58l22 55q14 34 22 51l117 273l4 7q0 4 2 8l6 6q3 4 14 2q11 -3 11 -8q1 -2 1 -5q1 -2 1 -6z
M218 728q-1 -1 -1 -2zM240 708q3 0 3 2zM43 155q0 -12 2 -30l5 -30q7 -33 21 -51q6 -8 20 -17q12 -6 25 -8q3 -1 7 -1h22q19 2 28 5q13 3 24 11l10 8l7 11q6 11 9 24q3 14 3 27q1 9 1 27l-1 26q-5 26 -18 42l-11 12l-14 9q0 1 -2 1q-1 1 -2 1l-3 1q0 1 -2 1q-15 6 -40 6
q-18 0 -37 -5l-11 -4q-3 -1 -4 -2q-6 -3 -12 -8q-10 -8 -17 -19z" />
    <glyph glyph-name="seven" unicode="7" horiz-adv-x="268" 
d="M242 715q11 2 13 -11l-25 -91q-6 -19 -14 -43l-7 -21q-5 -14 -7 -22q-5 -12 -11 -43l-5 -22l-7 -23l24 1q3 0 5 1q14 2 16 -11q3 -13 -11 -17l-15 2l-28 1l-21 -61q-5 -14 -13 -42l-88 -303q-4 -12 -17 -9q-13 4 -9 17l107 344l13 53l-45 -2q-14 0 -14 13q-2 13 14 15
l50 -2l3 10q4 14 7 22l7 21q9 21 15 42q9 33 11 44l26 86l10 28l-113 -3q-17 0 -26 -1l-52 -2q-16 -2 -18 16t16 18l54 -2q9 -1 26 -1l103 -3z" />
    <glyph glyph-name="eight" unicode="8" horiz-adv-x="270" 
d="M251 230l1 -32q0 -7 -1 -10q0 -30 -2 -45q0 -8 -2 -24q-2 -6 -2 -11l-3 -12q-4 -16 -7 -24l-10 -23q-8 -14 -16 -22q-6 -6 -10 -9q-3 -3 -11 -9q-18 -8 -27 -9q-12 -3 -26 -3q-13 0 -27 3q-18 6 -26 11q-14 12 -20 19q-4 5 -14 22q-4 8 -10 24q-6 19 -6 23q-4 16 -5 23
l-3 23q-3 23 -3 45q-1 7 -1 22v21q0 42 6 78q5 38 19 67q9 16 19 25q7 7 13 10l-1 1q-9 5 -20 16q-7 7 -16 23q-6 13 -11 28l-8 47l-3 25v26q2 26 4 37l5 19q2 6 8 18q9 19 25 34l17 13l20 9q11 5 21 6q3 1 10 1q6 1 11 0q13 0 20 -1l21 -6q9 -2 20 -10q6 -4 8 -7q5 -3 8 -8
q14 -17 20 -36q5 -11 9 -37q6 -34 4 -70q0 -37 -8 -64q-2 -10 -10 -28q-7 -13 -17 -23q-10 -8 -20 -14q8 -6 12 -11q9 -9 18 -25q7 -14 12 -32q6 -22 7 -35q2 -12 4 -38q0 -6 2 -20zM76 449q5 -4 15 -10q10 -4 14 -5q14 -3 22 -3l49 2q11 3 20 12q7 6 13 16q6 14 9 23
q6 22 8 58q1 2 1 8v24q0 12 -2 34q-4 24 -8 33q-6 17 -17 28t-28 14q-10 3 -34 3l-25 -1q-5 0 -8 -1q-6 -1 -16 -5l-6 -5q-2 -1 -6 -5q-10 -8 -17 -27l-6 -15l-4 -17q-4 -19 -5 -32l-1 -33q0 -20 2 -30q0 -6 2 -14q2 -5 4 -13q5 -13 11 -22q5 -9 13 -17zM226 260l-1 9
q-1 15 -5 36q-8 30 -9 32q-5 14 -11 25q-7 12 -15 18q-7 7 -15 10q-20 10 -25 10h-13q-4 0 -8 -1q-13 0 -27 -5q-5 -2 -15 -10q-9 -9 -14 -18q-11 -20 -18 -58q-5 -31 -7 -76v-41q0 -29 2 -44l3 -21q2 -14 4 -22q5 -25 16 -41q5 -11 12 -16q6 -6 16 -12q9 -5 19 -6
q12 -2 20 -1q29 0 41 5q6 2 8 4q6 4 8 7q6 6 11 16q9 20 12 42q2 7 4 21q2 16 2 22q3 23 3 43l1 6z" />
    <glyph glyph-name="nine" unicode="9" horiz-adv-x="273" 
d="M260 16q-2 -15 -16 -17l-34 2l-62 1l-99 -3q-18 -2 -18 16t18 18l145 -3l34 2l2 8q3 16 3 65q-2 28 -2 44q0 56 1 48q1 -11 -2 106l3 40v65q-4 30 -5 44q-7 -12 -16 -21q-7 -7 -29 -17q-13 -7 -35 -10l-28 -1q-3 1 -9 1l-20 5l-25 12q-16 10 -25 25q-5 7 -14 37
q-6 24 -8 40q-4 14 -4 20v20l3 40q1 16 8 40t18 37q13 16 33 26q17 6 38 10q19 1 37 0q21 -2 35 -8q14 -5 29 -18q10 -10 19 -26q6 -13 9 -26q4 -14 7 -42v-32q0 -37 1 -64l2 -43q1 -29 0 -49q-1 -17 1 -52v-26q-1 -13 0 -27q2 -21 1 -54l1 -144q3 -72 3 -87v-2zM219 488
q6 17 8 37q0 29 1 40v4q0 14 -1 25q-2 20 -7 38q-6 24 -22 39q-9 9 -21 13t-28 6l-15 1q-11 0 -16 -1q-17 -2 -31 -7q-16 -7 -24 -18l-9 -14q-4 -10 -5 -16q-4 -15 -4 -35v-56q-1 -9 0 -18q0 -18 6 -35q4 -14 15 -29q3 -4 10 -11q6 -6 12 -9q10 -6 28 -10q2 -1 7 -1l23 -1
q4 0 14 2l13 3q13 5 22 14q15 14 24 39z" />
    <glyph glyph-name="colon" unicode=":" horiz-adv-x="91" 
d="M69 309q-9 14 -27 16q-10 0 -15 -6q-7 -7 -6 -18q1 -12 12 -16q12 -7 26 -2q11 3 13 17zM69 20q-10 15 -27 15q-10 0 -15 -5q-7 -8 -6 -18q1 -12 12 -17t26 -2q11 3 13 17q-4 11 -3 10z" />
    <glyph glyph-name="semicolon" unicode=";" horiz-adv-x="93" 
d="M21 304q-1 10 6 18q5 5 15 5q17 0 27 -15q-1 1 3 -10q-2 -14 -13 -17q-15 -3 -26 2t-12 17zM74 3q0 -8 -1 -13q0 -5 -1 -8l-7 -14l-13 -13l-13 -7q-3 -2 -5 2q-2 2 1 4l11 9l7 11q0 1 1 3l2 15q-14 -2 -23 3q-11 5 -12 17q-1 10 6 18q5 5 15 5q17 0 27 -16q2 0 2 -3z" />
    <glyph glyph-name="less" unicode="&#x3c;" horiz-adv-x="191" 
d="M170 207q-15 -11 -25 3l-25 29l-14 14l-38 30l-16 18l-21 14q-1 1 -1 2q-10 10 1 21l25 16l22 19l71 68q10 8 19 -2q9 -11 -2 -20l-89 -75l-16 -18q1 0 2 -2l8 -8l20 -15l30 -31l23 -18l24 -16q2 -1 5 -4q11 -15 -3 -25z" />
    <glyph glyph-name="equal" unicode="=" horiz-adv-x="274" 
d="M15 371q0 -18 18 -16l141 3l70 -3q19 2 15 19q-2 17 -19 15l-48 -3l-150 3zM32 303q-17 0 -17 -18q0 -17 18 -17q3 1 9 1l56 1q13 1 38 1h72l32 -2q2 -2 4 0q18 2 15 19q-2 17 -19 15q-3 -1 -9 -1l-57 -2z" />
    <glyph glyph-name="greater" unicode="&#x3e;" horiz-adv-x="191" 
d="M174 317l-1 -2l-17 -11q-3 -2 -7 -6l-14 -15q-4 -4 -7 -6l-15 -12q-2 -2 -8 -6q-3 -2 -7 -6l-7 -7q-4 -3 -7 -7l-26 -29q-11 -14 -24 -3q-14 10 -3 25l4 4q4 2 8 5l8 5q6 4 8 6l8 6q1 1 4 3l11 9q4 3 7 7l21 21q4 4 7 6l23 18q2 2 2 3l-9 12q-3 4 -7 7q-3 4 -7 7l-82 68
q-10 10 -1 20q8 9 19 2q0 -1 1 -1q18 -18 28 -27l49 -47l15 -12l17 -11q4 -2 7 -5q11 -10 2 -21z" />
    <glyph glyph-name="question" unicode="?" horiz-adv-x="288" 
d="M263 503q0 -13 -1 -20q-4 -25 -12 -41q-10 -21 -27 -34q-9 -7 -18 -12q-16 -7 -20 -8l-29 -9l4 -303q0 -14 -14 -14t-14 14l3 309q0 5 5 8q-2 -2 10 6l10 3q11 3 18 6q17 6 30 17q12 13 16 28l5 17l7 53q1 7 1 19q-1 3 -1 9l-1 10q-1 12 -7 36t-11 35q-7 20 -16 31
q-6 9 -11 12q-5 6 -13 10l-14 6q-6 2 -8 2l-17 1l-9 -1q-5 -1 -15 -5q-7 -3 -15 -9q-6 -5 -11 -11q-10 -12 -17 -30q-8 -17 -9 -34q-2 -12 -2 -18l-1 -13q0 -3 1 -5q0 -16 -16 -18q-17 -2 -19 16l3 24q2 14 4 20q5 22 13 39q9 20 24 36q14 15 35 25q14 4 21 5q2 1 6 1l5 1
h22q3 0 11 -2q7 -1 21 -7q21 -11 33 -29q8 -9 12 -18q5 -10 8 -19q8 -22 11 -39q3 -12 5 -40zM168 20q-1 1 3 -10q-2 -14 -12 -17q-15 -3 -26 2q-12 5 -12 17q-1 10 5 18q5 5 16 5q16 0 26 -15z" />
    <glyph glyph-name="at" unicode="@" horiz-adv-x="275" 
d="M260 85l-5 -15l-6 -13q-6 -11 -19 -22q-9 -9 -23 -16q-8 -3 -26 -8q-13 -3 -26 -3l-26 1q-16 2 -26 5q-15 5 -25 12q-10 8 -19 20q-5 8 -13 24q-6 16 -14 48q-10 56 -13 96q-2 34 -2 49l-2 120q0 16 1 24q0 16 2 48l6 97q2 32 5 48q3 29 11 49q11 30 25 47q9 10 23 18
q13 6 27 8q5 1 13 1h13q16 -2 26 -4q18 -4 25 -8q13 -7 23 -15q10 -9 17 -20q9 -14 12 -24q8 -20 11 -49l1 -12l2 -324q2 -48 0 -96q0 -6 -3 -9l-14 -11q-12 -7 -18 -8q-8 -2 -13 -1q-9 2 -13 6l-6 7q-27 -20 -47 -20q-10 0 -21 6q-56 29 -56 253q0 197 59 216q26 9 55 -14
v6q0 14 14 14q13 0 13 -14l1 -415q0 -6 2 -12q0 -5 3 -8h3q7 2 16 9q1 31 1 91l1 311q0 15 -1 23l-3 23q-4 14 -7 21q-8 21 -23 35q-12 8 -18 11q-3 2 -21 6q-7 1 -21 1l-22 -1q-21 -5 -32 -20q-4 -5 -10 -17q-6 -14 -8 -21q-4 -10 -6 -21l-6 -23q-10 -52 -13 -93
q-1 -16 -1 -48v-143l3 -95l3 -47q1 -22 6 -47q5 -26 13 -43q8 -21 24 -33q14 -10 39 -12h22q14 2 21 4q22 6 35 19q9 9 11 16q2 2 4 8l1 8h1q0 18 18 16t16 -20zM179 188l4 2l-2 359q-5 2 -8 6q-21 27 -36 22q-35 -12 -35 -183q0 -118 13 -174q10 -42 24 -49q9 -5 34 13
q3 1 6 4z" />
    <glyph glyph-name="A" unicode="A" horiz-adv-x="229" 
d="M214 237l-2 -166q0 -35 -1 -46v-17q0 -13 -14 -13t-14 14q1 6 1 17l4 118l2 193q-5 0 -7 1q0 1 -2 1l-4 1q-2 1 -7 1q-3 1 -10 1l-116 -3l-3 -46q-1 -9 -1 -27v-26q0 -37 2 -93l3 -72q3 -57 3 -46l2 -16q0 -17 -16 -19q-17 0 -19 16v137l2 175q0 19 1 29q0 19 2 61l5 63
q2 21 8 65q4 22 7 33q4 22 7 33l14 51l6 17q9 19 20 33q10 10 18 13q5 4 11 5l12 1q11 0 23 -5q9 -5 18 -14l11 -17q6 -12 8 -18q8 -23 14 -69q3 -27 8 -132q2 -86 2 -124q1 -19 1 -57q0 -36 1 -53zM190 372l-1 98l-3 65q0 12 -2 32l-5 33q-4 22 -7 32q-2 11 -10 31
q-7 16 -15 24q-3 3 -9 7q-6 2 -10 2l-10 -3q-3 -1 -9 -7q-9 -7 -17 -24q-5 -9 -13 -29q-7 -21 -5 -16l-10 -48q0 -5 -2 -16l-9 -81q-6 -68 -8 -100l125 -3z" />
    <glyph glyph-name="B" unicode="B" horiz-adv-x="236" 
d="M221 177l-1 -38q-1 -11 -5 -38q-5 -20 -13 -38q-7 -16 -22 -33q-12 -14 -33 -25q-16 -10 -39 -13q-27 -2 -40 0q-7 0 -19 2l-25 7q-8 3 -8 12l3 42l3 86l2 213q0 28 -1 42l-8 300q0 9 8 11l19 7l19 3q7 1 20 1q6 0 20 -2q8 -1 19 -5q11 -3 18 -8q9 -4 17 -11l15 -14
q12 -14 22 -33q3 -6 7 -18l6 -18q6 -24 7 -37q1 -3 1 -9q1 -3 1 -9q1 -6 1 -19v-50l-4 -24q-3 -19 -12 -37q-7 -17 -22 -32q-14 -15 -31 -24q-12 -6 -18 -8q13 -5 22 -10q19 -9 31 -26q14 -17 21 -34q6 -14 11 -38q4 -17 6 -37q2 -26 2 -38zM43 687q1 -12 1 -34l3 -285l25 1
q11 1 33 5q18 5 31 12q18 11 26 20q11 13 17 27l6 16l3 16q1 3 1 8l1 26l-7 69q-4 22 -7 33l-11 32q-6 15 -16 28q-3 4 -10 11q-5 6 -13 10q-4 3 -14 7l-15 3q-10 2 -16 1q-11 0 -16 -1zM197 177q0 13 -2 35q-2 24 -5 36q-3 18 -10 33q-7 17 -16 29q-11 13 -25 21t-31 11
q-15 4 -35 4q-9 1 -26 1l4 -207v-118l20 -4q18 -2 33 1q18 2 31 9q17 8 26 19q11 12 18 27q8 16 11 32q5 19 6 35z" />
    <glyph glyph-name="C" unicode="C" horiz-adv-x="244" 
d="M228 167q-2 18 -19 16t-15 -20v-2q0 -5 1 -9q0 -21 -1 -36l-4 -24q-4 -20 -8 -28q-5 -11 -7 -13q-2 -5 -9 -12q-13 -13 -28 -14l-19 -1l-19 3q-12 4 -17 8q-7 4 -12 14l-5 9l-1 5q-1 4 -2 5q-4 10 -6 22q-3 18 -7 49l-3 51q0 9 -2 27l-2 27v54q2 36 2 55l-2 109
q0 36 1 53q2 34 4 52q0 13 3 25q2 16 4 24q5 28 14 44q6 12 11 16q5 6 14 10q13 6 37 4q20 -2 33 -9q13 -6 21 -19q6 -10 10 -25l5 -25q3 -45 2 -36l-1 -13q0 -13 14 -13t14 13v14q0 22 -3 39q-1 12 -6 27q-3 15 -14 33q-3 5 -13 15q-6 6 -18 13q-18 8 -43 10h-22
q-13 -2 -25 -6q-13 -6 -23 -16q-6 -7 -14 -23l-9 -24q-4 -16 -5 -25q-2 -9 -4 -25l-3 -26q-2 -17 -4 -53l-8 -136v-27l3 -55q1 -18 1 -55v-54l3 -53q2 -17 8 -51q1 -6 8 -26q5 -13 12 -23q11 -14 20 -20q11 -8 24 -11q8 -2 24 -4l17 -1q2 1 6 1t12 2t11 4q11 5 19 13
q8 6 14 16q6 9 10 17q8 18 11 32q5 15 6 27q3 17 3 39v15z" />
    <glyph glyph-name="D" unicode="D" horiz-adv-x="234" 
d="M217 345q2 -38 2 -56q0 -37 -1 -55q-1 -17 -5 -56q-5 -29 -12 -55l-9 -27q-5 -15 -12 -26q-14 -28 -36 -47q-24 -21 -55 -27q-17 -3 -31 -2q-5 0 -15 2q-5 0 -8 1l-12 4q-8 3 -8 11l2 86q1 14 1 43l2 85l1 128l-2 42l-1 171q0 29 1 43l2 85q0 8 7 11q0 1 1 1l7 2q2 1 4 1
l20 2q4 0 16 -2q10 -2 15 -4q10 -4 14 -7q10 -6 13 -9q13 -8 22 -21q12 -16 17 -25l12 -26q4 -7 5 -13l9 -27q1 -2 2 -7q2 -4 2 -7l9 -41q1 -2 1 -6l1 -7q4 -17 5 -28l2 -13q2 -9 2 -14l9 -83zM195 235q1 9 1 27l1 55l-3 54q0 9 -2 27q-1 27 -6 54q-2 18 -4 27q-1 9 -5 27
l-8 32q0 3 -2 7q-2 8 -4 12q-7 24 -20 50l-12 22q-8 13 -15 21q-16 21 -35 31q-10 4 -22 6l-15 -1l2 -119v-149l-2 -150l5 -246l11 -1q8 -1 24 1q23 4 43 21q15 13 31 39q-4 -7 11 23q5 14 8 25q8 26 12 52z" />
    <glyph glyph-name="E" unicode="E" horiz-adv-x="218" 
d="M189 26q13 0 13 -14q0 -13 -14 -13l-162 1q-11 0 -11 12l3 217l-2 84q-1 14 -1 43q0 14 2 42t2 42l-1 127l4 127q0 9 10 11l114 11l38 5q17 2 19 -15q4 -17 -15 -19l-143 -4l1 -180l-1 -21q-2 -28 -2 -42q0 -28 1 -42q1 -9 1 -27l28 -2l77 4q15 2 15 -13q2 -15 -14 -15
q-7 -1 -17 -1l-69 -3l-20 -4q0 -16 -1 -24l-3 -42l-1 -42q-1 -14 -1 -43v-163z" />
    <glyph glyph-name="F" unicode="F" horiz-adv-x="222" 
d="M207 696q-2 -11 -13 -13l-72 2l-62 5h-15q1 -10 1 -29l1 -87q-2 -29 -1 -44q0 -14 1 -21q0 -8 2 -22q1 -7 1 -22v-22q0 -15 -2 -43l-2 -28l30 -1q3 1 9 1l58 6q18 2 20 -15q4 -17 -14 -19q-1 -1 -4 -1q-1 1 -4 1l-64 -1l-22 -2l-9 -3l8 -329q0 -16 -15 -16q-16 0 -16 16
v326l-1 21q0 22 -3 44l-3 43v44q2 14 2 21l1 22q-2 28 -2 43q-1 8 -1 22l-1 65q0 29 1 44v1q0 15 14 13l42 -3l93 -2l30 -2q14 -2 12 -15z" />
    <glyph glyph-name="G" unicode="G" horiz-adv-x="242" 
d="M191 586q0 7 -2 19q-3 15 -10 38q-9 20 -19 31q-12 12 -29 15l-19 1l-18 -3q-10 -4 -15 -7t-11 -12q-10 -14 -13 -36q-1 -3 -6 -40q-2 -26 -4 -82l-2 -84q-2 -54 -2 -83l2 -42q2 -28 3 -41q0 -29 2 -83q1 -49 9 -82q4 -21 12 -38l9 -16q6 -8 13 -12q7 -5 16 -6
q5 -2 18 -2l4 1q2 0 4 1q4 0 7 3q7 3 13 10q13 15 19 33q7 17 12 38q8 42 11 81q3 42 3 83v68l-81 -9q-13 -2 -15 12t12 16l96 9q12 2 14 -11v-2q0 -55 -1 -84q-2 -56 -4 -84q-6 -56 -13 -84q-5 -23 -13 -42q-10 -24 -23 -39q-10 -10 -20 -15q-4 -2 -12 -4l-13 -2
q-15 0 -23 2q-14 3 -23 10q-7 5 -17 17q-8 8 -12 20q-6 14 -14 42l-4 21q-2 5 -4 21l-6 42q-6 37 -7 84q-1 16 0 42l1 84v84q0 28 1 42q0 14 2 42t4 42q2 20 9 43l6 21l11 21q6 11 16 18q10 9 22 12q8 2 24 4l11 1q8 0 12 -1q13 -2 24 -7q14 -7 20 -14q16 -16 27 -39
q6 -14 8 -21q3 -7 7 -21l6 -39q0 -3 1 -5v-1q0 -16 -17 -18q-16 -2 -18 16z" />
    <glyph glyph-name="H" unicode="H" horiz-adv-x="249" 
d="M236 703l-5 -66l-2 -81l2 -42v-60q-2 -20 -2 -31q-2 -15 0 -31l2 -32q0 -22 -1 -32l-3 -32q-1 -10 -1 -31l1 -139q0 -64 1 -107q0 -14 -14 -14t-14 14l5 246q0 21 -1 31q0 10 -2 32l-1 15l-42 -2l-63 2l-15 -1q-8 0 -12 -1q-8 0 -11 -1h-3q-1 -6 -1 -18q-2 -20 -2 -31
q-1 -11 -1 -31l7 -246q2 -14 -13 -14q-14 0 -14 13v246l-1 16q-1 10 -1 15l-3 32q-1 5 -1 16l-1 16q0 11 2 31q1 17 0 32l-2 46v112l-7 118q-2 17 16 19q17 2 19 -15l-4 -87l3 -177v-16q-1 -10 1 -31l2 -18l42 -3h32l31 2l42 -2q0 9 2 27q2 14 1 31l-1 62q0 20 1 29l2 80
q-1 8 -1 23l-2 39l-2 45q-2 16 16 18q17 2 19 -16z" />
    <glyph glyph-name="I" unicode="I" horiz-adv-x="206" 
d="M176 35q17 0 17 -17q0 -16 -15 -18h-44q-16 -2 -25 -2l-62 -4q-3 0 -6 -1q-17 -2 -19 15q-4 16 14 20h25l33 2l1 201q0 20 -1 30q0 21 -1 31l-3 31q-2 22 -2 32t2 32q1 10 1 31l-3 31l1 138l-6 99q-2 -1 -6 -1l-35 -3q-4 0 -6 -1q-17 0 -19 16q-2 17 16 19l102 1l31 4
q18 4 21 -13q4 -18 -13 -21q-4 -2 -7 0l-51 1l-1 -24q-1 -9 -1 -33q-1 -7 -1 -21l-1 -47q0 -9 1 -13q0 -9 1 -14q1 -9 1 -28v-14v-76q0 -21 1 -31l3 -32l-3 -63q-1 -10 -1 -31l6 -230l23 1q7 0 11 1z" />
    <glyph glyph-name="J" unicode="J" horiz-adv-x="201" 
d="M182 255l1 -56q1 -18 -1 -56t-5 -57q-5 -27 -6 -29q-5 -17 -14 -30q-4 -7 -12 -13t-16 -9q-9 -3 -17 -3q-5 -1 -16 -1l-16 2q-10 3 -16 7q-15 8 -25 23q-6 9 -14 29q-4 12 -7 29l-3 30v30q2 15 17 15q16 -2 16 -17v-2q-1 -1 -1 -6l-1 -19q0 -18 1 -27q1 -10 5 -25
q5 -13 10 -22q8 -11 15 -15q3 -2 9 -4q2 -1 6 -1l18 -1q11 4 10 3q10 3 14 12q4 6 8 22l5 26q1 5 1 14l1 13q1 5 1 14l5 96v56q-2 18 -2 28q-1 10 -1 56l3 56q2 36 2 56v111l-2 98l-75 -3q-16 0 -16 15q-2 16 15 16h90q14 0 14 -14l-2 -223q0 -20 2 -56l3 -56q0 -46 -1 -56z
" />
    <glyph glyph-name="K" unicode="K" horiz-adv-x="250" 
d="M234 14q5 -15 -9 -22q-16 -5 -22 11l-20 63l-47 127l-19 45q-2 3 -4 9q0 2 -2 5l-45 115q-3 -4 -4 -8q-6 -10 -9 -18l-6 -13v-5q0 -21 1 -32l2 -77l-2 -43q-1 -9 -1 -26l1 -133q2 -16 -15 -16q-15 -2 -17 16l1 30q1 9 1 34v82l-1 13q-1 10 -1 29q-1 9 -1 29l2 62
q1 11 1 32l1 158l-3 187q0 19 -1 30q0 17 17 17t17 -16l-3 -241l-1 -8q0 -20 1 -31l1 -32l113 236l48 83q8 10 17 2q6 -4 4 -13l-14 -35l-24 -53l-16 -31q-5 -11 -17 -33l-18 -34q-2 -5 -9 -17l-46 -87l1 -1q3 -3 6 -11q6 -12 9 -20l15 -39q-2 5 5 -16l24 -69q6 -21 13 -38z
" />
    <glyph glyph-name="L" unicode="L" horiz-adv-x="193" 
d="M163 29q13 2 15 -12q0 -15 -14 -15l-135 -3q-12 0 -12 12l2 65v86l-4 64v22q0 14 1 21l3 43l-2 108l4 108l-2 108l-3 65q0 16 16 18q17 0 19 -17l-4 -66l-3 -86q0 -15 -1 -22l2 -65v-97l-2 -32v-22q0 -14 1 -21l1 -11l-1 -75l-2 -22q-2 -28 -2 -43v-117z" />
    <glyph glyph-name="M" unicode="M" horiz-adv-x="284" 
d="M265 13q2 -16 -15 -16q-14 -2 -16 15l-16 579l-19 -102l-47 -271q-4 -16 -20 -14q-13 4 -14 14q-4 20 -5 30q-4 20 -5 30q-4 21 -10 61q-1 10 -5 30l-7 45l-27 137l-4 -107q-1 -29 -1 -87l-3 -344q0 -16 -16 -16q-15 0 -15 16l9 388l-1 129q1 29 1 86l1 86q0 16 17 16
q14 0 16 -13l31 -181q6 -40 10 -60l17 -90l14 -64l46 214l35 180q2 12 13 10q10 -2 10 -11z" />
    <glyph glyph-name="N" unicode="N" horiz-adv-x="238" 
d="M210 9q0 -12 -12 -12q-9 0 -11 9l-29 130q-6 28 -10 43l-31 128l-19 86l-11 66q-2 14 -4 21l-19 86l-4 -126q-1 -15 -1 -43l-3 -259v-129q0 -17 -16 -17q-17 0 -17 17l10 388l1 302q0 16 16 16q12 0 16 -13l44 -216l31 -129l9 -43q2 -7 4 -21l20 -109q2 -7 4 -21l6 -29
l-11 565q0 15 16 15q14 2 16 -15z" />
    <glyph glyph-name="O" unicode="O" horiz-adv-x="225" 
d="M94 717q-13 -2 -25 -8q-4 -2 -14 -10q-9 -9 -12 -14q-9 -14 -16 -37q-6 -28 -7 -43q-5 -39 -5 -101q0 -76 1 -118q0 -86 1 -132q0 -46 1 -69q0 -24 2 -72q2 -26 4 -37q2 -12 4 -19q3 -11 7 -20q6 -12 13 -19q5 -5 9 -7q5 -5 10 -6q4 -2 21 -7l11 -1q7 0 10 -1q26 2 42 10
q9 4 18 13q8 8 13 18q7 12 13 38q3 10 7 37l2 18q2 12 2 18q2 24 2 36q1 6 1 18l1 52l-1 131q-2 42 -2 61v110q0 18 -2 48q-1 22 -6 43q-3 21 -13 38l-12 15q-10 8 -15 10q-12 6 -25 8q-7 1 -15 1zM118 685q7 0 11 -1q9 0 16 -3q8 -5 14 -13q7 -12 11 -28t6 -39q2 -14 4 -46
q1 -9 1 -26l1 -83q1 -20 -1 -61l-2 -165q0 -23 -1 -35q0 -47 -3 -70q-2 -23 -5 -34q-6 -22 -12 -30q-2 -4 -4 -6q-2 -3 -5 -5q-3 -3 -11 -7q-6 -3 -13 -3l-16 -1q-19 0 -30 4l-10 6q-2 1 -9 11q-6 12 -10 31q-1 3 -6 34q-2 22 -4 70v69q0 90 1 132q0 45 2 117q2 61 7 98
q4 26 7 38t12 28q7 9 16 13q7 4 15 4q4 1 10 1h8z" />
    <glyph glyph-name="P" unicode="P" horiz-adv-x="214" 
d="M199 554v-36q0 -48 -2 -72q-5 -34 -6 -37q-3 -21 -13 -37q-4 -8 -13 -17q-5 -5 -8 -7l-9 -6q-12 -6 -19 -7q-12 -4 -19 -4q-19 -3 -37 -3h-28l-2 -59l6 -237q0 -14 1 -21q2 -18 -16 -18q-18 -2 -18 16l4 260l-3 173l2 129q0 15 -2 43q0 15 -2 43v44q0 12 12 14l3 1h17
q13 0 20 -1q19 -2 37 -9q6 -2 18 -8q9 -5 16 -10q10 -7 15 -13q5 -4 13 -14q6 -9 10 -17q5 -9 8 -17q5 -12 11 -36q2 -11 4 -37zM177 553l-3 34l-4 17q0 2 -2 8l-3 7q-6 16 -16 29q-8 12 -23 22q-7 5 -14 8l-15 6q-22 4 -32 4h-18q-1 -1 -2 -1v-30q0 -13 -2 -43v-43
q0 -29 1 -43l1 -21v-151l28 -1q23 0 33 2q20 2 30 8q12 5 20 20q8 12 11 29q-1 -2 6 34q2 22 4 70v35z" />
    <glyph glyph-name="Q" unicode="Q" 
d="M225 -58q-10 -6 -19 1l-6 7q-4 4 -6 7l-26 41l-7 9l-8 -4q-1 -1 -4 -1q-1 -1 -3 -1q-1 -1 -3 -1l-26 -4l-25 2q-4 0 -6 1l-6 1l-11 6h-2l-14 11l-10 13q-1 2 -2 2q-11 21 -13 38q-3 13 -7 43q-2 30 -2 48q-1 16 -1 52l-3 182v102l3 71q2 24 4 36l2 19q2 12 4 18
q3 21 13 38q5 11 13 18q5 6 19 14l11 3q-1 -1 10 3l23 2l8 -1q3 0 11 -2l5 -1q6 -3 5 -2q2 0 6 -2l13 -7l14 -14l6 -10q2 -2 2 -4l4 -10q1 -1 3 -10l5 -19q2 -13 4 -37q2 -23 4 -71l1 -70q1 -46 1 -132q1 -41 1 -117q0 -71 -3 -101q-4 -30 -7 -43q-5 -23 -17 -39q2 -2 2 -3
l9 -15q0 -1 2 -3q0 -1 2 -3l30 -38q1 -1 1 -2q9 -13 -4 -21zM145 35l-34 55q-2 3 -6 7l-6 6q-14 12 -2 25q12 15 25 2q4 -3 6 -8l8 -16l19 -29q5 -10 4 -7l7 -10q0 2 2 6l2 7q3 13 7 39q5 48 5 98q2 72 2 117q1 42 1 132q0 46 -1 69q-2 48 -5 70q-1 17 -6 34q-3 17 -11 31
l-4 6l-13 12l-13 4l-30 1l-17 -3q-6 -2 -12 -7l-9 -10l-11 -30q-4 -21 -5 -34q-2 -24 -2 -70l-2 -201q-2 -41 -1 -61q0 -38 1 -56q2 -56 6 -98q3 -26 7 -39q4 -16 11 -28q6 -9 15 -14q10 -4 14 -4l25 -1z" />
    <glyph glyph-name="R" unicode="R" horiz-adv-x="227" 
d="M212 10q2 -14 -13 -14q-9 -2 -13 8q-1 1 -2 4l-9 28l-13 48l-51 213l-13 45q-9 -1 -25 -1h-27l-2 -72l3 -172q0 -29 1 -43q0 -15 2 -43q0 -18 -17 -18q-18 -2 -18 16v2q1 7 1 21l2 43l3 216l-1 21q-1 15 -1 44l-1 86l2 129q0 15 -2 43q-1 15 -1 43l1 44q0 11 10 13l20 3
q7 1 20 1q22 0 38 -4q7 -1 19 -5q7 -2 19 -8q20 -13 31 -25q13 -14 21 -34l9 -27q0 -4 2 -10q2 -11 4 -37v-37q0 -25 -1 -37q-2 -24 -4 -37q-1 -11 -7 -38q-8 -24 -18 -36q-6 -10 -14 -16q-7 -6 -18 -12q-7 -4 -23 -8l1 -3q5 -25 4 -18q-2 6 5 -22l56 -197l16 -63l4 -24v-10
zM73 368q12 0 34 2q22 4 31 9q5 2 13 8q4 3 10 11q10 13 14 29q5 17 8 33q3 23 5 71l1 36q0 18 -3 34q-3 18 -9 33q-10 20 -18 28q-10 12 -25 20q-7 5 -15 6l-17 4q-15 3 -33 1l-9 -1q-5 0 -8 -1l-5 -2v-75l-3 -43l2 -202z" />
    <glyph glyph-name="S" unicode="S" horiz-adv-x="219" 
d="M169 557q0 -16 17 -18q18 0 18 17l-1 15q0 17 -4 40q-1 8 -5 28q-7 23 -12 33q-3 10 -9 17q-7 10 -15 17l-10 7q-5 4 -11 5q-6 3 -12 3q-4 1 -12 1l-18 -1q-4 0 -6 -1q-11 -1 -24 -8q-8 -4 -12 -7l-11 -9q-9 -10 -15 -24q-6 -16 -7 -26q-3 -12 -3 -26q-2 -18 -2 -53v-27
q0 -8 2 -28q1 -26 13 -56q3 -9 11 -27l7 -13q3 -8 7 -13l15 -25q15 -20 18 -23l56 -62l15 -22q6 -8 11 -22q4 -15 5 -25q1 -9 1 -26q1 -9 1 -27q0 -35 -1 -51q-2 -27 -7 -47q-7 -25 -17 -38q-2 -2 -3 -4q-2 -2 -4 -3l-7 -5l-8 -3q-4 -2 -8 -2q-3 -1 -9 -1l-16 1l-7 3
q-12 5 -23 20q-8 11 -13 25q-3 8 -7 24q-4 20 -4 36v13q0 15 -14 13q-14 0 -14 -14l1 -14q0 -19 5 -40q4 -15 9 -28q7 -17 17 -31q8 -10 14 -15q12 -9 18 -12l3 -1q2 0 3 -1q6 -3 5 -2l24 -2q4 0 12 2q6 0 13 3q6 1 11 5q13 8 20 18q6 7 14 23q3 8 7 24q5 23 7 52v66l-1 13
q0 10 -2 28q0 4 -2 14l-3 15q-4 13 -11 28l-16 25l-17 23q-9 13 -17 22l-9 11q-1 2 -4 5l-39 48q-6 7 -14 23q-7 13 -11 24q-6 20 -8 51q-1 17 -1 52t1 51q0 8 2 24q2 11 5 21q3 11 9 17q6 8 15 12q13 6 37 6q18 0 29 -11q10 -10 17 -26q5 -16 8 -28l3 -26q1 -15 1 -36
q-1 -4 -1 -9v-5z" />
    <glyph glyph-name="T" unicode="T" horiz-adv-x="242" 
d="M216 692l-22 1l-39 -1q-10 0 -16 -1l-1 -23q-2 -18 -2 -33l-2 -44l2 -80v-61q0 -9 -2 -31q0 -21 1 -32l3 -32l-1 -16q-1 -10 -1 -16q-2 -22 -2 -32q-1 -10 -1 -31l3 -248q0 -12 -14 -14q-14 0 -14 14l4 248q0 21 -1 31q-2 22 -2 32q-2 22 -2 32q0 12 2 32q1 11 1 32
l-2 62l2 98l-4 110l-70 -6q-17 -2 -19 16q-2 17 17 19h41l107 5q7 0 11 1l16 2q16 4 20 -13q3 -17 -13 -21z" />
    <glyph glyph-name="U" unicode="U" 
d="M222 698q0 17 -18 17t-16 -18l3 -134q1 -14 1 -44q1 -15 1 -49q1 -17 1 -53q0 -37 -1 -57l-2 -122l-3 -64q-2 -42 -5 -65l-3 -16q0 -2 -2 -7l-2 -8q-7 -17 -13 -27q-7 -11 -19 -18l-12 -3l-17 -1l-9 2q-8 2 -11 5q-11 6 -19 19q-8 14 -12 29l-5 15l-3 16q-6 31 -9 64
l-3 65q-1 42 -1 122l1 57q0 35 1 53l4 227q0 17 -17 17t-17 -17l3 -337l4 -139q0 -11 1 -16q0 -11 2 -33q4 -47 7 -67q8 -46 20 -69q4 -8 10 -17l15 -15q9 -6 20 -9q-1 1 10 -3l16 -2l15 2q9 3 20 8q10 6 17 14q8 8 12 16q6 11 14 35q0 2 2 8l2 9q0 2 2 8l2 9q6 35 9 67
q2 22 2 33l1 32q1 22 1 63q-1 11 -1 31l-2 86l1 218q3 53 2 46v17z" />
    <glyph glyph-name="V" unicode="V" horiz-adv-x="245" 
d="M232 701l-11 -65l-28 -194q-4 -27 -5 -43l-21 -173q-4 -28 -7 -43l-7 -43l-8 -64l-6 -67q-4 -15 -20 -13q-12 3 -13 15l-11 108l-13 108l-49 344l-16 130q-2 17 15 19t19 -15l3 -44l33 -302l29 -215l6 -34l15 120l31 215l23 195l4 43q1 15 2 22q2 17 19 15t16 -19z" />
    <glyph glyph-name="W" unicode="W" horiz-adv-x="298" 
d="M283 701l-5 -129l-28 -517q-1 -15 -5 -43v-1q-3 -12 -14 -10q-8 2 -10 9l-31 145l-22 116l-6 52q0 5 -1 7l-13 73l-28 -189q-2 -20 -4 -29l-28 -175q-2 -15 -16 -11q-10 1 -12 12l-9 174l-36 520q0 14 12 14q13 2 15 -12l37 -572l13 83l30 175q1 9 5 29l7 36q-1 -2 2 7
l6 14q2 6 8 2q1 0 1 -1l2 -1l7 -21l41 -181q1 -1 6 -29l17 -100l31 555q0 15 15 13q15 0 13 -15z" />
    <glyph glyph-name="X" unicode="X" horiz-adv-x="240" 
d="M142 351l35 -118q12 -40 17 -59q8 -24 15 -52q2 -5 13 -45l11 -47q4 -16 2 -10q1 -2 1 -6q0 -1 1 -2q2 -14 -11 -16q-12 -4 -16 9l-21 63l-64 224l-52 -179l-12 -45q-5 -23 -9 -34l-8 -30q-4 -15 -18 -10q-13 3 -10 18l36 121l26 99q23 84 31 118l-63 228l-36 120
q-5 14 9 18q14 3 19 -10l30 -109q4 -16 7 -25q2 -9 8 -27l42 -139l5 19q6 26 17 62q9 39 16 59l15 53q8 29 13 44l21 64q5 12 18 8q11 -5 9 -16l-28 -110l-32 -111q-8 -32 -18 -62z" />
    <glyph glyph-name="Y" unicode="Y" horiz-adv-x="260" 
d="M249 699q-1 -2 -2 -8l-7 -37q-2 -12 -4 -19q-1 -7 -11 -45l-42 -174q-5 -18 -8 -32l-9 -32l-53 -213q-5 -14 -6 -26l-18 -79q-5 -19 -7 -30q-4 -13 -18 -11q-13 4 -11 18l31 121l51 221q-1 0 -1 1q1 -1 -2 5l-9 23l-26 77q-12 36 -20 64l-5 17q-3 9 -5 16q-5 14 -10 32
l-9 29q0 3 -2 7q-1 5 -2 7l-24 66q-5 14 9 19q14 6 18 -9q1 0 1 -1l16 -54q2 -3 4 -13q4 -7 5 -13l75 -211q0 -1 1 -2l30 133l24 96q3 11 10 34q0 3 2 7l7 23q5 12 18 9q11 -5 9 -16z" />
    <glyph glyph-name="Z" unicode="Z" horiz-adv-x="264" 
d="M249 11q0 -11 -13 -13l-76 -2h-128q-17 0 -17 17q0 3 1 5l202 669l-186 -3q-14 0 -14 14q-2 15 14 15h178l26 1q13 0 13 -13v-4l-193 -667l180 -4q15 0 13 -15z" />
    <glyph glyph-name="backslash" unicode="\" horiz-adv-x="268" 
d="M29 665q7 -17 12 -34q3 -6 7 -20l8 -23q1 -4 4 -12l4 -13q0 -2 2 -7q1 -4 2 -7l19 -72l5 -15q1 -7 5 -16l11 -31q5 -18 8 -32q1 -5 4 -16q2 -11 4 -17l23 -63q3 -7 10 -31q3 -7 10 -31l62 -218q3 -14 17 -10q13 4 9 17l-68 217q-3 7 -10 31q-6 18 -8 32q-2 5 -4 16l-4 16
q-2 11 -8 33q-4 14 -12 32q-3 7 -10 31l-4 16q-3 11 -4 16l-7 24l-11 36q-6 20 -10 29q-2 6 -5 13l-4 13q-4 11 -7 26l-26 101l-1 8q-4 17 -21 13t-13 -21q0 -2 1 -2z" />
    <glyph glyph-name="asciicircum" unicode="^" horiz-adv-x="203" 
d="M189 748q-10 -13 -24 -3q-1 0 -1 1q-5 3 -8 8l-47 44l-66 -50q-11 -9 -20 2t2 20l75 57q10 7 18 -1l33 -28l18 -13q6 -4 8 -6q3 -3 9 -7q14 -11 3 -24z" />
    <glyph glyph-name="underscore" unicode="_" horiz-adv-x="360" 
d="M329 -38q16 2 16 19q-2 18 -19 16l-27 -2q-5 -1 -15 -1l-80 -3l-67 3l-108 -1q-14 0 -14 -14q0 -13 14 -13h121q20 0 29 1l6 1l73 -1z" />
    <glyph glyph-name="grave" unicode="`" horiz-adv-x="158" 
d="M129 730q15 -7 23 9q7 16 -9 23l-22 9q-3 2 -4 2q-12 6 -9 4q-26 13 -19 10q-9 6 -19 11l-33 19q-14 6 -19 -6q-8 -13 6 -19q6 -4 16 -9l55 -30l9 -6q4 -2 7 -5q12 -7 11 -7z" />
    <glyph glyph-name="a" unicode="a" horiz-adv-x="229" 
d="M214 237l-2 -166q0 -35 -1 -46v-17q0 -13 -14 -13t-14 14q1 6 1 17l4 118l2 193q-5 0 -7 1q0 1 -2 1l-4 1q-2 1 -7 1q-3 1 -10 1l-116 -3l-3 -46q-1 -9 -1 -27v-26q0 -37 2 -93l3 -72q3 -57 3 -46l2 -16q0 -17 -16 -19q-17 0 -19 16v137l2 175q0 19 1 29q0 19 2 61l5 63
q2 21 8 65q4 22 7 33q4 22 7 33l14 51l6 17q9 19 20 33q10 10 18 13q5 4 11 5l12 1q11 0 23 -5q9 -5 18 -14l11 -17q6 -12 8 -18q8 -23 14 -69q3 -27 8 -132q2 -86 2 -124q1 -19 1 -57q0 -36 1 -53zM190 372l-1 98l-3 65q0 12 -2 32l-5 33q-4 22 -7 32q-2 11 -10 31
q-7 16 -15 24q-3 3 -9 7q-6 2 -10 2l-10 -3q-3 -1 -9 -7q-9 -7 -17 -24q-5 -9 -13 -29q-7 -21 -5 -16l-10 -48q0 -5 -2 -16l-9 -81q-6 -68 -8 -100l125 -3z" />
    <glyph glyph-name="b" unicode="b" horiz-adv-x="236" 
d="M221 177l-1 -38q-1 -11 -5 -38q-5 -20 -13 -38q-7 -16 -22 -33q-12 -14 -33 -25q-16 -10 -39 -13q-27 -2 -40 0q-7 0 -19 2l-25 7q-8 3 -8 12l3 42l3 86l2 213q0 28 -1 42l-8 300q0 9 8 11l19 7l19 3q7 1 20 1q6 0 20 -2q8 -1 19 -5q11 -3 18 -8q9 -4 17 -11l15 -14
q12 -14 22 -33q3 -6 7 -18l6 -18q6 -24 7 -37q1 -3 1 -9q1 -3 1 -9q1 -6 1 -19v-50l-4 -24q-3 -19 -12 -37q-7 -17 -22 -32q-14 -15 -31 -24q-12 -6 -18 -8q13 -5 22 -10q19 -9 31 -26q14 -17 21 -34q6 -14 11 -38q4 -17 6 -37q2 -26 2 -38zM43 687q1 -12 1 -34l3 -285l25 1
q11 1 33 5q18 5 31 12q18 11 26 20q11 13 17 27l6 16l3 16q1 3 1 8l1 26l-7 69q-4 22 -7 33l-11 32q-6 15 -16 28q-3 4 -10 11q-5 6 -13 10q-4 3 -14 7l-15 3q-10 2 -16 1q-11 0 -16 -1zM197 177q0 13 -2 35q-2 24 -5 36q-3 18 -10 33q-7 17 -16 29q-11 13 -25 21t-31 11
q-15 4 -35 4q-9 1 -26 1l4 -207v-118l20 -4q18 -2 33 1q18 2 31 9q17 8 26 19q11 12 18 27q8 16 11 32q5 19 6 35z" />
    <glyph glyph-name="c" unicode="c" horiz-adv-x="244" 
d="M228 167q-2 18 -19 16t-15 -20v-2q0 -5 1 -9q0 -21 -1 -36l-4 -24q-4 -20 -8 -28q-5 -11 -7 -13q-2 -5 -9 -12q-13 -13 -28 -14l-19 -1l-19 3q-12 4 -17 8q-7 4 -12 14l-5 9l-1 5q-1 4 -2 5q-4 10 -6 22q-3 18 -7 49l-3 51q0 9 -2 27l-2 27v54q2 36 2 55l-2 109
q0 36 1 53q2 34 4 52q0 13 3 25q2 16 4 24q5 28 14 44q6 12 11 16q5 6 14 10q13 6 37 4q20 -2 33 -9q13 -6 21 -19q6 -10 10 -25l5 -25q3 -45 2 -36l-1 -13q0 -13 14 -13t14 13v14q0 22 -3 39q-1 12 -6 27q-3 15 -14 33q-3 5 -13 15q-6 6 -18 13q-18 8 -43 10h-22
q-13 -2 -25 -6q-13 -6 -23 -16q-6 -7 -14 -23l-9 -24q-4 -16 -5 -25q-2 -9 -4 -25l-3 -26q-2 -17 -4 -53l-8 -136v-27l3 -55q1 -18 1 -55v-54l3 -53q2 -17 8 -51q1 -6 8 -26q5 -13 12 -23q11 -14 20 -20q11 -8 24 -11q8 -2 24 -4l17 -1q2 1 6 1t12 2t11 4q11 5 19 13
q8 6 14 16q6 9 10 17q8 18 11 32q5 15 6 27q3 17 3 39v15z" />
    <glyph glyph-name="d" unicode="d" horiz-adv-x="234" 
d="M217 345q2 -38 2 -56q0 -37 -1 -55q-1 -17 -5 -56q-5 -29 -12 -55l-9 -27q-5 -15 -12 -26q-14 -28 -36 -47q-24 -21 -55 -27q-17 -3 -31 -2q-5 0 -15 2q-5 0 -8 1l-12 4q-8 3 -8 11l2 86q1 14 1 43l2 85l1 128l-2 42l-1 171q0 29 1 43l2 85q0 8 7 11q0 1 1 1l7 2q2 1 4 1
l20 2q4 0 16 -2q10 -2 15 -4q10 -4 14 -7q10 -6 13 -9q13 -8 22 -21q12 -16 17 -25l12 -26q4 -7 5 -13l9 -27q1 -2 2 -7q2 -4 2 -7l9 -41q1 -2 1 -6l1 -7q4 -17 5 -28l2 -13q2 -9 2 -14l9 -83zM195 235q1 9 1 27l1 55l-3 54q0 9 -2 27q-1 27 -6 54q-2 18 -4 27q-1 9 -5 27
l-8 32q0 3 -2 7q-2 8 -4 12q-7 24 -20 50l-12 22q-8 13 -15 21q-16 21 -35 31q-10 4 -22 6l-15 -1l2 -119v-149l-2 -150l5 -246l11 -1q8 -1 24 1q23 4 43 21q15 13 31 39q-4 -7 11 23q5 14 8 25q8 26 12 52z" />
    <glyph glyph-name="e" unicode="e" horiz-adv-x="218" 
d="M189 26q13 0 13 -14q0 -13 -14 -13l-162 1q-11 0 -11 12l3 217l-2 84q-1 14 -1 43q0 14 2 42t2 42l-1 127l4 127q0 9 10 11l114 11l38 5q17 2 19 -15q4 -17 -15 -19l-143 -4l1 -180l-1 -21q-2 -28 -2 -42q0 -28 1 -42q1 -9 1 -27l28 -2l77 4q15 2 15 -13q2 -15 -14 -15
q-7 -1 -17 -1l-69 -3l-20 -4q0 -16 -1 -24l-3 -42l-1 -42q-1 -14 -1 -43v-163z" />
    <glyph glyph-name="f" unicode="f" horiz-adv-x="222" 
d="M207 696q-2 -11 -13 -13l-72 2l-62 5h-15q1 -10 1 -29l1 -87q-2 -29 -1 -44q0 -14 1 -21q0 -8 2 -22q1 -7 1 -22v-22q0 -15 -2 -43l-2 -28l30 -1q3 1 9 1l58 6q18 2 20 -15q4 -17 -14 -19q-1 -1 -4 -1q-1 1 -4 1l-64 -1l-22 -2l-9 -3l8 -329q0 -16 -15 -16q-16 0 -16 16
v326l-1 21q0 22 -3 44l-3 43v44q2 14 2 21l1 22q-2 28 -2 43q-1 8 -1 22l-1 65q0 29 1 44v1q0 15 14 13l42 -3l93 -2l30 -2q14 -2 12 -15z" />
    <glyph glyph-name="g" unicode="g" horiz-adv-x="242" 
d="M191 586q0 7 -2 19q-3 15 -10 38q-9 20 -19 31q-12 12 -29 15l-19 1l-18 -3q-10 -4 -15 -7t-11 -12q-10 -14 -13 -36q-1 -3 -6 -40q-2 -26 -4 -82l-2 -84q-2 -54 -2 -83l2 -42q2 -28 3 -41q0 -29 2 -83q1 -49 9 -82q4 -21 12 -38l9 -16q6 -8 13 -12q7 -5 16 -6
q5 -2 18 -2l4 1q2 0 4 1q4 0 7 3q7 3 13 10q13 15 19 33q7 17 12 38q8 42 11 81q3 42 3 83v68l-81 -9q-13 -2 -15 12t12 16l96 9q12 2 14 -11v-2q0 -55 -1 -84q-2 -56 -4 -84q-6 -56 -13 -84q-5 -23 -13 -42q-10 -24 -23 -39q-10 -10 -20 -15q-4 -2 -12 -4l-13 -2
q-15 0 -23 2q-14 3 -23 10q-7 5 -17 17q-8 8 -12 20q-6 14 -14 42l-4 21q-2 5 -4 21l-6 42q-6 37 -7 84q-1 16 0 42l1 84v84q0 28 1 42q0 14 2 42t4 42q2 20 9 43l6 21l11 21q6 11 16 18q10 9 22 12q8 2 24 4l11 1q8 0 12 -1q13 -2 24 -7q14 -7 20 -14q16 -16 27 -39
q6 -14 8 -21q3 -7 7 -21l6 -39q0 -3 1 -5v-1q0 -16 -17 -18q-16 -2 -18 16z" />
    <glyph glyph-name="h" unicode="h" horiz-adv-x="249" 
d="M236 703l-5 -66l-2 -81l2 -42v-60q-2 -20 -2 -31q-2 -15 0 -31l2 -32q0 -22 -1 -32l-3 -32q-1 -10 -1 -31l1 -139q0 -64 1 -107q0 -14 -14 -14t-14 14l5 246q0 21 -1 31q0 10 -2 32l-1 15l-42 -2l-63 2l-15 -1q-8 0 -12 -1q-8 0 -11 -1h-3q-1 -6 -1 -18q-2 -20 -2 -31
q-1 -11 -1 -31l7 -246q2 -14 -13 -14q-14 0 -14 13v246l-1 16q-1 10 -1 15l-3 32q-1 5 -1 16l-1 16q0 11 2 31q1 17 0 32l-2 46v112l-7 118q-2 17 16 19q17 2 19 -15l-4 -87l3 -177v-16q-1 -10 1 -31l2 -18l42 -3h32l31 2l42 -2q0 9 2 27q2 14 1 31l-1 62q0 20 1 29l2 80
q-1 8 -1 23l-2 39l-2 45q-2 16 16 18q17 2 19 -16z" />
    <glyph glyph-name="i" unicode="i" horiz-adv-x="206" 
d="M176 35q17 0 17 -17q0 -16 -15 -18h-44q-16 -2 -25 -2l-62 -4q-3 0 -6 -1q-17 -2 -19 15q-4 16 14 20h25l33 2l1 201q0 20 -1 30q0 21 -1 31l-3 31q-2 22 -2 32t2 32q1 10 1 31l-3 31l1 138l-6 99q-2 -1 -6 -1l-35 -3q-4 0 -6 -1q-17 0 -19 16q-2 17 16 19l102 1l31 4
q18 4 21 -13q4 -18 -13 -21q-4 -2 -7 0l-51 1l-1 -24q-1 -9 -1 -33q-1 -7 -1 -21l-1 -47q0 -9 1 -13q0 -9 1 -14q1 -9 1 -28v-14v-76q0 -21 1 -31l3 -32l-3 -63q-1 -10 -1 -31l6 -230l23 1q7 0 11 1z" />
    <glyph glyph-name="j" unicode="j" horiz-adv-x="201" 
d="M182 255l1 -56q1 -18 -1 -56t-5 -57q-5 -27 -6 -29q-5 -17 -14 -30q-4 -7 -12 -13t-16 -9q-9 -3 -17 -3q-5 -1 -16 -1l-16 2q-10 3 -16 7q-15 8 -25 23q-6 9 -14 29q-4 12 -7 29l-3 30v30q2 15 17 15q16 -2 16 -17v-2q-1 -1 -1 -6l-1 -19q0 -18 1 -27q1 -10 5 -25
q5 -13 10 -22q8 -11 15 -15q3 -2 9 -4q2 -1 6 -1l18 -1q11 4 10 3q10 3 14 12q4 6 8 22l5 26q1 5 1 14l1 13q1 5 1 14l5 96v56q-2 18 -2 28q-1 10 -1 56l3 56q2 36 2 56v111l-2 98l-75 -3q-16 0 -16 15q-2 16 15 16h90q14 0 14 -14l-2 -223q0 -20 2 -56l3 -56q0 -46 -1 -56z
" />
    <glyph glyph-name="k" unicode="k" horiz-adv-x="250" 
d="M234 14q5 -15 -9 -22q-16 -5 -22 11l-20 63l-47 127l-19 45q-2 3 -4 9q0 2 -2 5l-45 115q-3 -4 -4 -8q-6 -10 -9 -18l-6 -13v-5q0 -21 1 -32l2 -77l-2 -43q-1 -9 -1 -26l1 -133q2 -16 -15 -16q-15 -2 -17 16l1 30q1 9 1 34v82l-1 13q-1 10 -1 29q-1 9 -1 29l2 62
q1 11 1 32l1 158l-3 187q0 19 -1 30q0 17 17 17t17 -16l-3 -241l-1 -8q0 -20 1 -31l1 -32l113 236l48 83q8 10 17 2q6 -4 4 -13l-14 -35l-24 -53l-16 -31q-5 -11 -17 -33l-18 -34q-2 -5 -9 -17l-46 -87l1 -1q3 -3 6 -11q6 -12 9 -20l15 -39q-2 5 5 -16l24 -69q6 -21 13 -38z
" />
    <glyph glyph-name="l" unicode="l" horiz-adv-x="193" 
d="M163 29q13 2 15 -12q0 -15 -14 -15l-135 -3q-12 0 -12 12l2 65v86l-4 64v22q0 14 1 21l3 43l-2 108l4 108l-2 108l-3 65q0 16 16 18q17 0 19 -17l-4 -66l-3 -86q0 -15 -1 -22l2 -65v-97l-2 -32v-22q0 -14 1 -21l1 -11l-1 -75l-2 -22q-2 -28 -2 -43v-117z" />
    <glyph glyph-name="m" unicode="m" horiz-adv-x="284" 
d="M265 13q2 -16 -15 -16q-14 -2 -16 15l-16 579l-19 -102l-47 -271q-4 -16 -20 -14q-13 4 -14 14q-4 20 -5 30q-4 20 -5 30q-4 21 -10 61q-1 10 -5 30l-7 45l-27 137l-4 -107q-1 -29 -1 -87l-3 -344q0 -16 -16 -16q-15 0 -15 16l9 388l-1 129q1 29 1 86l1 86q0 16 17 16
q14 0 16 -13l31 -181q6 -40 10 -60l17 -90l14 -64l46 214l35 180q2 12 13 10q10 -2 10 -11z" />
    <glyph glyph-name="n" unicode="n" horiz-adv-x="238" 
d="M210 9q0 -12 -12 -12q-9 0 -11 9l-29 130q-6 28 -10 43l-31 128l-19 86l-11 66q-2 14 -4 21l-19 86l-4 -126q-1 -15 -1 -43l-3 -259v-129q0 -17 -16 -17q-17 0 -17 17l10 388l1 302q0 16 16 16q12 0 16 -13l44 -216l31 -129l9 -43q2 -7 4 -21l20 -109q2 -7 4 -21l6 -29
l-11 565q0 15 16 15q14 2 16 -15z" />
    <glyph glyph-name="o" unicode="o" horiz-adv-x="225" 
d="M94 717q-13 -2 -25 -8q-4 -2 -14 -10q-9 -9 -12 -14q-9 -14 -16 -37q-6 -28 -7 -43q-5 -39 -5 -101q0 -76 1 -118q0 -86 1 -132q0 -46 1 -69q0 -24 2 -72q2 -26 4 -37q2 -12 4 -19q3 -11 7 -20q6 -12 13 -19q5 -5 9 -7q5 -5 10 -6q4 -2 21 -7l11 -1q7 0 10 -1q26 2 42 10
q9 4 18 13q8 8 13 18q7 12 13 38q3 10 7 37l2 18q2 12 2 18q2 24 2 36q1 6 1 18l1 52l-1 131q-2 42 -2 61v110q0 18 -2 48q-1 22 -6 43q-3 21 -13 38l-12 15q-10 8 -15 10q-12 6 -25 8q-7 1 -15 1zM118 685q7 0 11 -1q9 0 16 -3q8 -5 14 -13q7 -12 11 -28t6 -39q2 -14 4 -46
q1 -9 1 -26l1 -83q1 -20 -1 -61l-2 -165q0 -23 -1 -35q0 -47 -3 -70q-2 -23 -5 -34q-6 -22 -12 -30q-2 -4 -4 -6q-2 -3 -5 -5q-3 -3 -11 -7q-6 -3 -13 -3l-16 -1q-19 0 -30 4l-10 6q-2 1 -9 11q-6 12 -10 31q-1 3 -6 34q-2 22 -4 70v69q0 90 1 132q0 45 2 117q2 61 7 98
q4 26 7 38t12 28q7 9 16 13q7 4 15 4q4 1 10 1h8z" />
    <glyph glyph-name="p" unicode="p" horiz-adv-x="214" 
d="M199 554v-36q0 -48 -2 -72q-5 -34 -6 -37q-3 -21 -13 -37q-4 -8 -13 -17q-5 -5 -8 -7l-9 -6q-12 -6 -19 -7q-12 -4 -19 -4q-19 -3 -37 -3h-28l-2 -59l6 -237q0 -14 1 -21q2 -18 -16 -18q-18 -2 -18 16l4 260l-3 173l2 129q0 15 -2 43q0 15 -2 43v44q0 12 12 14l3 1h17
q13 0 20 -1q19 -2 37 -9q6 -2 18 -8q9 -5 16 -10q10 -7 15 -13q5 -4 13 -14q6 -9 10 -17q5 -9 8 -17q5 -12 11 -36q2 -11 4 -37zM177 553l-3 34l-4 17q0 2 -2 8l-3 7q-6 16 -16 29q-8 12 -23 22q-7 5 -14 8l-15 6q-22 4 -32 4h-18q-1 -1 -2 -1v-30q0 -13 -2 -43v-43
q0 -29 1 -43l1 -21v-151l28 -1q23 0 33 2q20 2 30 8q12 5 20 20q8 12 11 29q-1 -2 6 34q2 22 4 70v35z" />
    <glyph glyph-name="q" unicode="q" 
d="M225 -58q-10 -6 -19 1l-6 7q-4 4 -6 7l-26 41l-7 9l-8 -4q-1 -1 -4 -1q-1 -1 -3 -1q-1 -1 -3 -1l-26 -4l-25 2q-4 0 -6 1l-6 1l-11 6h-2l-14 11l-10 13q-1 2 -2 2q-11 21 -13 38q-3 13 -7 43q-2 30 -2 48q-1 16 -1 52l-3 182v102l3 71q2 24 4 36l2 19q2 12 4 18
q3 21 13 38q5 11 13 18q5 6 19 14l11 3q-1 -1 10 3l23 2l8 -1q3 0 11 -2l5 -1q6 -3 5 -2q2 0 6 -2l13 -7l14 -14l6 -10q2 -2 2 -4l4 -10q1 -1 3 -10l5 -19q2 -13 4 -37q2 -23 4 -71l1 -70q1 -46 1 -132q1 -41 1 -117q0 -71 -3 -101q-4 -30 -7 -43q-5 -23 -17 -39q2 -2 2 -3
l9 -15q0 -1 2 -3q0 -1 2 -3l30 -38q1 -1 1 -2q9 -13 -4 -21zM145 35l-34 55q-2 3 -6 7l-6 6q-14 12 -2 25q12 15 25 2q4 -3 6 -8l8 -16l19 -29q5 -10 4 -7l7 -10q0 2 2 6l2 7q3 13 7 39q5 48 5 98q2 72 2 117q1 42 1 132q0 46 -1 69q-2 48 -5 70q-1 17 -6 34q-3 17 -11 31
l-4 6l-13 12l-13 4l-30 1l-17 -3q-6 -2 -12 -7l-9 -10l-11 -30q-4 -21 -5 -34q-2 -24 -2 -70l-2 -201q-2 -41 -1 -61q0 -38 1 -56q2 -56 6 -98q3 -26 7 -39q4 -16 11 -28q6 -9 15 -14q10 -4 14 -4l25 -1z" />
    <glyph glyph-name="r" unicode="r" horiz-adv-x="227" 
d="M212 10q2 -14 -13 -14q-9 -2 -13 8q-1 1 -2 4l-9 28l-13 48l-51 213l-13 45q-9 -1 -25 -1h-27l-2 -72l3 -172q0 -29 1 -43q0 -15 2 -43q0 -18 -17 -18q-18 -2 -18 16v2q1 7 1 21l2 43l3 216l-1 21q-1 15 -1 44l-1 86l2 129q0 15 -2 43q-1 15 -1 43l1 44q0 11 10 13l20 3
q7 1 20 1q22 0 38 -4q7 -1 19 -5q7 -2 19 -8q20 -13 31 -25q13 -14 21 -34l9 -27q0 -4 2 -10q2 -11 4 -37v-37q0 -25 -1 -37q-2 -24 -4 -37q-1 -11 -7 -38q-8 -24 -18 -36q-6 -10 -14 -16q-7 -6 -18 -12q-7 -4 -23 -8l1 -3q5 -25 4 -18q-2 6 5 -22l56 -197l16 -63l4 -24v-10
zM73 368q12 0 34 2q22 4 31 9q5 2 13 8q4 3 10 11q10 13 14 29q5 17 8 33q3 23 5 71l1 36q0 18 -3 34q-3 18 -9 33q-10 20 -18 28q-10 12 -25 20q-7 5 -15 6l-17 4q-15 3 -33 1l-9 -1q-5 0 -8 -1l-5 -2v-75l-3 -43l2 -202z" />
    <glyph glyph-name="s" unicode="s" horiz-adv-x="219" 
d="M169 557q0 -16 17 -18q18 0 18 17l-1 15q0 17 -4 40q-1 8 -5 28q-7 23 -12 33q-3 10 -9 17q-7 10 -15 17l-10 7q-5 4 -11 5q-6 3 -12 3q-4 1 -12 1l-18 -1q-4 0 -6 -1q-11 -1 -24 -8q-8 -4 -12 -7l-11 -9q-9 -10 -15 -24q-6 -16 -7 -26q-3 -12 -3 -26q-2 -18 -2 -53v-27
q0 -8 2 -28q1 -26 13 -56q3 -9 11 -27l7 -13q3 -8 7 -13l15 -25q15 -20 18 -23l56 -62l15 -22q6 -8 11 -22q4 -15 5 -25q1 -9 1 -26q1 -9 1 -27q0 -35 -1 -51q-2 -27 -7 -47q-7 -25 -17 -38q-2 -2 -3 -4q-2 -2 -4 -3l-7 -5l-8 -3q-4 -2 -8 -2q-3 -1 -9 -1l-16 1l-7 3
q-12 5 -23 20q-8 11 -13 25q-3 8 -7 24q-4 20 -4 36v13q0 15 -14 13q-14 0 -14 -14l1 -14q0 -19 5 -40q4 -15 9 -28q7 -17 17 -31q8 -10 14 -15q12 -9 18 -12l3 -1q2 0 3 -1q6 -3 5 -2l24 -2q4 0 12 2q6 0 13 3q6 1 11 5q13 8 20 18q6 7 14 23q3 8 7 24q5 23 7 52v66l-1 13
q0 10 -2 28q0 4 -2 14l-3 15q-4 13 -11 28l-16 25l-17 23q-9 13 -17 22l-9 11q-1 2 -4 5l-39 48q-6 7 -14 23q-7 13 -11 24q-6 20 -8 51q-1 17 -1 52t1 51q0 8 2 24q2 11 5 21q3 11 9 17q6 8 15 12q13 6 37 6q18 0 29 -11q10 -10 17 -26q5 -16 8 -28l3 -26q1 -15 1 -36
q-1 -4 -1 -9v-5z" />
    <glyph glyph-name="t" unicode="t" horiz-adv-x="242" 
d="M216 692l-22 1l-39 -1q-10 0 -16 -1l-1 -23q-2 -18 -2 -33l-2 -44l2 -80v-61q0 -9 -2 -31q0 -21 1 -32l3 -32l-1 -16q-1 -10 -1 -16q-2 -22 -2 -32q-1 -10 -1 -31l3 -248q0 -12 -14 -14q-14 0 -14 14l4 248q0 21 -1 31q-2 22 -2 32q-2 22 -2 32q0 12 2 32q1 11 1 32
l-2 62l2 98l-4 110l-70 -6q-17 -2 -19 16q-2 17 17 19h41l107 5q7 0 11 1l16 2q16 4 20 -13q3 -17 -13 -21z" />
    <glyph glyph-name="u" unicode="u" 
d="M222 698q0 17 -18 17t-16 -18l3 -134q1 -14 1 -44q1 -15 1 -49q1 -17 1 -53q0 -37 -1 -57l-2 -122l-3 -64q-2 -42 -5 -65l-3 -16q0 -2 -2 -7l-2 -8q-7 -17 -13 -27q-7 -11 -19 -18l-12 -3l-17 -1l-9 2q-8 2 -11 5q-11 6 -19 19q-8 14 -12 29l-5 15l-3 16q-6 31 -9 64
l-3 65q-1 42 -1 122l1 57q0 35 1 53l4 227q0 17 -17 17t-17 -17l3 -337l4 -139q0 -11 1 -16q0 -11 2 -33q4 -47 7 -67q8 -46 20 -69q4 -8 10 -17l15 -15q9 -6 20 -9q-1 1 10 -3l16 -2l15 2q9 3 20 8q10 6 17 14q8 8 12 16q6 11 14 35q0 2 2 8l2 9q0 2 2 8l2 9q6 35 9 67
q2 22 2 33l1 32q1 22 1 63q-1 11 -1 31l-2 86l1 218q3 53 2 46v17z" />
    <glyph glyph-name="v" unicode="v" horiz-adv-x="245" 
d="M232 701l-11 -65l-28 -194q-4 -27 -5 -43l-21 -173q-4 -28 -7 -43l-7 -43l-8 -64l-6 -67q-4 -15 -20 -13q-12 3 -13 15l-11 108l-13 108l-49 344l-16 130q-2 17 15 19t19 -15l3 -44l33 -302l29 -215l6 -34l15 120l31 215l23 195l4 43q1 15 2 22q2 17 19 15t16 -19z" />
    <glyph glyph-name="w" unicode="w" horiz-adv-x="298" 
d="M283 701l-5 -129l-28 -517q-1 -15 -5 -43v-1q-3 -12 -14 -10q-8 2 -10 9l-31 145l-22 116l-6 52q0 5 -1 7l-13 73l-28 -189q-2 -20 -4 -29l-28 -175q-2 -15 -16 -11q-10 1 -12 12l-9 174l-36 520q0 14 12 14q13 2 15 -12l37 -572l13 83l30 175q1 9 5 29l7 36q-1 -2 2 7
l6 14q2 6 8 2q1 0 1 -1l2 -1l7 -21l41 -181q1 -1 6 -29l17 -100l31 555q0 15 15 13q15 0 13 -15z" />
    <glyph glyph-name="x" unicode="x" horiz-adv-x="240" 
d="M142 351l35 -118q12 -40 17 -59q8 -24 15 -52q2 -5 13 -45l11 -47q4 -16 2 -10q1 -2 1 -6q0 -1 1 -2q2 -14 -11 -16q-12 -4 -16 9l-21 63l-64 224l-52 -179l-12 -45q-5 -23 -9 -34l-8 -30q-4 -15 -18 -10q-13 3 -10 18l36 121l26 99q23 84 31 118l-63 228l-36 120
q-5 14 9 18q14 3 19 -10l30 -109q4 -16 7 -25q2 -9 8 -27l42 -139l5 19q6 26 17 62q9 39 16 59l15 53q8 29 13 44l21 64q5 12 18 8q11 -5 9 -16l-28 -110l-32 -111q-8 -32 -18 -62z" />
    <glyph glyph-name="y" unicode="y" horiz-adv-x="260" 
d="M249 699q-1 -2 -2 -8l-7 -37q-2 -12 -4 -19q-1 -7 -11 -45l-42 -174q-5 -18 -8 -32l-9 -32l-53 -213q-5 -14 -6 -26l-18 -79q-5 -19 -7 -30q-4 -13 -18 -11q-13 4 -11 18l31 121l51 221q-1 0 -1 1q1 -1 -2 5l-9 23l-26 77q-12 36 -20 64l-5 17q-3 9 -5 16q-5 14 -10 32
l-9 29q0 3 -2 7q-1 5 -2 7l-24 66q-5 14 9 19q14 6 18 -9q1 0 1 -1l16 -54q2 -3 4 -13q4 -7 5 -13l75 -211q0 -1 1 -2l30 133l24 96q3 11 10 34q0 3 2 7l7 23q5 12 18 9q11 -5 9 -16z" />
    <glyph glyph-name="z" unicode="z" horiz-adv-x="264" 
d="M249 11q0 -11 -13 -13l-76 -2h-128q-17 0 -17 17q0 3 1 5l202 669l-186 -3q-14 0 -14 14q-2 15 14 15h178l26 1q13 0 13 -13v-4l-193 -667l180 -4q15 0 13 -15z" />
    <glyph glyph-name="dieresis" unicode="&#xa8;" horiz-adv-x="151" 
d="M59 782q-10 15 -27 15q-10 0 -15 -5q-7 -8 -6 -18q1 -12 12 -17t26 -2q11 3 13 17q-4 11 -3 10zM139 782q-10 15 -26 15q-11 0 -16 -5q-6 -8 -6 -18q1 -12 13 -17q11 -5 26 -2q10 3 12 17q-4 11 -3 10z" />
    <glyph glyph-name="guillemotleft" unicode="&#xab;" horiz-adv-x="236" 
d="M144 232q10 -9 0 -19q-9 -10 -20 -1l-68 78l-32 26q-9 9 0 20l21 18l5 7q2 3 6 7l6 7l20 18q5 2 7 6l11 14q4 4 5 7q4 4 6 7l5 7q5 7 5 8q9 14 24 5q16 -9 6 -24q-2 -3 -5 -5l-41 -35q-4 -4 -6 -7q-2 -4 -5 -7l-18 -20l-20 -18l-2 -4l3 -5q2 -4 5 -7q2 -3 6 -7q1 -4 6 -7
l6 -6q6 -7 13 -13zM126 327l8 -12q2 -3 6 -7q2 -3 6 -7l70 -69q11 -9 0 -19q-9 -11 -19 -1q0 1 -1 1l-65 74l-34 29q-10 9 -1 20l1 1q4 4 7 5l7 6q4 1 6 6l6 7q1 3 5 7l26 25q4 1 7 6l17 21q4 4 5 7l6 7q0 1 5 8q9 14 24 5q14 -9 5 -24q-1 -2 -4 -5l-22 -17l-19 -18
q-5 -3 -6 -7l-23 -27l-14 -12z" />
    <glyph glyph-name="degree" unicode="&#xb0;" horiz-adv-x="173" 
d="M158 651q0 8 -1 14q0 11 -5 22l-7 13q-6 7 -14 11q-6 4 -16 7q-12 2 -17 2h-18q-12 -2 -18 -4l-10 -4q-5 -2 -10 -5q-9 -7 -15 -18q-3 -6 -8 -20q-2 -6 -4 -20l1 -10l3 -11q3 -11 7 -20l5 -11q4 -6 7 -9t9 -7l11 -5q8 -3 20 -5l18 1q12 2 18 4q8 3 16 8q4 3 12 11
q3 4 7 12t6 22zM135 643q0 -6 -1 -11q0 -7 -5 -15q-3 -6 -12 -12l-10 -4l-23 1l-15 3l-10 6q-6 4 -8 8q-3 6 -3 14l1 14h1q0 1 -1 1l-1 16q0 10 2 14q1 5 6 10q8 4 12 5t14 1h14q5 0 13 -2l10 -3l11 -12q2 -5 4 -15z" />
    <glyph glyph-name="acute" unicode="&#xb4;" horiz-adv-x="157" 
d="M24 761q-14 -10 -5 -24q9 -16 24 -5l50 32q-7 -3 19 10q7 3 17 9l17 9q12 7 5 19q-7 11 -19 6l-16 -10q-9 -3 -17 -9l-38 -21q-3 -2 -9 -4z" />
    <glyph glyph-name="periodcentered" unicode="&#xb7;" horiz-adv-x="81" 
d="M64 312q-10 15 -27 15q-10 0 -15 -5q-7 -8 -6 -18q1 -12 12 -17t26 -2q11 3 13 17q-4 11 -3 10z" />
    <glyph glyph-name="cedilla" unicode="&#xb8;" horiz-adv-x="83" 
d="M77 -56v-7q0 -6 -1 -8q-3 -11 -5 -16q-3 -7 -14 -13q-6 -3 -15 -3q-7 0 -10 1l-9 3q-13 5 -7 19q7 13 20 7l8 -1l2 2q2 2 2 6l1 10q0 7 -1 9q0 5 -2 5q-1 1 -2 1q0 1 -2 1h-8q-2 0 -4 1q-2 0 -4 1q-3 0 -6 3l-5 9v10q0 13 -1 21q0 16 15 16q14 0 16 -15v-1q-1 -6 -1 -17
l3 -1q4 0 9 -3q4 -1 9 -6q4 -4 6 -9q2 -3 4 -9q2 -12 2 -16z" />
    <glyph glyph-name="guillemotright" unicode="&#xbb;" horiz-adv-x="236" 
d="M110 280l-59 -67q-1 0 -1 -1q-10 -10 -19 1q-11 10 0 19l70 69q4 4 6 7q4 4 6 7l8 12l-29 28l-17 21q-1 4 -6 7l-19 18l-22 17q-3 3 -4 5q-9 15 5 24q15 9 24 -5q5 -7 5 -8l6 -7q1 -3 5 -7l17 -21q4 -5 7 -6l26 -25q4 -4 5 -7l6 -7q3 -5 6 -6l7 -6q3 -1 7 -5l1 -1
q10 -11 -1 -20l-21 -17zM223 336q9 -11 0 -20l-14 -12q-1 0 -8 -5l-13 -12l-65 -75q-11 -9 -20 1t0 19q5 4 13 13l38 37q8 6 13 13l6 6q5 3 6 7q4 4 6 7q3 3 5 7l3 5l-2 4l-26 24l-12 14q-3 3 -5 7q-2 3 -6 7l-41 35q-3 2 -5 5q-9 15 6 24t24 -5q1 -1 5 -8l5 -7q2 -3 6 -7
q1 -3 5 -7l11 -14q3 -4 7 -6l14 -12l21 -23q1 -3 2 -4l6 -6q2 -2 8 -6q4 -2 7 -5v-1z" />
    <glyph glyph-name="Agrave" unicode="&#xc0;" horiz-adv-x="229" 
d="M68 814q5 12 19 6l33 -19q10 -5 19 -11q-7 3 19 -10q-3 2 9 -4q2 0 5 -2l21 -9q16 -7 9 -23t-23 -9l-7 5q2 0 -11 7q-3 3 -7 5l-9 6l-55 30q-10 5 -16 9q-14 6 -6 19zM214 237l-2 -166q0 -35 -1 -46v-17q0 -13 -14 -13t-14 14q1 6 1 17l4 118l2 193q-5 0 -7 1q0 1 -2 1
l-4 1q-2 1 -7 1q-3 1 -10 1l-116 -3l-3 -46q-1 -9 -1 -27v-26q0 -37 2 -93l3 -72q3 -57 3 -46l2 -16q0 -17 -16 -19q-17 0 -19 16v137l2 175q0 19 1 29q0 19 2 61l5 63q2 21 8 65q4 22 7 33q4 22 7 33l14 51l6 17q9 19 20 33q10 10 18 13q5 4 11 5l12 1q11 0 23 -5
q9 -5 18 -14l11 -17q6 -12 8 -18q8 -23 14 -69q3 -27 8 -132q2 -86 2 -124q1 -19 1 -57q0 -36 1 -53zM190 372l-1 98l-3 65q0 12 -2 32l-5 33q-4 22 -7 32q-2 11 -10 31q-7 16 -15 24q-3 3 -9 7q-6 2 -10 2l-10 -3q-3 -1 -9 -7q-9 -7 -17 -24q-5 -9 -13 -29q-7 -21 -5 -16
l-10 -48q0 -5 -2 -16l-9 -81q-6 -68 -8 -100l125 -3z" />
    <glyph glyph-name="Aacute" unicode="&#xc1;" horiz-adv-x="229" 
d="M42 739q-9 14 5 24l28 12q6 2 9 4l38 21q8 6 17 9l16 10q13 5 19 -6q7 -12 -5 -19l-17 -9q-10 -6 -17 -9q-26 -13 -19 -10l-35 -22q-8 -6 -11 -7zM214 237l-2 -166q0 -35 -1 -46v-17q0 -13 -14 -13t-14 14q1 6 1 17l4 118l2 193q-5 0 -7 1q0 1 -2 1l-4 1q-2 1 -7 1
q-3 1 -10 1l-116 -3l-3 -46q-1 -9 -1 -27v-26q0 -37 2 -93l3 -72q3 -57 3 -46l2 -16q0 -17 -16 -19q-17 0 -19 16v137l2 175q0 19 1 29q0 19 2 61l5 63q2 21 8 65q4 22 7 33q4 22 7 33l14 51l6 17q9 19 20 33q10 10 18 13q5 4 11 5l12 1q11 0 23 -5q9 -5 18 -14l11 -17
q6 -12 8 -18q8 -23 14 -69q3 -27 8 -132q2 -86 2 -124q1 -19 1 -57q0 -36 1 -53zM190 372l-1 98l-3 65q0 12 -2 32l-5 33q-4 22 -7 32q-2 11 -10 31q-7 16 -15 24q-3 3 -9 7q-6 2 -10 2l-10 -3q-3 -1 -9 -7q-9 -7 -17 -24q-5 -9 -13 -29q-7 -21 -5 -16l-10 -48q0 -5 -2 -16
l-9 -81q-6 -68 -8 -100l125 -3z" />
    <glyph glyph-name="Acircumflex" unicode="&#xc2;" horiz-adv-x="231" 
d="M66 748q-11 -9 -20 2t2 20l75 57q10 8 17 -1l42 -34q3 -3 9 -7l18 -13q14 -12 3 -24q-11 -14 -24 -3q-1 0 -2 1l-31 31l-23 21zM213 290q0 -36 1 -53l-2 -166q0 -35 -1 -46v-17q0 -13 -14 -13t-14 14q1 6 1 17l4 118l2 193q-5 0 -7 1q0 1 -2 1l-4 1q-2 1 -7 1q-3 1 -10 1
l-116 -3l-3 -46q-1 -9 -1 -27v-26q0 -37 2 -93l3 -72q3 -57 3 -46l2 -16q0 -17 -16 -19q-17 0 -19 16v137l2 175q0 19 1 29q0 19 2 61l5 63q2 21 8 65q4 22 7 33q4 22 7 33l14 51l6 17q9 19 20 33q10 10 18 13q5 4 11 5l12 1q11 0 23 -5q9 -5 18 -14l11 -17q6 -12 8 -18
q8 -23 14 -69q3 -27 8 -132q2 -86 2 -124q1 -19 1 -57zM190 372l-1 98l-3 65q0 12 -2 32l-5 33q-4 22 -7 32q-2 11 -10 31q-7 16 -15 24q-3 3 -9 7q-6 2 -10 2l-10 -3q-3 -1 -9 -7q-9 -7 -17 -24q-5 -9 -13 -29q-7 -21 -5 -16l-10 -48q0 -5 -2 -16l-9 -81q-6 -68 -8 -100
l125 -3z" />
    <glyph glyph-name="Atilde" unicode="&#xc3;" horiz-adv-x="238" 
d="M222 800l-1 -4l-9 -17l-10 -13q-8 -8 -17 -12q-6 -4 -12 -4q-2 -1 -6 -1h-7q-8 2 -13 4t-11 8q-9 8 -15 15l-12 15l-4 2q-4 0 -8 -4q-3 -2 -9 -8l-12 -16l-3 -7q-8 -16 -23 -6q-14 9 -6 24q1 0 2 2l21 23q4 4 14 12l10 5q6 3 13 3h4q2 0 4 -1q3 0 7 -2q7 -3 11 -7l15 -15
q7 -9 11 -11l4 -3l5 -1q1 0 2 1q3 0 4 1q2 1 7 6q3 3 5 7l6 13q5 17 21 12q17 -5 12 -21zM213 290q0 -36 1 -53l-2 -166q0 -35 -1 -46v-17q0 -13 -14 -13t-14 14q1 6 1 17l4 118l2 193q-5 0 -7 1q0 1 -2 1l-4 1q-2 1 -7 1q-3 1 -10 1l-116 -3l-3 -46q-1 -9 -1 -27v-26
q0 -37 2 -93l3 -72q3 -57 3 -46l2 -16q0 -17 -16 -19q-17 0 -19 16v137l2 175q0 19 1 29q0 19 2 61l5 63q2 21 8 65q4 22 7 33q4 22 7 33l14 51l6 17q9 19 20 33q10 10 18 13q5 4 11 5l12 1q11 0 23 -5q9 -5 18 -14l11 -17q6 -12 8 -18q8 -23 14 -69q3 -27 8 -132
q2 -86 2 -124q1 -19 1 -57zM190 372l-1 98l-3 65q0 12 -2 32l-5 33q-4 22 -7 32q-2 11 -10 31q-7 16 -15 24q-3 3 -9 7q-6 2 -10 2l-10 -3q-3 -1 -9 -7q-9 -7 -17 -24q-5 -9 -13 -29q-7 -21 -5 -16l-10 -48q0 -5 -2 -16l-9 -81q-6 -68 -8 -100l125 -3z" />
    <glyph glyph-name="Adieresis" unicode="&#xc4;" horiz-adv-x="229" 
d="M60 774q-1 10 6 18q5 5 15 5q17 0 27 -15q-1 1 3 -10q-2 -14 -13 -17q-14 -3 -26 2q-11 5 -12 17zM141 774q-1 10 5 18q5 5 16 5q16 0 26 -15q-1 1 3 -10q-2 -14 -12 -17q-15 -3 -26 2q-12 5 -12 17zM214 237l-2 -166q0 -35 -1 -46v-17q0 -13 -14 -13t-14 14q1 6 1 17
l4 118l2 193q-5 0 -7 1q0 1 -2 1l-4 1q-2 1 -7 1q-3 1 -10 1l-116 -3l-3 -46q-1 -9 -1 -27v-26q0 -37 2 -93l3 -72q3 -57 3 -46l2 -16q0 -17 -16 -19q-17 0 -19 16v137l2 175q0 19 1 29q0 19 2 61l5 63q2 21 8 65q4 22 7 33q4 22 7 33l14 51l6 17q9 19 20 33q10 10 18 13
q5 4 11 5l12 1q11 0 23 -5q9 -5 18 -14l11 -17q6 -12 8 -18q8 -23 14 -69q3 -27 8 -132q2 -86 2 -124q1 -19 1 -57q0 -36 1 -53zM190 372l-1 98l-3 65q0 12 -2 32l-5 33q-4 22 -7 32q-2 11 -10 31q-7 16 -15 24q-3 3 -9 7q-6 2 -10 2l-10 -3q-3 -1 -9 -7q-9 -7 -17 -24
q-5 -9 -13 -29q-7 -21 -5 -16l-10 -48q0 -5 -2 -16l-9 -81q-6 -68 -8 -100l125 -3z" />
    <glyph glyph-name="AE" unicode="&#xc6;" horiz-adv-x="438" 
d="M409 24q13 0 13 -14q0 -13 -14 -13l-162 9q-11 0 -11 12l3 211l-3 108q-8 1 -23 1q1 -16 1 -48q0 -36 1 -53l-2 -166q0 -35 -1 -46v-17q0 -13 -14 -13t-14 14q1 6 1 17l4 118l2 193q-5 0 -7 1q0 1 -2 1l-4 1q-2 1 -7 1q-3 1 -10 1l-116 -3l-3 -46q-1 -9 -1 -27v-26
q0 -37 2 -93l3 -72q3 -57 3 -46l2 -16q0 -17 -16 -19q-17 0 -19 16v137l2 175q0 19 1 29q0 19 2 61l5 63q2 21 8 65q4 22 7 33q4 22 7 33l14 51l6 17q9 19 20 33q10 10 18 13q5 4 11 5l12 1q11 0 23 -5q9 -5 18 -14l11 -17q6 -12 8 -18q8 -23 14 -69q3 -27 8 -132
q2 -70 2 -101l23 1q1 5 1 14l1 13q2 28 2 42l-1 127l4 127q0 9 10 11l114 11l38 5q17 2 19 -15q4 -17 -15 -19l-143 -4l1 -180l-1 -21q-2 -28 -2 -42q0 -28 1 -42q1 -9 1 -27l36 -2l77 4q15 2 15 -13q2 -15 -14 -15q-7 -1 -17 -1l-69 -3l-22 -4h-6q0 -16 -1 -24l-3 -42
l-1 -42q-1 -14 -1 -43v-157zM170 369l20 3l-1 98l-3 65q0 12 -2 32l-5 33q-4 22 -7 32q-2 11 -10 31q-7 16 -15 24q-3 3 -9 7q-6 2 -10 2l-10 -3q-3 -1 -9 -7q-9 -7 -17 -24q-5 -9 -13 -29q-7 -21 -5 -16l-10 -48q0 -5 -2 -16l-9 -81q-6 -68 -8 -100z" />
    <glyph glyph-name="Ccedilla" unicode="&#xc7;" horiz-adv-x="244" 
d="M229 577v-14q0 -13 -14 -13t-14 14q1 4 1 12q1 -9 -2 36l-5 25q-4 15 -10 25q-8 13 -21 19q-13 7 -33 9q-24 2 -37 -4q-9 -4 -14 -10q-5 -4 -11 -16q-9 -16 -14 -44q-2 -8 -4 -24q-3 -12 -3 -25q-2 -18 -4 -52q-1 -17 -1 -53l2 -109q0 -19 -2 -55v-54l2 -27q2 -18 2 -27
l3 -51q4 -31 7 -49q2 -12 6 -22l3 -10l5 -9q5 -10 12 -14q5 -4 17 -8l24 -3l14 1q15 1 28 14q7 7 9 12q2 2 7 13q4 8 8 28l4 24q1 15 1 36q-1 4 -1 9v3q-2 17 15 19t19 -16l-1 -1v-15q0 -22 -3 -39q-1 -12 -6 -27q-3 -14 -11 -32q-4 -8 -10 -17q-6 -10 -14 -16
q-8 -8 -19 -13q-3 -2 -11 -4t-12 -2t-6 -1h-1l-1 -12l3 -1q5 0 9 -3q5 -1 9 -6q5 -4 6 -9q2 -3 4 -9q2 -12 2 -16v-7q0 -6 -1 -8q-2 -11 -5 -16q-3 -7 -14 -13q-6 -3 -15 -3q-7 0 -10 1l-9 3q-13 5 -7 19q8 13 20 7l8 -1l2 2q2 2 2 6l1 10q0 7 -1 9q0 5 -2 5q-1 1 -2 1
q0 1 -2 1h-8q-2 0 -4 1q-2 0 -4 1q-3 0 -6 3l-5 9l-1 29l-9 2q-13 3 -24 11q-9 6 -20 20q-7 10 -12 23q-7 20 -8 26q-6 34 -8 51l-3 53v54q0 37 -1 55l-3 55l1 55l2 28q2 18 2 27l3 53q2 36 4 53l3 26q2 16 4 25q1 9 5 25l9 24q8 16 14 23q10 10 23 16q12 4 25 6h22
q25 -2 43 -10q12 -7 18 -13q10 -10 13 -15q11 -18 14 -33q5 -15 6 -27q3 -17 3 -39z" />
    <glyph glyph-name="Egrave" unicode="&#xc8;" horiz-adv-x="218" 
d="M44 811q5 12 19 6l33 -19q10 -5 19 -11q-7 3 19 -10q-3 2 9 -4q2 0 5 -2l21 -9q16 -7 9 -23t-23 -9l-7 5q2 0 -11 7q-3 3 -7 5l-9 6l-55 30q-10 5 -16 9q-14 6 -6 19zM189 26q13 0 13 -14q0 -13 -14 -13l-162 1q-11 0 -11 12l3 217l-2 84q-1 14 -1 43q0 14 2 42t2 42
l-1 127l4 127q0 9 10 11l114 11l38 5q17 2 19 -15q4 -17 -15 -19l-143 -4l1 -180l-1 -21q-2 -28 -2 -42q0 -28 1 -42q1 -9 1 -27l28 -2l77 4q15 2 15 -13q2 -15 -14 -15q-7 -1 -17 -1l-69 -3l-20 -4q0 -16 -1 -24l-3 -42l-1 -42q-1 -14 -1 -43v-163z" />
    <glyph glyph-name="Eacute" unicode="&#xc9;" horiz-adv-x="218" 
d="M41 737q-9 14 5 24l28 12q6 2 9 4l38 21q8 6 17 9l16 10q13 5 19 -6q7 -12 -5 -19l-17 -9q-10 -6 -17 -9q-26 -13 -19 -10l-35 -22q-8 -6 -11 -7zM189 26q13 0 13 -14q0 -13 -14 -13l-162 1q-11 0 -11 12l3 217l-2 84q-1 14 -1 43q0 14 2 42t2 42l-1 127l4 127q0 9 10 11
l114 11l38 5q17 2 19 -15q4 -17 -15 -19l-143 -4l1 -180l-1 -21q-2 -28 -2 -42q0 -28 1 -42q1 -9 1 -27l28 -2l77 4q15 2 15 -13q2 -15 -14 -15q-7 -1 -17 -1l-69 -3l-20 -4q0 -16 -1 -24l-3 -42l-1 -42q-1 -14 -1 -43v-163z" />
    <glyph glyph-name="Ecircumflex" unicode="&#xca;" horiz-adv-x="218" 
d="M48 748q-11 -9 -20 2t2 20l75 57q10 8 17 -1l42 -34q3 -3 9 -7l18 -13q14 -12 3 -24q-11 -14 -24 -3q-1 0 -2 1l-31 31l-23 21zM189 26q13 0 13 -14q0 -13 -14 -13l-162 1q-11 0 -11 12l3 217l-2 84q-1 14 -1 43q0 14 2 42t2 42l-1 127l4 127q0 9 10 11l114 11l38 5
q17 2 19 -15q4 -17 -15 -19l-143 -4l1 -180l-1 -21q-2 -28 -2 -42q0 -28 1 -42q1 -9 1 -27l28 -2l77 4q15 2 15 -13q2 -15 -14 -15q-7 -1 -17 -1l-69 -3l-20 -4q0 -16 -1 -24l-3 -42l-1 -42q-1 -14 -1 -43v-163z" />
    <glyph glyph-name="Edieresis" unicode="&#xcb;" horiz-adv-x="218" 
d="M43 774q-1 10 6 18q5 5 15 5q17 0 27 -15q-1 1 3 -10q-2 -14 -13 -17q-14 -3 -26 2q-11 5 -12 17zM124 774q-1 10 5 18q5 5 16 5q16 0 26 -15q-1 1 3 -10q-2 -14 -12 -17q-15 -3 -26 2q-12 5 -12 17zM189 26q13 0 13 -14q0 -13 -14 -13l-162 1q-11 0 -11 12l3 217l-2 84
q-1 14 -1 43q0 14 2 42t2 42l-1 127l4 127q0 9 10 11l114 11l38 5q17 2 19 -15q4 -17 -15 -19l-143 -4l1 -180l-1 -21q-2 -28 -2 -42q0 -28 1 -42q1 -9 1 -27l28 -2l77 4q15 2 15 -13q2 -15 -14 -15q-7 -1 -17 -1l-69 -3l-20 -4q0 -16 -1 -24l-3 -42l-1 -42q-1 -14 -1 -43
v-163z" />
    <glyph glyph-name="Igrave" unicode="&#xcc;" horiz-adv-x="206" 
d="M34 815q5 12 19 6l33 -19q10 -5 19 -11q-7 3 19 -10q-3 2 9 -4q1 0 4 -2l22 -9q16 -7 9 -23t-23 -9l-7 5q1 0 -11 7q-3 3 -7 5l-9 6l-55 30q-10 5 -16 9q-14 6 -6 19zM176 35q17 0 17 -17q0 -16 -15 -18h-44q-16 -2 -25 -2l-62 -4q-3 0 -6 -1q-17 -2 -19 15q-4 16 14 20
h25l33 2l1 201q0 20 -1 30q0 21 -1 31l-3 31q-2 22 -2 32t2 32q1 10 1 31l-3 31l1 138l-6 99q-2 -1 -6 -1l-35 -3q-4 0 -6 -1q-17 0 -19 16q-2 17 16 19l102 1l31 4q18 4 21 -13q4 -18 -13 -21q-4 -2 -7 0l-51 1l-1 -24q-1 -9 -1 -33q-1 -7 -1 -21l-1 -47q0 -9 1 -13
q0 -9 1 -14q1 -9 1 -28v-14v-76q0 -21 1 -31l3 -32l-3 -63q-1 -10 -1 -31l6 -230l23 1q7 0 11 1z" />
    <glyph glyph-name="Iacute" unicode="&#xcd;" horiz-adv-x="206" 
d="M44 741q-9 14 5 24l28 12q6 2 9 4l38 21q8 6 17 9l16 10q12 5 19 -6q7 -12 -5 -19l-17 -9q-10 -6 -17 -9q-26 -13 -19 -10l-35 -22q-8 -6 -11 -7zM176 35q17 0 17 -17q0 -16 -15 -18h-44q-16 -2 -25 -2l-62 -4q-3 0 -6 -1q-17 -2 -19 15q-4 16 14 20h25l33 2l1 201
q0 20 -1 30q0 21 -1 31l-3 31q-2 22 -2 32t2 32q1 10 1 31l-3 31l1 138l-6 99q-2 -1 -6 -1l-35 -3q-4 0 -6 -1q-17 0 -19 16q-2 17 16 19l102 1l31 4q18 4 21 -13q4 -18 -13 -21q-4 -2 -7 0l-51 1l-1 -24q-1 -9 -1 -33q-1 -7 -1 -21l-1 -47q0 -9 1 -13q0 -9 1 -14
q1 -9 1 -28v-14v-76q0 -21 1 -31l3 -32l-3 -63q-1 -10 -1 -31l6 -230l23 1q7 0 11 1z" />
    <glyph glyph-name="Icircumflex" unicode="&#xce;" horiz-adv-x="207" 
d="M43 748q-11 -9 -20 2t2 20l75 57q10 8 17 -1l42 -34q3 -3 9 -7l18 -13q14 -12 3 -24q-11 -14 -24 -3q-1 0 -2 1l-31 31l-23 21zM180 35q17 0 17 -17q0 -16 -15 -18h-44q-16 -2 -25 -2l-62 -4q-3 0 -6 -1q-17 -2 -19 15q-4 16 14 20h25l33 2l1 201q0 20 -1 30q0 21 -1 31
l-3 31q-2 22 -2 32t2 32q1 10 1 31l-3 31l1 138l-6 99q-2 -1 -6 -1l-35 -3q-4 0 -6 -1q-17 0 -19 16q-2 17 16 19l102 1l31 4q18 4 21 -13q4 -18 -13 -21q-3 -2 -7 0l-51 1l-1 -24q-1 -9 -1 -33q-1 -7 -1 -21l-1 -47q0 -9 1 -13q0 -9 1 -14q1 -9 1 -28l1 -14l-1 -76
q0 -21 1 -31l3 -32l-3 -63q-1 -10 -1 -31l6 -230l23 1q7 0 11 1z" />
    <glyph glyph-name="Idieresis" unicode="&#xcf;" horiz-adv-x="206" 
d="M33 774q-1 10 6 18q5 5 15 5q17 0 27 -15q-1 1 3 -10q-2 -14 -13 -17q-14 -3 -26 2q-11 5 -12 17zM113 774q0 10 6 18q5 5 16 5q16 0 26 -15q-1 1 3 -10q-2 -14 -12 -17q-15 -3 -26 2q-12 5 -13 17zM176 35q17 0 17 -17q0 -16 -15 -18h-44q-16 -2 -25 -2l-62 -4
q-3 0 -6 -1q-17 -2 -19 15q-4 16 14 20h25l33 2l1 201q0 20 -1 30q0 21 -1 31l-3 31q-2 22 -2 32t2 32q1 10 1 31l-3 31l1 138l-6 99q-2 -1 -6 -1l-35 -3q-4 0 -6 -1q-17 0 -19 16q-2 17 16 19l102 1l31 4q18 4 21 -13q4 -18 -13 -21q-4 -2 -7 0l-51 1l-1 -24q-1 -9 -1 -33
q-1 -7 -1 -21l-1 -47q0 -9 1 -13q0 -9 1 -14q1 -9 1 -28v-14v-76q0 -21 1 -31l3 -32l-3 -63q-1 -10 -1 -31l6 -230l23 1q7 0 11 1z" />
    <glyph glyph-name="Ntilde" unicode="&#xd1;" horiz-adv-x="238" 
d="M31 763q1 0 2 2l21 23q4 4 14 12l10 5q6 3 13 3h4q2 0 4 -1q3 0 7 -2q7 -3 11 -7l15 -15q8 -9 11 -11l4 -3l5 -1q1 0 2 1q3 0 4 1q2 1 7 6q3 3 5 7l6 13q6 17 21 12q18 -5 12 -21l-1 -4l-9 -17l-10 -13q-8 -8 -17 -12q-6 -4 -12 -4q-2 -1 -6 -1h-7q-8 2 -13 4t-11 8
q-9 8 -15 15l-12 15l-4 2q-4 0 -8 -4q-3 -2 -9 -8l-12 -16l-3 -7q-7 -16 -23 -6q-14 9 -6 24zM210 9q0 -12 -12 -12q-9 0 -11 9l-29 130q-6 28 -10 43l-31 128l-19 86l-11 66q-2 14 -4 21l-19 86l-4 -126q-1 -15 -1 -43l-3 -259v-129q0 -17 -16 -17q-17 0 -17 17l10 388
l1 302q0 16 16 16q13 0 16 -13l44 -216l31 -129l9 -43q2 -7 4 -21l20 -109q2 -7 4 -21l6 -29l-11 565q0 15 16 15q14 2 16 -15z" />
    <glyph glyph-name="Ograve" unicode="&#xd2;" horiz-adv-x="225" 
d="M155 730q16 -7 23 9t-9 23l-21 9q-3 2 -5 2q-12 6 -9 4q-26 13 -19 10q-9 6 -19 11l-33 19q-14 6 -19 -6q-8 -13 6 -19q6 -4 16 -9l55 -30l9 -6q4 -2 7 -5q13 -7 11 -7zM94 717q-13 -2 -25 -8q-4 -2 -14 -10q-9 -9 -12 -14q-9 -14 -16 -37q-6 -28 -7 -43q-5 -39 -5 -101
q0 -76 1 -118q0 -86 1 -132q0 -46 1 -69q0 -24 2 -72q2 -26 4 -37q2 -12 4 -19q3 -11 7 -20q6 -12 13 -19q5 -5 9 -7q5 -5 10 -6q4 -2 21 -7l11 -1q7 0 10 -1q26 2 42 10q9 4 18 13q8 8 13 18q7 12 13 38q3 10 7 37l2 18q2 12 2 18q2 24 2 36q1 6 1 18l1 52l-1 131
q-2 42 -2 61v110q0 18 -2 48q-1 22 -6 43q-3 21 -13 38l-12 15q-10 8 -15 10q-12 6 -25 8q-7 1 -15 1zM118 685q7 0 11 -1q9 0 16 -3q8 -5 14 -13q7 -12 11 -28t6 -39q2 -14 4 -46q1 -9 1 -26l1 -83q1 -20 -1 -61l-2 -165q0 -23 -1 -35q0 -47 -3 -70q-2 -23 -5 -34
q-6 -22 -12 -30q-2 -4 -4 -6q-2 -3 -5 -5q-3 -3 -11 -7q-6 -3 -13 -3l-16 -1q-19 0 -30 4l-10 6q-2 1 -9 11q-6 12 -10 31q-1 3 -6 34q-2 22 -4 70v69q0 90 1 132q0 45 2 117q2 61 7 98q4 26 7 38t12 28q7 9 16 13q7 4 15 4q4 1 10 1h8z" />
    <glyph glyph-name="Oacute" unicode="&#xd3;" horiz-adv-x="215" 
d="M41 761q-14 -10 -5 -24q10 -16 24 -5l50 32q-7 -3 19 10q7 3 17 9l17 9q12 7 5 19q-6 11 -19 6l-16 -10q-9 -3 -17 -9l-38 -21q-3 -2 -9 -4zM89 717q-13 -2 -25 -8q-4 -2 -14 -10q-9 -9 -12 -14q-9 -14 -16 -37q-6 -28 -7 -43q-5 -39 -5 -101q0 -76 1 -118q0 -86 1 -132
q0 -46 1 -69q0 -24 2 -72q2 -26 4 -37q2 -12 4 -19q3 -11 7 -20q6 -12 13 -19q5 -5 9 -7q5 -5 10 -6q4 -2 21 -7l11 -1q7 0 10 -1q26 2 42 10q9 4 18 13q8 8 13 18q7 12 13 38q3 10 7 37l2 18q2 12 2 18q2 24 2 36q1 6 1 18l1 52l-1 131q-2 42 -2 61v110q0 18 -2 48
q-1 22 -6 43q-3 21 -13 38l-12 15q-10 8 -15 10q-12 6 -25 8q-7 1 -15 1zM113 685q7 0 11 -1q9 0 16 -3q8 -5 14 -13q7 -12 11 -28t6 -39q2 -14 4 -46q1 -9 1 -26l1 -83q1 -20 -1 -61l-2 -165q0 -23 -1 -35q0 -47 -3 -70q-2 -23 -5 -34q-6 -22 -12 -30q-2 -4 -4 -6
q-2 -3 -5 -5q-3 -3 -11 -7q-6 -3 -13 -3l-16 -1q-19 0 -30 4l-10 6q-2 1 -9 11q-6 12 -10 31q-1 3 -6 34q-2 22 -4 70v69q0 90 1 132q0 45 2 117q2 61 7 98q4 26 7 38t12 28q7 9 16 13q7 4 15 4q4 1 10 1h8z" />
    <glyph glyph-name="Ocircumflex" unicode="&#xd4;" horiz-adv-x="225" 
d="M48 748q-11 -9 -20 2t2 20l75 57q10 8 17 -1l42 -34q3 -3 9 -7l18 -13q14 -12 3 -24q-11 -14 -24 -3q-1 0 -2 1l-31 31l-23 21zM210 254l-1 -52q0 -12 -1 -18q0 -12 -2 -36q0 -6 -2 -18l-2 -18q-4 -27 -7 -37q-6 -26 -13 -38q-5 -10 -13 -18q-9 -9 -18 -13
q-16 -8 -42 -10q-3 1 -10 1l-11 1q-17 5 -21 7q-5 1 -10 6q-4 2 -9 7q-7 7 -13 19q-4 9 -7 20q-2 7 -4 19q-2 11 -4 37q-2 48 -2 72q-1 23 -1 69q-1 46 -1 132q-1 42 -1 118q0 62 5 101q1 15 7 43q7 23 16 37q3 5 12 14q10 8 14 10q12 6 25 8l25 2q8 0 15 -1q13 -2 25 -8
q5 -2 15 -10l12 -15q10 -17 13 -38q5 -21 6 -43q2 -30 2 -48v-110zM181 385q2 41 1 61l-1 83q0 17 -1 26q-2 32 -4 46q-2 23 -6 39t-11 28q-6 8 -14 13q-7 3 -16 3q-4 1 -11 1h-8q-6 0 -10 -1q-8 0 -15 -4q-9 -4 -16 -13q-9 -16 -12 -28t-7 -38q-5 -37 -7 -98
q-2 -72 -2 -117q-1 -42 -1 -132v-69q2 -48 4 -70q5 -31 6 -34q4 -19 10 -31q7 -10 9 -11l10 -6q11 -4 30 -4l16 1q7 0 13 3q8 4 11 7q3 2 5 5q2 2 4 6q6 8 12 30q3 11 5 34q3 23 3 70q1 12 1 35z" />
    <glyph glyph-name="Otilde" unicode="&#xd5;" horiz-adv-x="225" 
d="M23 763q1 0 2 2l21 23q4 4 14 12l10 5q6 3 13 3h4q2 0 4 -1q3 0 7 -2q7 -3 11 -7l15 -15q8 -9 11 -11l4 -3l5 -1q1 0 2 1q3 0 4 1q2 1 7 6q3 3 5 7l6 13q6 17 21 12q18 -5 12 -21l-1 -4l-9 -17l-10 -13q-8 -8 -17 -12q-6 -4 -12 -4q-2 -1 -6 -1h-7q-8 2 -13 4t-11 8
q-9 8 -15 15l-12 15l-4 2q-4 0 -8 -4q-3 -2 -9 -8l-12 -16l-3 -7q-7 -16 -23 -6q-14 9 -6 24zM210 254l-1 -52q0 -12 -1 -18q0 -12 -2 -36q0 -6 -2 -18l-2 -18q-4 -27 -7 -37q-6 -26 -13 -38q-5 -10 -13 -18q-9 -9 -18 -13q-16 -8 -42 -10q-3 1 -10 1l-11 1q-17 5 -21 7
q-5 1 -10 6q-4 2 -9 7q-7 7 -13 19q-4 9 -7 20q-2 7 -4 19q-1 11 -4 37q-2 48 -2 72q-1 23 -1 69q-1 46 -1 132q-1 42 -1 118q0 62 5 101q1 15 7 43q7 23 16 37q3 5 12 14q10 8 14 10q12 6 25 8l25 2q8 0 15 -1q13 -2 25 -8q5 -2 15 -10l12 -15q10 -17 13 -38q5 -21 6 -43
q2 -30 2 -48v-110zM181 385q2 41 1 61l-1 83q0 17 -1 26q-2 32 -4 46q-1 23 -6 39q-4 16 -11 28q-5 8 -14 13q-7 3 -16 3q-4 1 -11 1h-8q-6 0 -10 -1q-8 0 -15 -4q-9 -4 -16 -13q-9 -16 -12 -28t-7 -38q-5 -37 -7 -98q-2 -72 -2 -117q-1 -42 -1 -132v-69q2 -48 4 -70
q5 -31 6 -34q4 -19 10 -31q8 -10 9 -11l10 -6q11 -4 30 -4l16 1q7 0 13 3q8 4 11 7q4 2 5 5q2 2 4 6q6 8 12 30q3 11 5 34q3 23 3 70q1 12 1 35z" />
    <glyph glyph-name="Odieresis" unicode="&#xd6;" horiz-adv-x="225" 
d="M91 782q-10 15 -27 15q-10 0 -15 -5q-7 -8 -6 -18q1 -12 12 -17q12 -5 26 -2q11 3 13 17q-4 11 -3 10zM171 782q-10 15 -26 15q-11 0 -16 -5q-6 -8 -5 -18q0 -12 12 -17q11 -5 26 -2q10 3 12 17q-4 11 -3 10zM94 717q-13 -2 -25 -8q-4 -2 -14 -10q-9 -9 -12 -14
q-9 -14 -16 -37q-6 -28 -7 -43q-5 -39 -5 -101q0 -76 1 -118q0 -86 1 -132q0 -46 1 -69q0 -24 2 -72q2 -26 4 -37q2 -12 4 -19q3 -11 7 -20q6 -12 13 -19q5 -5 9 -7q5 -5 10 -6q4 -2 21 -7l11 -1q7 0 10 -1q26 2 42 10q9 4 18 13q8 8 13 18q7 12 13 38q3 10 7 37l2 18
q2 12 2 18q2 24 2 36q1 6 1 18l1 52l-1 131q-2 42 -2 61v110q0 18 -2 48q-1 22 -6 43q-3 21 -13 38l-12 15q-10 8 -15 10q-12 6 -25 8q-7 1 -15 1zM118 685q7 0 11 -1q9 0 16 -3q8 -5 14 -13q7 -12 11 -28t6 -39q2 -14 4 -46q1 -9 1 -26l1 -83q1 -20 -1 -61l-2 -165
q0 -23 -1 -35q0 -47 -3 -70q-2 -23 -5 -34q-6 -22 -12 -30q-2 -4 -4 -6q-2 -3 -5 -5q-3 -3 -11 -7q-6 -3 -13 -3l-16 -1q-19 0 -30 4l-10 6q-2 1 -9 11q-6 12 -10 31q-1 3 -6 34q-2 22 -4 70v69q0 90 1 132q0 45 2 117q2 61 7 98q4 26 7 38t12 28q7 9 16 13q7 4 15 4
q4 1 10 1h8z" />
    <glyph glyph-name="multiply" unicode="&#xd7;" horiz-adv-x="213" 
d="M198 266q15 -11 3 -24q-9 -15 -24 -4l-15 18l-39 41l-10 9q-2 -3 -8 -9l-47 -50q-4 -4 -6 -7q-10 -12 -24 -1q-11 12 -2 25q1 0 1 1q3 2 7 6q4 3 17 16l41 39l-64 62q-13 12 -1 24q12 13 24 1q1 0 1 -1l61 -65l39 40q12 16 8 10l7 8q4 4 6 7q9 14 24 3q15 -9 3 -24
l-27 -24l-40 -40l29 -29q8 -8 12 -11z" />
    <glyph glyph-name="Oslash" unicode="&#xd8;" horiz-adv-x="268" 
d="M258 698q0 -2 -1 -2l-25 -71l2 -21q2 -30 2 -48v-110l3 -192l-1 -52q0 -12 -1 -18q0 -12 -2 -36q-1 -6 -2 -18l-2 -18q-5 -27 -7 -37q-7 -26 -13 -38q-5 -10 -13 -18q-10 -9 -18 -13q-16 -8 -42 -10q-4 1 -11 1l-10 1q-18 5 -21 7q-6 1 -10 6q-4 2 -9 7q-7 7 -13 19
l-5 14l-12 -42q-4 -14 -17 -10q-15 4 -9 17l28 93v4q-2 48 -2 72q-1 23 -1 69q-1 46 -1 132q-1 42 -1 118q0 62 5 101q1 15 7 43q7 23 16 37q3 5 12 14q10 8 14 10q11 6 25 8l25 2q8 0 15 -1q12 -2 25 -8q5 -2 15 -10l12 -15l3 -6l4 19q2 5 2 8q3 17 21 13q16 -4 13 -21z
M69 185q0 -9 1 -14l29 93q5 18 8 32q3 10 7 32l9 33l11 32q4 9 11 31l4 16q2 11 4 16l18 60q6 20 10 29l12 39l10 36q-2 14 -4 20q-4 16 -11 28q-6 8 -14 13q-8 3 -16 3q-4 1 -11 1h-8q-6 0 -10 -1q-9 0 -15 -4q-9 -4 -16 -13q-9 -16 -12 -28q-4 -12 -7 -38q-6 -37 -7 -98
q-2 -72 -2 -117q-1 -42 -1 -132v-69zM210 385q1 41 1 61l-1 83q-1 17 -1 26l-16 -61q-3 -10 -4 -15l-5 -15q-2 -7 -5 -16l-11 -31l-9 -32q-4 -22 -7 -33l-34 -94l-25 -89q-10 -30 -15 -52l-3 -12q2 -16 4 -24q3 -19 10 -31q7 -10 9 -11l10 -6q10 -4 30 -4l16 1q7 0 13 3
q8 4 11 7q3 2 5 5q2 2 4 6q6 8 12 30q3 11 5 34q3 23 3 70q1 12 1 35z" />
    <glyph glyph-name="Ugrave" unicode="&#xd9;" 
d="M155 730q16 -7 23 9t-9 23l-21 9q-3 2 -5 2q-12 6 -9 4q-26 13 -19 10q-9 6 -19 11l-33 19q-14 6 -19 -6q-8 -13 6 -19q6 -4 16 -9l55 -30l9 -6q4 -2 7 -5q13 -7 11 -7zM222 698q0 17 -18 17t-16 -18l3 -134q1 -14 1 -44q1 -15 1 -49q1 -17 1 -53q0 -37 -1 -57l-2 -122
l-3 -64q-2 -42 -5 -65l-3 -16q0 -2 -2 -7l-2 -8q-7 -17 -13 -27q-7 -11 -19 -18l-12 -3l-17 -1l-9 2q-8 2 -11 5q-11 6 -19 19q-8 14 -12 29l-5 15l-3 16q-6 31 -9 64l-3 65q-1 42 -1 122l1 57q0 35 1 53l4 227q0 17 -17 17t-17 -17l3 -337l4 -139q0 -11 1 -16q0 -11 2 -33
q4 -47 7 -67q8 -46 20 -69q4 -8 10 -17l15 -15q9 -6 20 -9q-1 1 10 -3l16 -2l15 2q9 3 20 8q10 6 17 14q8 8 12 16q6 11 14 35q0 2 2 8l2 9q0 2 2 8l2 9q6 35 9 67q2 22 2 33l1 32q1 22 1 63q-1 11 -1 31l-2 86l1 218q3 53 2 46v17z" />
    <glyph glyph-name="Uacute" unicode="&#xda;" 
d="M66 761q-14 -10 -5 -24q10 -16 24 -5l50 32q-7 -3 19 10q7 3 17 9l17 9q12 7 5 19q-6 11 -19 6l-16 -10q-9 -3 -17 -9l-38 -21q-3 -2 -9 -4zM222 698q0 17 -18 17t-16 -18l3 -134q1 -14 1 -44q1 -15 1 -49q1 -17 1 -53q0 -37 -1 -57l-2 -122l-3 -64q-2 -42 -5 -65l-3 -16
q0 -2 -2 -7l-2 -8q-7 -17 -13 -27q-7 -11 -19 -18l-12 -3l-17 -1l-9 2q-8 2 -11 5q-11 6 -19 19q-8 14 -12 29l-5 15l-3 16q-6 31 -9 64l-3 65q-1 42 -1 122l1 57q0 35 1 53l4 227q0 17 -17 17t-17 -17l3 -337l4 -139q0 -11 1 -16q0 -11 2 -33q4 -47 7 -67q8 -46 20 -69
q4 -8 10 -17l15 -15q9 -6 20 -9q-1 1 10 -3l16 -2l15 2q9 3 20 8q10 6 17 14q8 8 12 16q6 11 14 35q0 2 2 8l2 9q0 2 2 8l2 9q6 35 9 67q2 22 2 33l1 32q1 22 1 63q-1 11 -1 31l-2 86l1 218q3 53 2 46v17z" />
    <glyph glyph-name="Ucircumflex" unicode="&#xdb;" 
d="M59 748q-11 -9 -20 2t2 20l75 57q10 8 17 -1l42 -34q3 -3 9 -7l18 -13q14 -12 3 -24q-11 -14 -24 -3q-1 0 -2 1l-31 31l-23 21zM222 698v-17q1 7 -2 -46l-1 -218l2 -86q0 -20 1 -31q0 -41 -1 -63l-1 -32q0 -11 -2 -33q-3 -32 -9 -67l-2 -9q-2 -6 -2 -8l-2 -9q-2 -6 -2 -8
q-8 -24 -14 -35q-4 -8 -12 -16q-7 -8 -17 -14q-11 -5 -20 -8l-15 -2l-16 2q-11 4 -10 3q-11 3 -20 9l-15 15q-6 9 -10 17q-12 23 -20 69q-3 20 -7 67q-2 22 -2 33q-1 5 -1 16l-4 139l-3 337q0 17 17 17t17 -17l-4 -227q-1 -18 -1 -53l-1 -57q0 -80 1 -122l3 -65q3 -33 9 -64
l3 -16l5 -15q4 -15 12 -29q8 -13 19 -19q3 -3 11 -5l9 -2l17 1l12 3q12 7 19 18q6 10 13 27l2 8q2 5 2 7l3 16q3 23 5 65l3 64l2 122q1 20 1 57q0 36 -1 53q0 34 -1 49q0 30 -1 44l-3 134q-2 18 16 18t18 -17z" />
    <glyph glyph-name="Udieresis" unicode="&#xdc;" 
d="M101 782q-10 15 -27 15q-10 0 -15 -5q-7 -8 -6 -18q1 -12 12 -17q12 -5 26 -2q11 3 13 17q-4 11 -3 10zM181 782q-10 15 -26 15q-11 0 -16 -5q-6 -8 -5 -18q0 -12 12 -17q11 -5 26 -2q10 3 12 17q-4 11 -3 10zM222 698q0 17 -18 17t-16 -18l3 -134q1 -14 1 -44
q1 -15 1 -49q1 -17 1 -53q0 -37 -1 -57l-2 -122l-3 -64q-2 -42 -5 -65l-3 -16q0 -2 -2 -7l-2 -8q-7 -17 -13 -27q-7 -11 -19 -18l-12 -3l-17 -1l-9 2q-8 2 -11 5q-11 6 -19 19q-8 14 -12 29l-5 15l-3 16q-6 31 -9 64l-3 65q-1 42 -1 122l1 57q0 35 1 53l4 227q0 17 -17 17
t-17 -17l3 -337l4 -139q0 -11 1 -16q0 -11 2 -33q4 -47 7 -67q8 -46 20 -69q4 -8 10 -17l15 -15q9 -6 20 -9q-1 1 10 -3l16 -2l15 2q9 3 20 8q10 6 17 14q8 8 12 16q6 11 14 35q0 2 2 8l2 9q0 2 2 8l2 9q6 35 9 67q2 22 2 33l1 32q1 22 1 63q-1 11 -1 31l-2 86l1 218
q3 53 2 46v17z" />
    <glyph glyph-name="Yacute" unicode="&#xdd;" horiz-adv-x="260" 
d="M85 737q-8 14 5 24l28 12q6 2 9 4l38 21q8 6 17 9l16 10q13 5 19 -6q7 -12 -5 -19l-17 -9q-10 -6 -17 -9q-26 -13 -19 -10l-35 -22q-8 -6 -11 -7zM249 699q-1 -2 -2 -8l-7 -37q-2 -12 -4 -19q-1 -7 -11 -45l-42 -174q-5 -18 -8 -32l-9 -32l-53 -213q-5 -14 -6 -26
l-18 -79q-5 -19 -7 -30q-4 -13 -18 -11q-13 4 -11 18l31 121l51 221q-1 0 -1 1q1 -1 -2 5l-9 23l-26 77q-12 36 -20 64l-5 17q-3 9 -5 16q-5 14 -10 32l-9 29q0 3 -2 7q-1 5 -2 7l-24 66q-5 14 9 19q14 6 18 -9q1 0 1 -1l16 -54q2 -3 4 -13q4 -7 5 -13l75 -211q0 -1 1 -2
l30 133l24 96q3 11 10 34q0 3 2 7l7 23q5 12 18 9q11 -5 9 -16z" />
    <glyph glyph-name="agrave" unicode="&#xe0;" horiz-adv-x="229" 
d="M68 814q5 12 19 6l33 -19q10 -5 19 -11q-7 3 19 -10q-3 2 9 -4q2 0 5 -2l21 -9q16 -7 9 -23t-23 -9l-7 5q2 0 -11 7q-3 3 -7 5l-9 6l-55 30q-10 5 -16 9q-14 6 -6 19zM214 237l-2 -166q0 -35 -1 -46v-17q0 -13 -14 -13t-14 14q1 6 1 17l4 118l2 193q-5 0 -7 1q0 1 -2 1
l-4 1q-2 1 -7 1q-3 1 -10 1l-116 -3l-3 -46q-1 -9 -1 -27v-26q0 -37 2 -93l3 -72q3 -57 3 -46l2 -16q0 -17 -16 -19q-17 0 -19 16v137l2 175q0 19 1 29q0 19 2 61l5 63q2 21 8 65q4 22 7 33q4 22 7 33l14 51l6 17q9 19 20 33q10 10 18 13q5 4 11 5l12 1q11 0 23 -5
q9 -5 18 -14l11 -17q6 -12 8 -18q8 -23 14 -69q3 -27 8 -132q2 -86 2 -124q1 -19 1 -57q0 -36 1 -53zM190 372l-1 98l-3 65q0 12 -2 32l-5 33q-4 22 -7 32q-2 11 -10 31q-7 16 -15 24q-3 3 -9 7q-6 2 -10 2l-10 -3q-3 -1 -9 -7q-9 -7 -17 -24q-5 -9 -13 -29q-7 -21 -5 -16
l-10 -48q0 -5 -2 -16l-9 -81q-6 -68 -8 -100l125 -3z" />
    <glyph glyph-name="aacute" unicode="&#xe1;" horiz-adv-x="229" 
d="M42 739q-9 14 5 24l28 12q6 2 9 4l38 21q8 6 17 9l16 10q13 5 19 -6q7 -12 -5 -19l-17 -9q-10 -6 -17 -9q-26 -13 -19 -10l-35 -22q-8 -6 -11 -7zM214 237l-2 -166q0 -35 -1 -46v-17q0 -13 -14 -13t-14 14q1 6 1 17l4 118l2 193q-5 0 -7 1q0 1 -2 1l-4 1q-2 1 -7 1
q-3 1 -10 1l-116 -3l-3 -46q-1 -9 -1 -27v-26q0 -37 2 -93l3 -72q3 -57 3 -46l2 -16q0 -17 -16 -19q-17 0 -19 16v137l2 175q0 19 1 29q0 19 2 61l5 63q2 21 8 65q4 22 7 33q4 22 7 33l14 51l6 17q9 19 20 33q10 10 18 13q5 4 11 5l12 1q11 0 23 -5q9 -5 18 -14l11 -17
q6 -12 8 -18q8 -23 14 -69q3 -27 8 -132q2 -86 2 -124q1 -19 1 -57q0 -36 1 -53zM190 372l-1 98l-3 65q0 12 -2 32l-5 33q-4 22 -7 32q-2 11 -10 31q-7 16 -15 24q-3 3 -9 7q-6 2 -10 2l-10 -3q-3 -1 -9 -7q-9 -7 -17 -24q-5 -9 -13 -29q-7 -21 -5 -16l-10 -48q0 -5 -2 -16
l-9 -81q-6 -68 -8 -100l125 -3z" />
    <glyph glyph-name="acircumflex" unicode="&#xe2;" horiz-adv-x="231" 
d="M66 748q-11 -9 -20 2t2 20l75 57q10 8 17 -1l42 -34q3 -3 9 -7l18 -13q14 -12 3 -24q-11 -14 -24 -3q-1 0 -2 1l-31 31l-23 21zM213 290q0 -36 1 -53l-2 -166q0 -35 -1 -46v-17q0 -13 -14 -13t-14 14q1 6 1 17l4 118l2 193q-5 0 -7 1q0 1 -2 1l-4 1q-2 1 -7 1q-3 1 -10 1
l-116 -3l-3 -46q-1 -9 -1 -27v-26q0 -37 2 -93l3 -72q3 -57 3 -46l2 -16q0 -17 -16 -19q-17 0 -19 16v137l2 175q0 19 1 29q0 19 2 61l5 63q2 21 8 65q4 22 7 33q4 22 7 33l14 51l6 17q9 19 20 33q10 10 18 13q5 4 11 5l12 1q11 0 23 -5q9 -5 18 -14l11 -17q6 -12 8 -18
q8 -23 14 -69q3 -27 8 -132q2 -86 2 -124q1 -19 1 -57zM190 372l-1 98l-3 65q0 12 -2 32l-5 33q-4 22 -7 32q-2 11 -10 31q-7 16 -15 24q-3 3 -9 7q-6 2 -10 2l-10 -3q-3 -1 -9 -7q-9 -7 -17 -24q-5 -9 -13 -29q-7 -21 -5 -16l-10 -48q0 -5 -2 -16l-9 -81q-6 -68 -8 -100
l125 -3z" />
    <glyph glyph-name="atilde" unicode="&#xe3;" horiz-adv-x="238" 
d="M222 800l-1 -4l-9 -17l-10 -13q-8 -8 -17 -12q-6 -4 -12 -4q-2 -1 -6 -1h-7q-8 2 -13 4t-11 8q-9 8 -15 15l-12 15l-4 2q-4 0 -8 -4q-3 -2 -9 -8l-12 -16l-3 -7q-8 -16 -23 -6q-14 9 -6 24q1 0 2 2l21 23q4 4 14 12l10 5q6 3 13 3h4q2 0 4 -1q3 0 7 -2q7 -3 11 -7l15 -15
q7 -9 11 -11l4 -3l5 -1q1 0 2 1q3 0 4 1q2 1 7 6q3 3 5 7l6 13q5 17 21 12q17 -5 12 -21zM213 290q0 -36 1 -53l-2 -166q0 -35 -1 -46v-17q0 -13 -14 -13t-14 14q1 6 1 17l4 118l2 193q-5 0 -7 1q0 1 -2 1l-4 1q-2 1 -7 1q-3 1 -10 1l-116 -3l-3 -46q-1 -9 -1 -27v-26
q0 -37 2 -93l3 -72q3 -57 3 -46l2 -16q0 -17 -16 -19q-17 0 -19 16v137l2 175q0 19 1 29q0 19 2 61l5 63q2 21 8 65q4 22 7 33q4 22 7 33l14 51l6 17q9 19 20 33q10 10 18 13q5 4 11 5l12 1q11 0 23 -5q9 -5 18 -14l11 -17q6 -12 8 -18q8 -23 14 -69q3 -27 8 -132
q2 -86 2 -124q1 -19 1 -57zM190 372l-1 98l-3 65q0 12 -2 32l-5 33q-4 22 -7 32q-2 11 -10 31q-7 16 -15 24q-3 3 -9 7q-6 2 -10 2l-10 -3q-3 -1 -9 -7q-9 -7 -17 -24q-5 -9 -13 -29q-7 -21 -5 -16l-10 -48q0 -5 -2 -16l-9 -81q-6 -68 -8 -100l125 -3z" />
    <glyph glyph-name="adieresis" unicode="&#xe4;" horiz-adv-x="229" 
d="M60 774q-1 10 6 18q5 5 15 5q17 0 27 -15q-1 1 3 -10q-2 -14 -13 -17q-14 -3 -26 2q-11 5 -12 17zM141 774q-1 10 5 18q5 5 16 5q16 0 26 -15q-1 1 3 -10q-2 -14 -12 -17q-15 -3 -26 2q-12 5 -12 17zM214 237l-2 -166q0 -35 -1 -46v-17q0 -13 -14 -13t-14 14q1 6 1 17
l4 118l2 193q-5 0 -7 1q0 1 -2 1l-4 1q-2 1 -7 1q-3 1 -10 1l-116 -3l-3 -46q-1 -9 -1 -27v-26q0 -37 2 -93l3 -72q3 -57 3 -46l2 -16q0 -17 -16 -19q-17 0 -19 16v137l2 175q0 19 1 29q0 19 2 61l5 63q2 21 8 65q4 22 7 33q4 22 7 33l14 51l6 17q9 19 20 33q10 10 18 13
q5 4 11 5l12 1q11 0 23 -5q9 -5 18 -14l11 -17q6 -12 8 -18q8 -23 14 -69q3 -27 8 -132q2 -86 2 -124q1 -19 1 -57q0 -36 1 -53zM190 372l-1 98l-3 65q0 12 -2 32l-5 33q-4 22 -7 32q-2 11 -10 31q-7 16 -15 24q-3 3 -9 7q-6 2 -10 2l-10 -3q-3 -1 -9 -7q-9 -7 -17 -24
q-5 -9 -13 -29q-7 -21 -5 -16l-10 -48q0 -5 -2 -16l-9 -81q-6 -68 -8 -100l125 -3z" />
    <glyph glyph-name="ae" unicode="&#xe6;" horiz-adv-x="438" 
d="M409 24q13 0 13 -14q0 -13 -14 -13l-162 9q-11 0 -11 12l3 211l-3 108q-8 1 -23 1q1 -16 1 -48q0 -36 1 -53l-2 -166q0 -35 -1 -46v-17q0 -13 -14 -13t-14 14q1 6 1 17l4 118l2 193q-5 0 -7 1q0 1 -2 1l-4 1q-2 1 -7 1q-3 1 -10 1l-116 -3l-3 -46q-1 -9 -1 -27v-26
q0 -37 2 -93l3 -72q3 -57 3 -46l2 -16q0 -17 -16 -19q-17 0 -19 16v137l2 175q0 19 1 29q0 19 2 61l5 63q2 21 8 65q4 22 7 33q4 22 7 33l14 51l6 17q9 19 20 33q10 10 18 13q5 4 11 5l12 1q11 0 23 -5q9 -5 18 -14l11 -17q6 -12 8 -18q8 -23 14 -69q3 -27 8 -132
q2 -70 2 -101l23 1q1 5 1 14l1 13q2 28 2 42l-1 127l4 127q0 9 10 11l114 11l38 5q17 2 19 -15q4 -17 -15 -19l-143 -4l1 -180l-1 -21q-2 -28 -2 -42q0 -28 1 -42q1 -9 1 -27l36 -2l77 4q15 2 15 -13q2 -15 -14 -15q-7 -1 -17 -1l-69 -3l-22 -4h-6q0 -16 -1 -24l-3 -42
l-1 -42q-1 -14 -1 -43v-157zM170 369l20 3l-1 98l-3 65q0 12 -2 32l-5 33q-4 22 -7 32q-2 11 -10 31q-7 16 -15 24q-3 3 -9 7q-6 2 -10 2l-10 -3q-3 -1 -9 -7q-9 -7 -17 -24q-5 -9 -13 -29q-7 -21 -5 -16l-10 -48q0 -5 -2 -16l-9 -81q-6 -68 -8 -100z" />
    <glyph glyph-name="ccedilla" unicode="&#xe7;" horiz-adv-x="244" 
d="M229 577v-14q0 -13 -14 -13t-14 14q1 4 1 12q1 -9 -2 36l-5 25q-4 15 -10 25q-8 13 -21 19q-13 7 -33 9q-24 2 -37 -4q-9 -4 -14 -10q-5 -4 -11 -16q-9 -16 -14 -44q-2 -8 -4 -24q-3 -12 -3 -25q-2 -18 -4 -52q-1 -17 -1 -53l2 -109q0 -19 -2 -55v-54l2 -27q2 -18 2 -27
l3 -51q4 -31 7 -49q2 -12 6 -22l3 -10l5 -9q5 -10 12 -14q5 -4 17 -8l24 -3l14 1q15 1 28 14q7 7 9 12q2 2 7 13q4 8 8 28l4 24q1 15 1 36q-1 4 -1 9v3q-2 17 15 19t19 -16l-1 -1v-15q0 -22 -3 -39q-1 -12 -6 -27q-3 -14 -11 -32q-4 -8 -10 -17q-6 -10 -14 -16
q-8 -8 -19 -13q-3 -2 -11 -4t-12 -2t-6 -1h-1l-1 -12l3 -1q5 0 9 -3q5 -1 9 -6q5 -4 6 -9q2 -3 4 -9q2 -12 2 -16v-7q0 -6 -1 -8q-2 -11 -5 -16q-3 -7 -14 -13q-6 -3 -15 -3q-7 0 -10 1l-9 3q-13 5 -7 19q8 13 20 7l8 -1l2 2q2 2 2 6l1 10q0 7 -1 9q0 5 -2 5q-1 1 -2 1
q0 1 -2 1h-8q-2 0 -4 1q-2 0 -4 1q-3 0 -6 3l-5 9l-1 29l-9 2q-13 3 -24 11q-9 6 -20 20q-7 10 -12 23q-7 20 -8 26q-6 34 -8 51l-3 53v54q0 37 -1 55l-3 55l1 55l2 28q2 18 2 27l3 53q2 36 4 53l3 26q2 16 4 25q1 9 5 25l9 24q8 16 14 23q10 10 23 16q12 4 25 6h22
q25 -2 43 -10q12 -7 18 -13q10 -10 13 -15q11 -18 14 -33q5 -15 6 -27q3 -17 3 -39z" />
    <glyph glyph-name="egrave" unicode="&#xe8;" horiz-adv-x="218" 
d="M44 811q5 12 19 6l33 -19q10 -5 19 -11q-7 3 19 -10q-3 2 9 -4q2 0 5 -2l21 -9q16 -7 9 -23t-23 -9l-7 5q2 0 -11 7q-3 3 -7 5l-9 6l-55 30q-10 5 -16 9q-14 6 -6 19zM189 26q13 0 13 -14q0 -13 -14 -13l-162 1q-11 0 -11 12l3 217l-2 84q-1 14 -1 43q0 14 2 42t2 42
l-1 127l4 127q0 9 10 11l114 11l38 5q17 2 19 -15q4 -17 -15 -19l-143 -4l1 -180l-1 -21q-2 -28 -2 -42q0 -28 1 -42q1 -9 1 -27l28 -2l77 4q15 2 15 -13q2 -15 -14 -15q-7 -1 -17 -1l-69 -3l-20 -4q0 -16 -1 -24l-3 -42l-1 -42q-1 -14 -1 -43v-163z" />
    <glyph glyph-name="eacute" unicode="&#xe9;" horiz-adv-x="218" 
d="M41 737q-9 14 5 24l28 12q6 2 9 4l38 21q8 6 17 9l16 10q13 5 19 -6q7 -12 -5 -19l-17 -9q-10 -6 -17 -9q-26 -13 -19 -10l-35 -22q-8 -6 -11 -7zM189 26q13 0 13 -14q0 -13 -14 -13l-162 1q-11 0 -11 12l3 217l-2 84q-1 14 -1 43q0 14 2 42t2 42l-1 127l4 127q0 9 10 11
l114 11l38 5q17 2 19 -15q4 -17 -15 -19l-143 -4l1 -180l-1 -21q-2 -28 -2 -42q0 -28 1 -42q1 -9 1 -27l28 -2l77 4q15 2 15 -13q2 -15 -14 -15q-7 -1 -17 -1l-69 -3l-20 -4q0 -16 -1 -24l-3 -42l-1 -42q-1 -14 -1 -43v-163z" />
    <glyph glyph-name="ecircumflex" unicode="&#xea;" horiz-adv-x="218" 
d="M48 748q-11 -9 -20 2t2 20l75 57q10 8 17 -1l42 -34q3 -3 9 -7l18 -13q14 -12 3 -24q-11 -14 -24 -3q-1 0 -2 1l-31 31l-23 21zM189 26q13 0 13 -14q0 -13 -14 -13l-162 1q-11 0 -11 12l3 217l-2 84q-1 14 -1 43q0 14 2 42t2 42l-1 127l4 127q0 9 10 11l114 11l38 5
q17 2 19 -15q4 -17 -15 -19l-143 -4l1 -180l-1 -21q-2 -28 -2 -42q0 -28 1 -42q1 -9 1 -27l28 -2l77 4q15 2 15 -13q2 -15 -14 -15q-7 -1 -17 -1l-69 -3l-20 -4q0 -16 -1 -24l-3 -42l-1 -42q-1 -14 -1 -43v-163z" />
    <glyph glyph-name="edieresis" unicode="&#xeb;" horiz-adv-x="218" 
d="M43 774q-1 10 6 18q5 5 15 5q17 0 27 -15q-1 1 3 -10q-2 -14 -13 -17q-14 -3 -26 2q-11 5 -12 17zM124 774q-1 10 5 18q5 5 16 5q16 0 26 -15q-1 1 3 -10q-2 -14 -12 -17q-15 -3 -26 2q-12 5 -12 17zM189 26q13 0 13 -14q0 -13 -14 -13l-162 1q-11 0 -11 12l3 217l-2 84
q-1 14 -1 43q0 14 2 42t2 42l-1 127l4 127q0 9 10 11l114 11l38 5q17 2 19 -15q4 -17 -15 -19l-143 -4l1 -180l-1 -21q-2 -28 -2 -42q0 -28 1 -42q1 -9 1 -27l28 -2l77 4q15 2 15 -13q2 -15 -14 -15q-7 -1 -17 -1l-69 -3l-20 -4q0 -16 -1 -24l-3 -42l-1 -42q-1 -14 -1 -43
v-163z" />
    <glyph glyph-name="igrave" unicode="&#xec;" horiz-adv-x="206" 
d="M34 815q5 12 19 6l33 -19q10 -5 19 -11q-7 3 19 -10q-3 2 9 -4q1 0 4 -2l22 -9q16 -7 9 -23t-23 -9l-7 5q1 0 -11 7q-3 3 -7 5l-9 6l-55 30q-10 5 -16 9q-14 6 -6 19zM176 35q17 0 17 -17q0 -16 -15 -18h-44q-16 -2 -25 -2l-62 -4q-3 0 -6 -1q-17 -2 -19 15q-4 16 14 20
h25l33 2l1 201q0 20 -1 30q0 21 -1 31l-3 31q-2 22 -2 32t2 32q1 10 1 31l-3 31l1 138l-6 99q-2 -1 -6 -1l-35 -3q-4 0 -6 -1q-17 0 -19 16q-2 17 16 19l102 1l31 4q18 4 21 -13q4 -18 -13 -21q-4 -2 -7 0l-51 1l-1 -24q-1 -9 -1 -33q-1 -7 -1 -21l-1 -47q0 -9 1 -13
q0 -9 1 -14q1 -9 1 -28v-14v-76q0 -21 1 -31l3 -32l-3 -63q-1 -10 -1 -31l6 -230l23 1q7 0 11 1z" />
    <glyph glyph-name="iacute" unicode="&#xed;" horiz-adv-x="206" 
d="M44 741q-9 14 5 24l28 12q6 2 9 4l38 21q8 6 17 9l16 10q12 5 19 -6q7 -12 -5 -19l-17 -9q-10 -6 -17 -9q-26 -13 -19 -10l-35 -22q-8 -6 -11 -7zM176 35q17 0 17 -17q0 -16 -15 -18h-44q-16 -2 -25 -2l-62 -4q-3 0 -6 -1q-17 -2 -19 15q-4 16 14 20h25l33 2l1 201
q0 20 -1 30q0 21 -1 31l-3 31q-2 22 -2 32t2 32q1 10 1 31l-3 31l1 138l-6 99q-2 -1 -6 -1l-35 -3q-4 0 -6 -1q-17 0 -19 16q-2 17 16 19l102 1l31 4q18 4 21 -13q4 -18 -13 -21q-4 -2 -7 0l-51 1l-1 -24q-1 -9 -1 -33q-1 -7 -1 -21l-1 -47q0 -9 1 -13q0 -9 1 -14
q1 -9 1 -28v-14v-76q0 -21 1 -31l3 -32l-3 -63q-1 -10 -1 -31l6 -230l23 1q7 0 11 1z" />
    <glyph glyph-name="icircumflex" unicode="&#xee;" horiz-adv-x="207" 
d="M43 748q-11 -9 -20 2t2 20l75 57q10 8 17 -1l42 -34q3 -3 9 -7l18 -13q14 -12 3 -24q-11 -14 -24 -3q-1 0 -2 1l-31 31l-23 21zM180 35q17 0 17 -17q0 -16 -15 -18h-44q-16 -2 -25 -2l-62 -4q-3 0 -6 -1q-17 -2 -19 15q-4 16 14 20h25l33 2l1 201q0 20 -1 30q0 21 -1 31
l-3 31q-2 22 -2 32t2 32q1 10 1 31l-3 31l1 138l-6 99q-2 -1 -6 -1l-35 -3q-4 0 -6 -1q-17 0 -19 16q-2 17 16 19l102 1l31 4q18 4 21 -13q4 -18 -13 -21q-3 -2 -7 0l-51 1l-1 -24q-1 -9 -1 -33q-1 -7 -1 -21l-1 -47q0 -9 1 -13q0 -9 1 -14q1 -9 1 -28l1 -14l-1 -76
q0 -21 1 -31l3 -32l-3 -63q-1 -10 -1 -31l6 -230l23 1q7 0 11 1z" />
    <glyph glyph-name="idieresis" unicode="&#xef;" horiz-adv-x="206" 
d="M33 774q-1 10 6 18q5 5 15 5q17 0 27 -15q-1 1 3 -10q-2 -14 -13 -17q-14 -3 -26 2q-11 5 -12 17zM113 774q0 10 6 18q5 5 16 5q16 0 26 -15q-1 1 3 -10q-2 -14 -12 -17q-15 -3 -26 2q-12 5 -13 17zM176 35q17 0 17 -17q0 -16 -15 -18h-44q-16 -2 -25 -2l-62 -4
q-3 0 -6 -1q-17 -2 -19 15q-4 16 14 20h25l33 2l1 201q0 20 -1 30q0 21 -1 31l-3 31q-2 22 -2 32t2 32q1 10 1 31l-3 31l1 138l-6 99q-2 -1 -6 -1l-35 -3q-4 0 -6 -1q-17 0 -19 16q-2 17 16 19l102 1l31 4q18 4 21 -13q4 -18 -13 -21q-4 -2 -7 0l-51 1l-1 -24q-1 -9 -1 -33
q-1 -7 -1 -21l-1 -47q0 -9 1 -13q0 -9 1 -14q1 -9 1 -28v-14v-76q0 -21 1 -31l3 -32l-3 -63q-1 -10 -1 -31l6 -230l23 1q7 0 11 1z" />
    <glyph glyph-name="ntilde" unicode="&#xf1;" horiz-adv-x="238" 
d="M31 763q1 0 2 2l21 23q4 4 14 12l10 5q6 3 13 3h4q2 0 4 -1q3 0 7 -2q7 -3 11 -7l15 -15q8 -9 11 -11l4 -3l5 -1q1 0 2 1q3 0 4 1q2 1 7 6q3 3 5 7l6 13q6 17 21 12q18 -5 12 -21l-1 -4l-9 -17l-10 -13q-8 -8 -17 -12q-6 -4 -12 -4q-2 -1 -6 -1h-7q-8 2 -13 4t-11 8
q-9 8 -15 15l-12 15l-4 2q-4 0 -8 -4q-3 -2 -9 -8l-12 -16l-3 -7q-7 -16 -23 -6q-14 9 -6 24zM210 9q0 -12 -12 -12q-9 0 -11 9l-29 130q-6 28 -10 43l-31 128l-19 86l-11 66q-2 14 -4 21l-19 86l-4 -126q-1 -15 -1 -43l-3 -259v-129q0 -17 -16 -17q-17 0 -17 17l10 388
l1 302q0 16 16 16q13 0 16 -13l44 -216l31 -129l9 -43q2 -7 4 -21l20 -109q2 -7 4 -21l6 -29l-11 565q0 15 16 15q14 2 16 -15z" />
    <glyph glyph-name="ograve" unicode="&#xf2;" horiz-adv-x="225" 
d="M155 730q16 -7 23 9t-9 23l-21 9q-3 2 -5 2q-12 6 -9 4q-26 13 -19 10q-9 6 -19 11l-33 19q-14 6 -19 -6q-8 -13 6 -19q6 -4 16 -9l55 -30l9 -6q4 -2 7 -5q13 -7 11 -7zM94 717q-13 -2 -25 -8q-4 -2 -14 -10q-9 -9 -12 -14q-9 -14 -16 -37q-6 -28 -7 -43q-5 -39 -5 -101
q0 -76 1 -118q0 -86 1 -132q0 -46 1 -69q0 -24 2 -72q2 -26 4 -37q2 -12 4 -19q3 -11 7 -20q6 -12 13 -19q5 -5 9 -7q5 -5 10 -6q4 -2 21 -7l11 -1q7 0 10 -1q26 2 42 10q9 4 18 13q8 8 13 18q7 12 13 38q3 10 7 37l2 18q2 12 2 18q2 24 2 36q1 6 1 18l1 52l-1 131
q-2 42 -2 61v110q0 18 -2 48q-1 22 -6 43q-3 21 -13 38l-12 15q-10 8 -15 10q-12 6 -25 8q-7 1 -15 1zM118 685q7 0 11 -1q9 0 16 -3q8 -5 14 -13q7 -12 11 -28t6 -39q2 -14 4 -46q1 -9 1 -26l1 -83q1 -20 -1 -61l-2 -165q0 -23 -1 -35q0 -47 -3 -70q-2 -23 -5 -34
q-6 -22 -12 -30q-2 -4 -4 -6q-2 -3 -5 -5q-3 -3 -11 -7q-6 -3 -13 -3l-16 -1q-19 0 -30 4l-10 6q-2 1 -9 11q-6 12 -10 31q-1 3 -6 34q-2 22 -4 70v69q0 90 1 132q0 45 2 117q2 61 7 98q4 26 7 38t12 28q7 9 16 13q7 4 15 4q4 1 10 1h8z" />
    <glyph glyph-name="oacute" unicode="&#xf3;" horiz-adv-x="225" 
d="M46 761q-14 -10 -5 -24q10 -16 24 -5l50 32q-7 -3 19 10q7 3 17 9l17 9q12 7 5 19q-6 11 -19 6l-16 -10q-9 -3 -17 -9l-38 -21q-3 -2 -9 -4zM94 717q-13 -2 -25 -8q-4 -2 -14 -10q-9 -9 -12 -14q-9 -14 -16 -37q-6 -28 -7 -43q-5 -39 -5 -101q0 -76 1 -118q0 -86 1 -132
q0 -46 1 -69q0 -24 2 -72q2 -26 4 -37q2 -12 4 -19q3 -11 7 -20q6 -12 13 -19q5 -5 9 -7q5 -5 10 -6q4 -2 21 -7l11 -1q7 0 10 -1q26 2 42 10q9 4 18 13q8 8 13 18q7 12 13 38q3 10 7 37l2 18q2 12 2 18q2 24 2 36q1 6 1 18l1 52l-1 131q-2 42 -2 61v110q0 18 -2 48
q-1 22 -6 43q-3 21 -13 38l-12 15q-10 8 -15 10q-12 6 -25 8q-7 1 -15 1zM118 685q7 0 11 -1q9 0 16 -3q8 -5 14 -13q7 -12 11 -28t6 -39q2 -14 4 -46q1 -9 1 -26l1 -83q1 -20 -1 -61l-2 -165q0 -23 -1 -35q0 -47 -3 -70q-2 -23 -5 -34q-6 -22 -12 -30q-2 -4 -4 -6
q-2 -3 -5 -5q-3 -3 -11 -7q-6 -3 -13 -3l-16 -1q-19 0 -30 4l-10 6q-2 1 -9 11q-6 12 -10 31q-1 3 -6 34q-2 22 -4 70v69q0 90 1 132q0 45 2 117q2 61 7 98q4 26 7 38t12 28q7 9 16 13q7 4 15 4q4 1 10 1h8z" />
    <glyph glyph-name="ocircumflex" unicode="&#xf4;" horiz-adv-x="225" 
d="M48 748q-11 -9 -20 2t2 20l75 57q10 8 17 -1l42 -34q3 -3 9 -7l18 -13q14 -12 3 -24q-11 -14 -24 -3q-1 0 -2 1l-31 31l-23 21zM210 254l-1 -52q0 -12 -1 -18q0 -12 -2 -36q0 -6 -2 -18l-2 -18q-4 -27 -7 -37q-6 -26 -13 -38q-5 -10 -13 -18q-9 -9 -18 -13
q-16 -8 -42 -10q-3 1 -10 1l-11 1q-17 5 -21 7q-5 1 -10 6q-4 2 -9 7q-7 7 -13 19q-4 9 -7 20q-2 7 -4 19q-2 11 -4 37q-2 48 -2 72q-1 23 -1 69q-1 46 -1 132q-1 42 -1 118q0 62 5 101q1 15 7 43q7 23 16 37q3 5 12 14q10 8 14 10q12 6 25 8l25 2q8 0 15 -1q13 -2 25 -8
q5 -2 15 -10l12 -15q10 -17 13 -38q5 -21 6 -43q2 -30 2 -48v-110zM181 385q2 41 1 61l-1 83q0 17 -1 26q-2 32 -4 46q-2 23 -6 39t-11 28q-6 8 -14 13q-7 3 -16 3q-4 1 -11 1h-8q-6 0 -10 -1q-8 0 -15 -4q-9 -4 -16 -13q-9 -16 -12 -28t-7 -38q-5 -37 -7 -98
q-2 -72 -2 -117q-1 -42 -1 -132v-69q2 -48 4 -70q5 -31 6 -34q4 -19 10 -31q7 -10 9 -11l10 -6q11 -4 30 -4l16 1q7 0 13 3q8 4 11 7q3 2 5 5q2 2 4 6q6 8 12 30q3 11 5 34q3 23 3 70q1 12 1 35z" />
    <glyph glyph-name="otilde" unicode="&#xf5;" horiz-adv-x="225" 
d="M23 763q1 0 2 2l21 23q4 4 14 12l10 5q6 3 13 3h4q2 0 4 -1q3 0 7 -2q7 -3 11 -7l15 -15q8 -9 11 -11l4 -3l5 -1q1 0 2 1q3 0 4 1q2 1 7 6q3 3 5 7l6 13q6 17 21 12q18 -5 12 -21l-1 -4l-9 -17l-10 -13q-8 -8 -17 -12q-6 -4 -12 -4q-2 -1 -6 -1h-7q-8 2 -13 4t-11 8
q-9 8 -15 15l-12 15l-4 2q-4 0 -8 -4q-3 -2 -9 -8l-12 -16l-3 -7q-7 -16 -23 -6q-14 9 -6 24zM210 254l-1 -52q0 -12 -1 -18q0 -12 -2 -36q0 -6 -2 -18l-2 -18q-4 -27 -7 -37q-6 -26 -13 -38q-5 -10 -13 -18q-9 -9 -18 -13q-16 -8 -42 -10q-3 1 -10 1l-11 1q-17 5 -21 7
q-5 1 -10 6q-4 2 -9 7q-7 7 -13 19q-4 9 -7 20q-2 7 -4 19q-1 11 -4 37q-2 48 -2 72q-1 23 -1 69q-1 46 -1 132q-1 42 -1 118q0 62 5 101q1 15 7 43q7 23 16 37q3 5 12 14q10 8 14 10q12 6 25 8l25 2q8 0 15 -1q13 -2 25 -8q5 -2 15 -10l12 -15q10 -17 13 -38q5 -21 6 -43
q2 -30 2 -48v-110zM181 385q2 41 1 61l-1 83q0 17 -1 26q-2 32 -4 46q-1 23 -6 39q-4 16 -11 28q-5 8 -14 13q-7 3 -16 3q-4 1 -11 1h-8q-6 0 -10 -1q-8 0 -15 -4q-9 -4 -16 -13q-9 -16 -12 -28t-7 -38q-5 -37 -7 -98q-2 -72 -2 -117q-1 -42 -1 -132v-69q2 -48 4 -70
q5 -31 6 -34q4 -19 10 -31q8 -10 9 -11l10 -6q11 -4 30 -4l16 1q7 0 13 3q8 4 11 7q4 2 5 5q2 2 4 6q6 8 12 30q3 11 5 34q3 23 3 70q1 12 1 35z" />
    <glyph glyph-name="odieresis" unicode="&#xf6;" horiz-adv-x="225" 
d="M91 782q-10 15 -27 15q-10 0 -15 -5q-7 -8 -6 -18q1 -12 12 -17q12 -5 26 -2q11 3 13 17q-4 11 -3 10zM171 782q-10 15 -26 15q-11 0 -16 -5q-6 -8 -5 -18q0 -12 12 -17q11 -5 26 -2q10 3 12 17q-4 11 -3 10zM94 717q-13 -2 -25 -8q-4 -2 -14 -10q-9 -9 -12 -14
q-9 -14 -16 -37q-6 -28 -7 -43q-5 -39 -5 -101q0 -76 1 -118q0 -86 1 -132q0 -46 1 -69q0 -24 2 -72q2 -26 4 -37q2 -12 4 -19q3 -11 7 -20q6 -12 13 -19q5 -5 9 -7q5 -5 10 -6q4 -2 21 -7l11 -1q7 0 10 -1q26 2 42 10q9 4 18 13q8 8 13 18q7 12 13 38q3 10 7 37l2 18
q2 12 2 18q2 24 2 36q1 6 1 18l1 52l-1 131q-2 42 -2 61v110q0 18 -2 48q-1 22 -6 43q-3 21 -13 38l-12 15q-10 8 -15 10q-12 6 -25 8q-7 1 -15 1zM118 685q7 0 11 -1q9 0 16 -3q8 -5 14 -13q7 -12 11 -28t6 -39q2 -14 4 -46q1 -9 1 -26l1 -83q1 -20 -1 -61l-2 -165
q0 -23 -1 -35q0 -47 -3 -70q-2 -23 -5 -34q-6 -22 -12 -30q-2 -4 -4 -6q-2 -3 -5 -5q-3 -3 -11 -7q-6 -3 -13 -3l-16 -1q-19 0 -30 4l-10 6q-2 1 -9 11q-6 12 -10 31q-1 3 -6 34q-2 22 -4 70v69q0 90 1 132q0 45 2 117q2 61 7 98q4 26 7 38t12 28q7 9 16 13q7 4 15 4
q4 1 10 1h8z" />
    <glyph glyph-name="divide" unicode="&#xf7;" horiz-adv-x="274" 
d="M159 414q-9 14 -27 16q-10 0 -15 -6q-7 -7 -6 -18q1 -12 12 -16q12 -7 26 -2q11 3 13 17zM15 326q0 -18 18 -16l141 3l70 -3q19 2 15 19q-2 19 -19 15l-19 -1q-4 -1 -13 -1l-52 -1l-114 3zM159 250q-9 14 -27 16q-10 0 -15 -6q-7 -7 -6 -18q1 -12 12 -16q12 -7 26 -2
q11 3 13 17z" />
    <glyph glyph-name="ugrave" unicode="&#xf9;" 
d="M155 730q16 -7 23 9t-9 23l-21 9q-3 2 -5 2q-12 6 -9 4q-26 13 -19 10q-9 6 -19 11l-33 19q-14 6 -19 -6q-8 -13 6 -19q6 -4 16 -9l55 -30l9 -6q4 -2 7 -5q13 -7 11 -7zM222 698q0 17 -18 17t-16 -18l3 -134q1 -14 1 -44q1 -15 1 -49q1 -17 1 -53q0 -37 -1 -57l-2 -122
l-3 -64q-2 -42 -5 -65l-3 -16q0 -2 -2 -7l-2 -8q-7 -17 -13 -27q-7 -11 -19 -18l-12 -3l-17 -1l-9 2q-8 2 -11 5q-11 6 -19 19q-8 14 -12 29l-5 15l-3 16q-6 31 -9 64l-3 65q-1 42 -1 122l1 57q0 35 1 53l4 227q0 17 -17 17t-17 -17l3 -337l4 -139q0 -11 1 -16q0 -11 2 -33
q4 -47 7 -67q8 -46 20 -69q4 -8 10 -17l15 -15q9 -6 20 -9q-1 1 10 -3l16 -2l15 2q9 3 20 8q10 6 17 14q8 8 12 16q6 11 14 35q0 2 2 8l2 9q0 2 2 8l2 9q6 35 9 67q2 22 2 33l1 32q1 22 1 63q-1 11 -1 31l-2 86l1 218q3 53 2 46v17z" />
    <glyph glyph-name="uacute" unicode="&#xfa;" 
d="M66 761q-14 -10 -5 -24q10 -16 24 -5l50 32q-7 -3 19 10q7 3 17 9l17 9q12 7 5 19q-6 11 -19 6l-16 -10q-9 -3 -17 -9l-38 -21q-3 -2 -9 -4zM222 698q0 17 -18 17t-16 -18l3 -134q1 -14 1 -44q1 -15 1 -49q1 -17 1 -53q0 -37 -1 -57l-2 -122l-3 -64q-2 -42 -5 -65l-3 -16
q0 -2 -2 -7l-2 -8q-7 -17 -13 -27q-7 -11 -19 -18l-12 -3l-17 -1l-9 2q-8 2 -11 5q-11 6 -19 19q-8 14 -12 29l-5 15l-3 16q-6 31 -9 64l-3 65q-1 42 -1 122l1 57q0 35 1 53l4 227q0 17 -17 17t-17 -17l3 -337l4 -139q0 -11 1 -16q0 -11 2 -33q4 -47 7 -67q8 -46 20 -69
q4 -8 10 -17l15 -15q9 -6 20 -9q-1 1 10 -3l16 -2l15 2q9 3 20 8q10 6 17 14q8 8 12 16q6 11 14 35q0 2 2 8l2 9q0 2 2 8l2 9q6 35 9 67q2 22 2 33l1 32q1 22 1 63q-1 11 -1 31l-2 86l1 218q3 53 2 46v17z" />
    <glyph glyph-name="ucircumflex" unicode="&#xfb;" 
d="M59 748q-11 -9 -20 2t2 20l75 57q10 8 17 -1l42 -34q3 -3 9 -7l18 -13q14 -12 3 -24q-11 -14 -24 -3q-1 0 -2 1l-31 31l-23 21zM222 698v-17q1 7 -2 -46l-1 -218l2 -86q0 -20 1 -31q0 -41 -1 -63l-1 -32q0 -11 -2 -33q-3 -32 -9 -67l-2 -9q-2 -6 -2 -8l-2 -9q-2 -6 -2 -8
q-8 -24 -14 -35q-4 -8 -12 -16q-7 -8 -17 -14q-11 -5 -20 -8l-15 -2l-16 2q-11 4 -10 3q-11 3 -20 9l-15 15q-6 9 -10 17q-12 23 -20 69q-3 20 -7 67q-2 22 -2 33q-1 5 -1 16l-4 139l-3 337q0 17 17 17t17 -17l-4 -227q-1 -18 -1 -53l-1 -57q0 -80 1 -122l3 -65q3 -33 9 -64
l3 -16l5 -15q4 -15 12 -29q8 -13 19 -19q3 -3 11 -5l9 -2l17 1l12 3q12 7 19 18q6 10 13 27l2 8q2 5 2 7l3 16q3 23 5 65l3 64l2 122q1 20 1 57q0 36 -1 53q0 34 -1 49q0 30 -1 44l-3 134q-2 18 16 18t18 -17z" />
    <glyph glyph-name="udieresis" unicode="&#xfc;" 
d="M101 782q-10 15 -27 15q-10 0 -15 -5q-7 -8 -6 -18q1 -12 12 -17q12 -5 26 -2q11 3 13 17q-4 11 -3 10zM181 782q-10 15 -26 15q-11 0 -16 -5q-6 -8 -5 -18q0 -12 12 -17q11 -5 26 -2q10 3 12 17q-4 11 -3 10zM222 698q0 17 -18 17t-16 -18l3 -134q1 -14 1 -44
q1 -15 1 -49q1 -17 1 -53q0 -37 -1 -57l-2 -122l-3 -64q-2 -42 -5 -65l-3 -16q0 -2 -2 -7l-2 -8q-7 -17 -13 -27q-7 -11 -19 -18l-12 -3l-17 -1l-9 2q-8 2 -11 5q-11 6 -19 19q-8 14 -12 29l-5 15l-3 16q-6 31 -9 64l-3 65q-1 42 -1 122l1 57q0 35 1 53l4 227q0 17 -17 17
t-17 -17l3 -337l4 -139q0 -11 1 -16q0 -11 2 -33q4 -47 7 -67q8 -46 20 -69q4 -8 10 -17l15 -15q9 -6 20 -9q-1 1 10 -3l16 -2l15 2q9 3 20 8q10 6 17 14q8 8 12 16q6 11 14 35q0 2 2 8l2 9q0 2 2 8l2 9q6 35 9 67q2 22 2 33l1 32q1 22 1 63q-1 11 -1 31l-2 86l1 218
q3 53 2 46v17z" />
    <glyph glyph-name="yacute" unicode="&#xfd;" horiz-adv-x="260" 
d="M85 737q-8 14 5 24l28 12q6 2 9 4l38 21q8 6 17 9l16 10q13 5 19 -6q7 -12 -5 -19l-17 -9q-10 -6 -17 -9q-26 -13 -19 -10l-35 -22q-8 -6 -11 -7zM249 699q-1 -2 -2 -8l-7 -37q-2 -12 -4 -19q-1 -7 -11 -45l-42 -174q-5 -18 -8 -32l-9 -32l-53 -213q-5 -14 -6 -26
l-18 -79q-5 -19 -7 -30q-4 -13 -18 -11q-13 4 -11 18l31 121l51 221q-1 0 -1 1q1 -1 -2 5l-9 23l-26 77q-12 36 -20 64l-5 17q-3 9 -5 16q-5 14 -10 32l-9 29q0 3 -2 7q-1 5 -2 7l-24 66q-5 14 9 19q14 6 18 -9q1 0 1 -1l16 -54q2 -3 4 -13q4 -7 5 -13l75 -211q0 -1 1 -2
l30 133l24 96q3 11 10 34q0 3 2 7l7 23q5 12 18 9q11 -5 9 -16z" />
    <glyph glyph-name="ydieresis" unicode="&#xff;" horiz-adv-x="260" 
d="M71 774q-1 10 6 18q5 5 15 5q17 0 27 -15q-1 1 3 -10q-1 -14 -13 -17q-14 -3 -26 2q-11 5 -12 17zM152 774q-1 10 5 18q5 5 16 5q16 0 26 -15q-1 1 3 -10q-1 -14 -12 -17q-15 -3 -26 2t-12 17zM249 699q-1 -2 -2 -8l-7 -37q-2 -12 -4 -19q-1 -7 -11 -45l-42 -174
q-5 -18 -8 -32l-9 -32l-53 -213q-5 -14 -6 -26l-18 -79q-5 -19 -7 -30q-4 -13 -18 -11q-13 4 -11 18l31 121l51 221q-1 0 -1 1q1 -1 -2 5l-9 23l-26 77q-12 36 -20 64l-5 17q-3 9 -5 16q-5 14 -10 32l-9 29q0 3 -2 7q-1 5 -2 7l-24 66q-5 14 9 19q14 6 18 -9q1 0 1 -1
l16 -54q2 -3 4 -13q4 -7 5 -13l75 -211q0 -1 1 -2l30 133l24 96q3 11 10 34q0 3 2 7l7 23q5 12 18 9q11 -5 9 -16z" />
    <glyph glyph-name="OE" unicode="&#x152;" horiz-adv-x="438" 
d="M409 24q13 0 13 -14q0 -13 -14 -13l-162 9q-11 0 -11 12l3 211l-3 108q-9 1 -26 1l1 -84l-1 -52q0 -12 -1 -18q0 -12 -2 -36q0 -6 -2 -18l-2 -18q-4 -27 -7 -37q-6 -26 -13 -38q-5 -10 -13 -18q-9 -9 -18 -13q-16 -8 -42 -10q-3 1 -10 1l-11 1q-17 5 -21 7q-5 1 -10 6
q-4 2 -9 7q-7 7 -13 19q-4 9 -7 20q-2 7 -4 19q-2 11 -4 37q-2 48 -2 72q-1 23 -1 69q-1 46 -1 132q-1 42 -1 118q0 62 5 101q1 15 7 43q7 23 16 37q3 5 12 14q10 8 14 10q12 6 25 8l25 2q8 0 15 -1q13 -2 25 -8q5 -2 15 -10l12 -15q10 -17 13 -38q5 -21 6 -43q2 -30 2 -48
v-110l2 -77q-7 -1 26 2l2 27q2 28 2 42l-1 127l4 127q0 9 10 11l114 11l38 5q17 2 19 -15q4 -17 -15 -19l-143 -4l1 -180l-1 -21q-2 -28 -2 -42q0 -28 1 -42q1 -9 1 -27l36 -2l77 4q15 2 15 -13q2 -15 -14 -15q-7 -1 -17 -1l-69 -3l-22 -4h-6q0 -16 -1 -24l-3 -42l-1 -42
q-1 -14 -1 -43v-157zM181 385q2 41 1 61l-1 83q0 17 -1 26q-2 32 -4 46q-2 23 -6 39t-11 28q-6 8 -14 13q-7 3 -16 3q-4 1 -11 1h-8q-6 0 -10 -1q-8 0 -15 -4q-9 -4 -16 -13q-9 -16 -12 -28t-7 -38q-5 -37 -7 -98q-2 -72 -2 -117q-1 -42 -1 -132v-69q2 -48 4 -70
q5 -31 6 -34q4 -19 10 -31q7 -10 9 -11l10 -6q11 -4 30 -4l16 1q7 0 13 3q8 4 11 7q3 2 5 5q2 2 4 6q6 8 12 30q3 11 5 34q3 23 3 70q1 12 1 35z" />
    <glyph glyph-name="oe" unicode="&#x153;" horiz-adv-x="438" 
d="M409 24q13 0 13 -14q0 -13 -14 -13l-162 9q-11 0 -11 12l3 211l-3 108q-9 1 -26 1l1 -84l-1 -52q0 -12 -1 -18q0 -12 -2 -36q0 -6 -2 -18l-2 -18q-4 -27 -7 -37q-6 -26 -13 -38q-5 -10 -13 -18q-9 -9 -18 -13q-16 -8 -42 -10q-3 1 -10 1l-11 1q-17 5 -21 7q-5 1 -10 6
q-4 2 -9 7q-7 7 -13 19q-4 9 -7 20q-2 7 -4 19q-2 11 -4 37q-2 48 -2 72q-1 23 -1 69q-1 46 -1 132q-1 42 -1 118q0 62 5 101q1 15 7 43q7 23 16 37q3 5 12 14q10 8 14 10q12 6 25 8l25 2q8 0 15 -1q13 -2 25 -8q5 -2 15 -10l12 -15q10 -17 13 -38q5 -21 6 -43q2 -30 2 -48
v-110l2 -77q-7 -1 26 2l2 27q2 28 2 42l-1 127l4 127q0 9 10 11l114 11l38 5q17 2 19 -15q4 -17 -15 -19l-143 -4l1 -180l-1 -21q-2 -28 -2 -42q0 -28 1 -42q1 -9 1 -27l36 -2l77 4q15 2 15 -13q2 -15 -14 -15q-7 -1 -17 -1l-69 -3l-22 -4h-6q0 -16 -1 -24l-3 -42l-1 -42
q-1 -14 -1 -43v-157zM181 385q2 41 1 61l-1 83q0 17 -1 26q-2 32 -4 46q-2 23 -6 39t-11 28q-6 8 -14 13q-7 3 -16 3q-4 1 -11 1h-8q-6 0 -10 -1q-8 0 -15 -4q-9 -4 -16 -13q-9 -16 -12 -28t-7 -38q-5 -37 -7 -98q-2 -72 -2 -117q-1 -42 -1 -132v-69q2 -48 4 -70
q5 -31 6 -34q4 -19 10 -31q7 -10 9 -11l10 -6q11 -4 30 -4l16 1q7 0 13 3q8 4 11 7q3 2 5 5q2 2 4 6q6 8 12 30q3 11 5 34q3 23 3 70q1 12 1 35z" />
    <glyph glyph-name="Wcircumflex" unicode="&#x174;" horiz-adv-x="298" 
d="M85 748q-11 -9 -20 2t2 20l75 57q10 8 17 -1l42 -34q3 -3 9 -7l18 -13q14 -12 3 -24q-11 -14 -24 -3q-1 0 -2 1l-31 31l-23 21zM283 701l-5 -129l-28 -517q-1 -15 -5 -43v-1q-3 -12 -14 -10q-8 2 -10 9l-31 145l-22 116l-6 52q0 5 -1 7l-13 73l-28 -189q-2 -20 -4 -29
l-28 -175q-2 -15 -16 -11q-10 1 -12 12l-9 174l-36 520q0 14 12 14q13 2 15 -12l37 -572l13 83l30 175q1 9 5 29l7 36q-1 -2 2 7l6 14q2 6 8 2q1 0 1 -1l2 -1l7 -21l41 -181q1 -1 6 -29l17 -100l31 555q0 15 15 13q15 0 13 -15z" />
    <glyph glyph-name="wcircumflex" unicode="&#x175;" horiz-adv-x="298" 
d="M85 748q-11 -9 -20 2t2 20l75 57q10 8 17 -1l42 -34q3 -3 9 -7l18 -13q14 -12 3 -24q-11 -14 -24 -3q-1 0 -2 1l-31 31l-23 21zM283 701l-5 -129l-28 -517q-1 -15 -5 -43v-1q-3 -12 -14 -10q-8 2 -10 9l-31 145l-22 116l-6 52q0 5 -1 7l-13 73l-28 -189q-2 -20 -4 -29
l-28 -175q-2 -15 -16 -11q-10 1 -12 12l-9 174l-36 520q0 14 12 14q13 2 15 -12l37 -572l13 83l30 175q1 9 5 29l7 36q-1 -2 2 7l6 14q2 6 8 2q1 0 1 -1l2 -1l7 -21l41 -181q1 -1 6 -29l17 -100l31 555q0 15 15 13q15 0 13 -15z" />
    <glyph glyph-name="Ycircumflex" unicode="&#x176;" horiz-adv-x="260" 
d="M71 748q-11 -9 -20 2t2 20l75 57q10 8 17 -1l42 -34q3 -3 9 -7l18 -13q14 -12 3 -24q-11 -14 -24 -3q-1 0 -2 1l-31 31l-23 21zM249 699q-1 -2 -2 -8l-7 -37q-2 -12 -4 -19q-1 -7 -11 -45l-42 -174q-5 -18 -8 -32l-9 -32l-53 -213q-5 -14 -6 -26l-18 -79q-5 -19 -7 -30
q-4 -13 -18 -11q-13 4 -11 18l31 121l51 221q-1 0 -1 1q1 -1 -2 5l-9 23l-26 77q-12 36 -20 64l-5 17q-3 9 -5 16q-5 14 -10 32l-9 29q0 3 -2 7q-1 5 -2 7l-24 66q-5 14 9 19q14 6 18 -9q1 0 1 -1l16 -54q2 -3 4 -13q4 -7 5 -13l75 -211q0 -1 1 -2l30 133l24 96q3 11 10 34
q0 3 2 7l7 23q5 12 18 9q11 -5 9 -16z" />
    <glyph glyph-name="ycircumflex" unicode="&#x177;" horiz-adv-x="260" 
d="M71 748q-11 -9 -20 2t2 20l75 57q10 8 17 -1l42 -34q3 -3 9 -7l18 -13q14 -12 3 -24q-11 -14 -24 -3q-1 0 -2 1l-31 31l-23 21zM249 699q-1 -2 -2 -8l-7 -37q-2 -12 -4 -19q-1 -7 -11 -45l-42 -174q-5 -18 -8 -32l-9 -32l-53 -213q-5 -14 -6 -26l-18 -79q-5 -19 -7 -30
q-4 -13 -18 -11q-13 4 -11 18l31 121l51 221q-1 0 -1 1q1 -1 -2 5l-9 23l-26 77q-12 36 -20 64l-5 17q-3 9 -5 16q-5 14 -10 32l-9 29q0 3 -2 7q-1 5 -2 7l-24 66q-5 14 9 19q14 6 18 -9q1 0 1 -1l16 -54q2 -3 4 -13q4 -7 5 -13l75 -211q0 -1 1 -2l30 133l24 96q3 11 10 34
q0 3 2 7l7 23q5 12 18 9q11 -5 9 -16z" />
    <glyph glyph-name="Ydieresis" unicode="&#x178;" horiz-adv-x="260" 
d="M71 774q-1 10 6 18q5 5 15 5q17 0 27 -15q-1 1 3 -10q-1 -14 -13 -17q-14 -3 -26 2q-11 5 -12 17zM152 774q-1 10 5 18q5 5 16 5q16 0 26 -15q-1 1 3 -10q-1 -14 -12 -17q-15 -3 -26 2t-12 17zM249 699q-1 -2 -2 -8l-7 -37q-2 -12 -4 -19q-1 -7 -11 -45l-42 -174
q-5 -18 -8 -32l-9 -32l-53 -213q-5 -14 -6 -26l-18 -79q-5 -19 -7 -30q-4 -13 -18 -11q-13 4 -11 18l31 121l51 221q-1 0 -1 1q1 -1 -2 5l-9 23l-26 77q-12 36 -20 64l-5 17q-3 9 -5 16q-5 14 -10 32l-9 29q0 3 -2 7q-1 5 -2 7l-24 66q-5 14 9 19q14 6 18 -9q1 0 1 -1
l16 -54q2 -3 4 -13q4 -7 5 -13l75 -211q0 -1 1 -2l30 133l24 96q3 11 10 34q0 3 2 7l7 23q5 12 18 9q11 -5 9 -16z" />
    <glyph glyph-name="circumflex" unicode="&#x2c6;" horiz-adv-x="193" 
d="M181 772q14 -12 3 -24q-11 -14 -24 -3q-1 0 -2 1l-31 31l-23 21l-66 -50q-11 -9 -20 2t2 20l75 57q10 8 17 -1l42 -34q3 -3 9 -7z" />
    <glyph glyph-name="dotaccent" unicode="&#x2d9;" horiz-adv-x="71" 
d="M58 782q-10 15 -26 15q-11 0 -16 -5q-6 -8 -5 -18q1 -12 12 -17t26 -2q11 3 12 17q-3 11 -3 10z" />
    <glyph glyph-name="ring" unicode="&#x2da;" horiz-adv-x="163" 
d="M153 651q0 8 -1 14q0 11 -5 22l-7 13q-6 7 -14 11q-6 4 -16 7q-12 2 -17 2h-18q-12 -2 -18 -4l-10 -4q-5 -2 -10 -5q-9 -7 -15 -18q-3 -6 -8 -20q-2 -6 -4 -20l1 -10l3 -11q3 -11 7 -20l5 -11q4 -6 7 -9t9 -7l11 -5q8 -3 20 -5l18 1q12 2 18 4q8 3 16 8q4 3 12 11
q3 4 7 12t6 22zM130 643q0 -6 -1 -11q0 -7 -5 -15q-3 -6 -12 -12l-10 -4l-23 1l-15 3l-10 6q-6 4 -8 8q-3 6 -3 14l1 14h1q0 1 -1 1l-1 16q0 10 2 14q1 5 6 10q8 4 12 5t14 1h14q5 0 13 -2l10 -3l11 -12q2 -5 4 -15z" />
    <glyph glyph-name="tilde" unicode="&#x2dc;" horiz-adv-x="201" 
d="M195 787l-1 -4l-9 -17l-10 -13q-8 -8 -17 -12q-6 -4 -12 -4q-2 -1 -6 -1h-7q-8 2 -13 4t-11 8q-9 8 -15 15l-12 15l-4 2q-4 0 -8 -4q-3 -2 -9 -8l-12 -16l-3 -7q-7 -16 -23 -6q-14 9 -6 24q1 0 2 2l21 23q4 4 14 12l10 5q6 3 13 3h4q2 0 4 -1q3 0 7 -2q7 -3 11 -7l15 -15
q8 -9 11 -11l4 -3l5 -1q1 0 2 1q3 0 4 1q2 1 7 6q3 3 5 7l6 13q6 17 21 12q18 -5 12 -21z" />
    <glyph glyph-name="hungarumlaut" unicode="&#x2dd;" horiz-adv-x="275" 
d="M24 761q-14 -10 -5 -24q9 -16 24 -5l50 32q-7 -3 19 10q7 3 17 9l17 9q12 7 5 19q-7 11 -19 6l-16 -10q-9 -3 -17 -9l-38 -21q-3 -2 -9 -4zM142 761q-14 -10 -5 -24q9 -16 24 -5l50 32q-7 -3 19 10q7 3 17 9l17 9q12 7 5 19q-7 11 -19 6l-16 -10q-9 -3 -17 -9l-38 -21
q-3 -2 -9 -4z" />
    <glyph glyph-name="uni0401" unicode="&#x401;" horiz-adv-x="218" 
d="M189 26q13 0 13 -14q0 -13 -14 -13l-162 1q-11 0 -11 12l3 217l-2 84q-1 14 -1 43q0 14 2 42t2 42l-1 127l4 127q0 9 10 11l114 11l38 5q17 2 19 -15q4 -17 -15 -19l-143 -4l1 -180l-1 -21q-2 -28 -2 -42q0 -28 1 -42q1 -9 1 -27l28 -2l77 4q15 2 15 -13q2 -15 -14 -15
q-7 -1 -17 -1l-69 -3l-20 -4q0 -16 -1 -24l-3 -42l-1 -42q-1 -14 -1 -43v-163zM130 771q2 -14 13 -17q14 -5 26 2q11 4 12 16q1 11 -6 18q-5 6 -15 6q-18 -2 -27 -16zM34 771q2 -14 13 -17q15 -3 26 2t12 17q1 10 -6 18q-5 5 -15 5q-17 0 -27 -15q1 1 -3 -10z" />
    <glyph glyph-name="uni0410" unicode="&#x410;" horiz-adv-x="229" 
d="M214 237l-2 -166q0 -35 -1 -46v-17q0 -13 -14 -13t-14 14q1 6 1 17l4 118l2 193q-5 0 -7 1q0 1 -2 1l-4 1q-2 1 -7 1q-3 1 -10 1l-116 -3l-3 -46q-1 -9 -1 -27v-26q0 -37 2 -93l3 -72q3 -57 3 -46l2 -16q0 -17 -16 -19q-17 0 -19 16v137l2 175q0 19 1 29q0 19 2 61l5 63
q2 21 8 65q4 22 7 33q4 22 7 33l14 51l6 17q9 19 20 33q10 10 18 13q5 4 11 5l12 1q11 0 23 -5q9 -5 18 -14l11 -17q6 -12 8 -18q8 -23 14 -69q3 -27 8 -132q2 -86 2 -124q1 -19 1 -57q0 -36 1 -53zM190 372l-1 98l-3 65q0 12 -2 32l-5 33q-4 22 -7 32q-2 11 -10 31
q-7 16 -15 24q-3 3 -9 7q-6 2 -10 2l-10 -3q-3 -1 -9 -7q-9 -7 -17 -24q-5 -9 -13 -29q-7 -21 -5 -16l-10 -48q0 -5 -2 -16l-9 -81q-6 -68 -8 -100l125 -3z" />
    <glyph glyph-name="uni0411" unicode="&#x411;" horiz-adv-x="236" 
d="M197 177q0 13 -2 35q-2 24 -5 36q-3 18 -10 33q-7 17 -16 29q-11 13 -25 21t-31 11q-15 4 -35 4q-9 1 -26 1l4 -207l-4 -118l24 -4q18 -2 33 1q18 2 31 9q17 8 26 19q11 12 18 27q8 16 11 32q5 19 6 35zM48 368l24 1l56 -9q13 -5 22 -10q19 -9 31 -26q14 -17 21 -34
q6 -14 11 -38q4 -17 6 -37q2 -26 2 -38l-1 -38q-1 -11 -5 -38q-5 -20 -13 -38q-7 -16 -22 -33q-12 -14 -33 -25q-16 -10 -39 -13q-27 -2 -40 0q-7 0 -29.5 6t-22.5 15l3 42l3 86l1 107v87l-1 21q0 22 -3 44l-3 43v44q2 14 2 21l1 22q-2 28 -2 43q-1 8 -1 22l-1 65v36
q0 3 1 5v4q0 15 14 13l42 -3l93 -2l30 -2q14 -2 12 -15q-2 -11 -13 -13l-72 2l-62 5h-15l2 -116q-2 -29 -1 -44q0 -14 1 -21q0 -8 2 -22q1 -7 1 -22v-22q0 -15 -2 -43v-32z" />
    <glyph glyph-name="uni0412" unicode="&#x412;" horiz-adv-x="236" 
d="M221 177l-1 -38q-1 -11 -5 -38q-5 -20 -13 -38q-7 -16 -22 -33q-12 -14 -33 -25q-16 -10 -39 -13q-27 -2 -40 0q-7 0 -19 2l-25 7q-8 3 -8 12l3 42l3 86l2 213q0 28 -1 42l-8 300q0 9 8 11l19 7l19 3q7 1 20 1q6 0 20 -2q8 -1 19 -5q11 -3 18 -8q9 -4 17 -11l15 -14
q12 -14 22 -33q3 -6 7 -18l6 -18q6 -24 7 -37q1 -3 1 -9q1 -3 1 -9q1 -6 1 -19v-50l-4 -24q-3 -19 -12 -37q-7 -17 -22 -32q-14 -15 -31 -24q-12 -6 -18 -8q13 -5 22 -10q19 -9 31 -26q14 -17 21 -34q6 -14 11 -38q4 -17 6 -37q2 -26 2 -38zM43 687q1 -12 1 -34l3 -285l25 1
q11 1 33 5q18 5 31 12q18 11 26 20q11 13 17 27l6 16l3 16q1 3 1 8l1 26l-7 69q-4 22 -7 33l-11 32q-6 15 -16 28q-3 4 -10 11q-5 6 -13 10q-4 3 -14 7l-15 3q-10 2 -16 1q-11 0 -16 -1zM197 177q0 13 -2 35q-2 24 -5 36q-3 18 -10 33q-7 17 -16 29q-11 13 -25 21t-31 11
q-15 4 -35 4q-9 1 -26 1l4 -207v-118l20 -4q18 -2 33 1q18 2 31 9q17 8 26 19q11 12 18 27q8 16 11 32q5 19 6 35z" />
    <glyph glyph-name="uni0413" unicode="&#x413;" horiz-adv-x="222" 
d="M207 696q-2 -11 -13 -13l-72 2l-62 5h-15q1 -10 1 -29l1 -87q-2 -29 -1 -44q0 -14 1 -21q0 -8 2 -22q1 -7 1 -22v-22q0 -15 -2 -43l6 -391q0 -16 -15 -16q-16 0 -16 16v326l-1 21q0 22 -3 44l-3 43v44q2 14 2 21l1 22q-2 28 -2 43q-1 8 -1 22l-1 65q0 29 1 44v1
q0 15 14 13l42 -3l93 -2l30 -2q14 -2 12 -15z" />
    <glyph glyph-name="uni0414" unicode="&#x414;" horiz-adv-x="296" 
d="M118 690l2 -211q-1 -20 0 -56l1 -56q-1 -46 -2 -56l-5 -56l-1 -56q1 -18 -3 -66q-3 -38 -6 -57q-3 -22 -27 -47l118 -3l27 1l3 55l3 86q0 15 1 22l-2 65v97l2 32v22q0 14 -1 21l-1 11l1 75l2 22q2 28 2 43v117zM44 28q3 5 24 26l6 26q1 5 1 14l2 13q1 5 1 14l8 106l2 56
q-2 18 -1 28q-1 10 0 56l5 56q3 36 4 56l-7 111l1 98l-25 -3q-16 0 -16 15q-1 16 16 16h23l155 3q12 0 12 -12l-2 -65v-86l4 -64v-22q0 -14 -1 -21l-3 -43l2 -108l-4 -108l2 -108l2 -54l28 1q12 -1 12 -12v-112q0 -14 -13 -13q-14 0 -14 13l4 94l-129 2l-21 -1l-100 -3
l-5 -88q-2 -19 -19 -15q-17 2 -15 19l5 38l12 64q2 10 11 10z" />
    <glyph glyph-name="uni0415" unicode="&#x415;" horiz-adv-x="218" 
d="M189 26q13 0 13 -14q0 -13 -14 -13l-162 1q-11 0 -11 12l3 217l-2 84q-1 14 -1 43q0 14 2 42t2 42l-1 127l4 127q0 9 10 11l114 11l38 5q17 2 19 -15q4 -17 -15 -19l-143 -4l1 -180l-1 -21q-2 -28 -2 -42q0 -28 1 -42q1 -9 1 -27l28 -2l77 4q15 2 15 -13q2 -15 -14 -15
q-7 -1 -17 -1l-69 -3l-20 -4q0 -16 -1 -24l-3 -42l-1 -42q-1 -14 -1 -43v-163z" />
    <glyph glyph-name="uni0416" unicode="&#x416;" horiz-adv-x="435" 
d="M203 329l-39 13l-107 -339q-6 -16 -22 -11q-14 7 -9 22l117 362l-101 267l-14 35q-2 9 4 13q9 8 17 -2l127 -313l28 -10v65l-3 237q0 19 -1 30q0 17 17 17t17 -16l-3 -291l-1 -8q0 -20 1 -31v-2l26 6l126 311q8 10 17 2q6 -4 4 -13l-113 -297l117 -362q5 -15 -9 -22
q-16 -5 -22 11l-107 339l-38 -12l1 -40l-1 -2v-5q0 -21 1 -32l2 -37l-2 -43q-1 -9 -1 -26l1 -133q2 -16 -15 -16q-15 -2 -17 16l1 30q1 9 1 34v82l-1 13q-1 10 -1 29q-1 9 -1 29l2 22q1 21 1 42v36z" />
    <glyph glyph-name="uni0417" unicode="&#x417;" horiz-adv-x="268" 
d="M253 573l-1 -30q0 -7 -1 -11q-1 -8 -5 -19q0 -3 -6 -20q-7 -17 -22 -36q-14 -16 -33 -26q-5 -3 -20 -9q1 0 2 -1l18 -11l23 -23l7 -11q8 -11 12 -22q10 -24 14 -47q5 -24 6 -47q2 -32 2 -47q1 -8 1 -23l-1 -24q0 -9 -2 -23q0 -12 -3 -24q-1 -8 -5 -24q-3 -14 -8 -23
q-5 -14 -11 -22q-5 -9 -16 -20t-21 -16q-16 -8 -24 -10q-16 -4 -25 -4q-3 -1 -12 -1t-13 1q-15 2 -26 7q-12 4 -23 14q-8 7 -17 21q-7 12 -11 23q-8 27 -11 48q-2 32 -2 48q0 13 14 13q14 2 14 -13q0 -30 1 -45q4 -28 9 -42q9 -23 20 -34q13 -13 35 -15q3 -1 10 -1h10l21 3
q22 7 35 20q14 14 23 34q9 27 7 20l5 22q3 14 5 44l1 46l-3 45q-1 21 -8 44q-3 16 -15 41q-11 19 -25 33l-24 18l-5 2q-2 2 -4 2q-22 10 -40 14h-2q-12 4 -9 15q2 12 12 10q19 0 35 3l17 5q5 2 15 8q14 10 24 22q5 5 9 13q3 4 4 8q2 2 2 4l2 4q6 15 9 33q2 12 2 17l1 18
q-2 24 -4 35q-4 22 -8 34l-12 22q-2 3 -6 7q-11 13 -27 17q-1 1 -3 1q-2 1 -4 1l-8 2l-15 1l-2 -1q-14 0 -32 -7q0 -1 -1 -1l-12 -8l-9 -8l-2 -4q-11 -13 -17 -29l-6 -16q-2 -5 -4 -17l-3 -17q-1 -3 -1 -9v-8q-2 -19 -18 -17q-17 0 -17 17l3 22l11 39q3 9 8 19l5 9q1 3 5 9
q6 9 13 16q14 17 34 26q21 9 42 9l21 -1l18 -5q2 0 3 -1q6 -2 9 -4l16 -10q2 -1 2 -2l4 -4q3 -1 4 -4q3 -2 7 -8l6 -8q4 -6 10 -18q8 -17 13 -39q4 -26 4 -39z" />
    <glyph glyph-name="uni0418" unicode="&#x418;" horiz-adv-x="238" 
d="M28 699q2 17 16 15q16 0 16 -15l-11 -565l6 29q2 14 4 21l20 109q2 14 4 21l9 43l31 129l44 216q4 13 16 13q16 0 16 -16l1 -302l10 -388q0 -17 -17 -17q-16 0 -16 17v129l-3 259q0 28 -1 43l-4 126l-19 -86q-2 -7 -4 -21l-11 -66l-19 -86l-31 -128q-4 -15 -10 -43
l-29 -130q-2 -9 -11 -9q-12 0 -12 12z" />
    <glyph glyph-name="uni0419" unicode="&#x419;" horiz-adv-x="238" 
d="M28 699q2 17 16 15q16 0 16 -15l-11 -565l6 29q2 14 4 21l20 109q2 14 4 21l9 43l31 129l44 216q4 13 16 13q16 0 16 -16l1 -302l10 -388q0 -17 -17 -17q-16 0 -16 17v129l-3 259q0 28 -1 43l-4 126l-19 -86q-2 -7 -4 -21l-11 -66l-19 -86l-31 -128q-4 -15 -10 -43
l-29 -130q-2 -9 -11 -9q-12 0 -12 12zM52 801q8 13 19 3q1 0 1 -1q43 -40 97 -2q9 9 17 -2q7 -11 -2 -20l-10 -10q-59 -35 -113 1q-2 3 -7 7q-11 11 -2 24z" />
    <glyph glyph-name="uni041A" unicode="&#x41a;" horiz-adv-x="250" 
d="M234 14q5 -15 -9 -22q-16 -5 -22 11l-20 63l-47 127l-19 45q-2 3 -4 9q0 2 -2 5l-45 115q-3 -4 -4 -8q-6 -10 -9 -18l-6 -13v-5q0 -21 1 -32l2 -77l-2 -43q-1 -9 -1 -26l1 -133q2 -16 -15 -16q-15 -2 -17 16l1 30q1 9 1 34v82l-1 13q-1 10 -1 29q-1 9 -1 29l2 62
q1 11 1 32l1 158l-3 187q0 19 -1 30q0 17 17 17t17 -16l-3 -241l-1 -8q0 -20 1 -31l1 -32l113 236l48 83q8 10 17 2q6 -4 4 -13l-14 -35l-24 -53l-16 -31q-5 -11 -17 -33l-18 -34q-2 -5 -9 -17l-46 -87l1 -1q3 -3 6 -11q6 -12 9 -20l15 -39q-2 5 5 -16l24 -69q6 -21 13 -38z
" />
    <glyph glyph-name="uni041B" unicode="&#x41b;" horiz-adv-x="284" 
d="M2 42q-6 12 5 19q13 7 21 -4l1 -2q-1 -1 2 -4l4 -8q6 -7 11 -10q9 -4 13.5 -3t3.5 0q10 3 14 12q4 6 8 22l5 26q1 5 1 14l1 13q1 5 1 14l5 96v56q-2 18 -2 28q-1 10 -1 56l3 56q2 36 2 56v111l-2 98l-35 -3q-16 0 -16 15q-2 16 15 16h54l135 3q12 0 12 -12l-2 -65v-86
l4 -64v-22q0 -14 -1 -21l-3 -43l2 -108l-4 -108l2 -108l3 -65q0 -16 -16 -18q-17 0 -19 17l4 66l3 86q0 15 1 22l-2 65v97l2 32v22q0 14 -1 21l-1 11l1 75l2 22q2 28 2 43v117l-114 -6l-2 -210q0 -20 2 -56l3 -56q0 -46 -1 -56l-3 -56l1 -56q1 -18 -1 -56t-5 -57
q-5 -27 -6 -29q-5 -17 -14 -30q-4 -7 -12 -13t-16 -9q-6 -4 -23 -2q-10 3 -16 7q-13 7 -23 20z" />
    <glyph glyph-name="uni041C" unicode="&#x41c;" horiz-adv-x="284" 
d="M265 13q2 -16 -15 -16q-14 -2 -16 15l-16 579l-19 -102l-47 -271q-4 -16 -20 -14q-13 4 -14 14q-4 20 -5 30q-4 20 -5 30q-4 21 -10 61q-1 10 -5 30l-7 45l-27 137l-4 -107q-1 -29 -1 -87l-3 -344q0 -16 -16 -16q-15 0 -15 16l9 388l-1 129q1 29 1 86l1 86q0 16 17 16
q14 0 16 -13l31 -181q6 -40 10 -60l17 -90l14 -64l46 214l35 180q2 12 13 10q10 -2 10 -11z" />
    <glyph glyph-name="uni041D" unicode="&#x41d;" horiz-adv-x="249" 
d="M236 703l-5 -66l-2 -81l2 -42v-60q-2 -20 -2 -31q-2 -15 0 -31l2 -32q0 -22 -1 -32l-3 -32q-1 -10 -1 -31l1 -139q0 -64 1 -107q0 -14 -14 -14t-14 14l5 246q0 21 -1 31q0 10 -2 32l-1 15l-42 -2l-63 2l-15 -1q-8 0 -12 -1q-8 0 -11 -1h-3q-1 -6 -1 -18q-2 -20 -2 -31
q-1 -11 -1 -31l7 -246q2 -14 -13 -14q-14 0 -14 13v246l-1 16q-1 10 -1 15l-3 32q-1 5 -1 16l-1 16q0 11 2 31q1 17 0 32l-2 46v112l-7 118q-2 17 16 19q17 2 19 -15l-4 -87l3 -177v-16q-1 -10 1 -31l2 -18l42 -3h32l31 2l42 -2q0 9 2 27q2 14 1 31l-1 62q0 20 1 29l2 80
q-1 8 -1 23l-2 39l-2 45q-2 16 16 18q17 2 19 -16z" />
    <glyph glyph-name="uni041E" unicode="&#x41e;" horiz-adv-x="225" 
d="M94 717q-13 -2 -25 -8q-4 -2 -14 -10q-9 -9 -12 -14q-9 -14 -16 -37q-6 -28 -7 -43q-5 -39 -5 -101q0 -76 1 -118q0 -86 1 -132q0 -46 1 -69q0 -24 2 -72q2 -26 4 -37q2 -12 4 -19q3 -11 7 -20q6 -12 13 -19q5 -5 9 -7q5 -5 10 -6q4 -2 21 -7l11 -1q7 0 10 -1q26 2 42 10
q9 4 18 13q8 8 13 18q7 12 13 38q3 10 7 37l2 18q2 12 2 18q2 24 2 36q1 6 1 18l1 52l-1 131q-2 42 -2 61v110q0 18 -2 48q-1 22 -6 43q-3 21 -13 38l-12 15q-10 8 -15 10q-12 6 -25 8q-7 1 -15 1zM118 685q7 0 11 -1q9 0 16 -3q8 -5 14 -13q7 -12 11 -28t6 -39q2 -14 4 -46
q1 -9 1 -26l1 -83q1 -20 -1 -61l-2 -165q0 -23 -1 -35q0 -47 -3 -70q-2 -23 -5 -34q-6 -22 -12 -30q-2 -4 -4 -6q-2 -3 -5 -5q-3 -3 -11 -7q-6 -3 -13 -3l-16 -1q-19 0 -30 4l-10 6q-2 1 -9 11q-6 12 -10 31q-1 3 -6 34q-2 22 -4 70v69q0 90 1 132q0 45 2 117q2 61 7 98
q4 26 7 38t12 28q7 9 16 13q7 4 15 4q4 1 10 1h8z" />
    <glyph glyph-name="uni041F" unicode="&#x41f;" horiz-adv-x="226" 
d="M197 719q12 0 12 -12l-2 -65v-86l4 -64v-22q0 -14 -1 -21l-3 -43l2 -108l-4 -108l2 -108l3 -65q0 -16 -16 -18q-17 0 -19 17l4 66l3 86q0 15 1 22l-2 65v97l2 32v22q0 14 -1 21l-1 11l1 75l2 22q2 28 2 43v117l-123 -6q-4 -1 -7 0l-1 -21q-2 -18 -2 -33l-2 -44l2 -80v-61
q0 -9 -2 -31q0 -21 1 -32l3 -32l-1 -16q-1 -10 -1 -16q-2 -22 -2 -32q-1 -10 -1 -31l3 -248q0 -12 -14 -14q-14 0 -14 14l4 248q0 21 -1 31q-2 22 -2 32q-2 22 -2 32q0 12 2 32q1 11 1 32l-2 62l2 98l-4 104q-17 -2 -19 16q-2 17 17 19z" />
    <glyph glyph-name="uni0420" unicode="&#x420;" horiz-adv-x="214" 
d="M199 554v-36q0 -48 -2 -72q-5 -34 -6 -37q-3 -21 -13 -37q-4 -8 -13 -17q-5 -5 -8 -7l-9 -6q-12 -6 -19 -7q-12 -4 -19 -4q-19 -3 -37 -3h-28l-2 -59l6 -237q0 -14 1 -21q2 -18 -16 -18q-18 -2 -18 16l4 260l-3 173l2 129q0 15 -2 43q0 15 -2 43v44q0 12 12 14l3 1h17
q13 0 20 -1q19 -2 37 -9q6 -2 18 -8q9 -5 16 -10q10 -7 15 -13q5 -4 13 -14q6 -9 10 -17q5 -9 8 -17q5 -12 11 -36q2 -11 4 -37zM177 553l-3 34l-4 17q0 2 -2 8l-3 7q-6 16 -16 29q-8 12 -23 22q-7 5 -14 8l-15 6q-22 4 -32 4h-18q-1 -1 -2 -1v-30q0 -13 -2 -43v-43
q0 -29 1 -43l1 -21v-151l28 -1q23 0 33 2q20 2 30 8q12 5 20 20q8 12 11 29q-1 -2 6 34q2 22 4 70v35z" />
    <glyph glyph-name="uni0421" unicode="&#x421;" horiz-adv-x="244" 
d="M228 167q-2 18 -19 16t-15 -20v-2q0 -5 1 -9q0 -21 -1 -36l-4 -24q-4 -20 -8 -28q-5 -11 -7 -13q-2 -5 -9 -12q-13 -13 -28 -14l-19 -1l-19 3q-12 4 -17 8q-7 4 -12 14l-5 9l-1 5q-1 4 -2 5q-4 10 -6 22q-3 18 -7 49l-3 51q0 9 -2 27l-2 27v54q2 36 2 55l-2 109
q0 36 1 53q2 34 4 52q0 13 3 25q2 16 4 24q5 28 14 44q6 12 11 16q5 6 14 10q13 6 37 4q20 -2 33 -9q13 -6 21 -19q6 -10 10 -25l5 -25q3 -45 2 -36l-1 -13q0 -13 14 -13t14 13v14q0 22 -3 39q-1 12 -6 27q-3 15 -14 33q-3 5 -13 15q-6 6 -18 13q-18 8 -43 10h-22
q-13 -2 -25 -6q-13 -6 -23 -16q-6 -7 -14 -23l-9 -24q-4 -16 -5 -25q-2 -9 -4 -25l-3 -26q-2 -17 -4 -53l-8 -136v-27l3 -55q1 -18 1 -55v-54l3 -53q2 -17 8 -51q1 -6 8 -26q5 -13 12 -23q11 -14 20 -20q11 -8 24 -11q8 -2 24 -4l17 -1q2 1 6 1t12 2t11 4q11 5 19 13
q8 6 14 16q6 9 10 17q8 18 11 32q5 15 6 27q3 17 3 39v15z" />
    <glyph glyph-name="uni0422" unicode="&#x422;" horiz-adv-x="209" 
d="M199 692l-22 1l-39 -1q-10 0 -16 -1l-1 -23q-2 -18 -2 -33l-2 -44l2 -80v-61q0 -9 -2 -31q0 -21 1 -32l3 -32l-1 -16q-1 -10 -1 -16q-2 -22 -2 -32q-1 -10 -1 -31l3 -248q0 -12 -14 -14q-14 0 -14 14l4 248q0 21 -1 31q-2 22 -2 32q-2 22 -2 32q0 12 2 32q1 11 1 32
l-2 62l2 98l-4 110l-70 -6q-17 -2 -19 16q-2 17 17 19h41l107 5q7 0 11 1l16 2q16 4 20 -13q3 -17 -13 -21z" />
    <glyph glyph-name="uni0423" unicode="&#x423;" horiz-adv-x="257" 
d="M249 699q-1 -2 -2 -8l-7 -37q-2 -12 -4 -19q-1 -7 -11 -45l-42 -174q-5 -18 -8 -32l-9 -32l-53 -213q-5 -14 -6 -26l-18 -79q-5 -19 -7 -30q-4 -13 -18 -11q-13 4 -11 18l31 121l51 221q-1 0 -1 1q1 -1 -2 5l-9 23l-26 77q-12 36 -20 64l-5 17q-3 9 -5 16q-5 14 -10 32
l-9 29q0 3 -2 7q-1 5 -2 7l-24 66q-5 14 9 19q14 6 18 -9q1 0 1 -1l16 -54q2 -3 4 -13q4 -7 5 -13l75 -211q0 -1 1 -2l30 133l24 96q3 11 10 34q0 3 2 7l7 23q5 12 18 9q11 -5 9 -16z" />
    <glyph glyph-name="uni0424" unicode="&#x424;" horiz-adv-x="363" 
d="M151 743v2q0 19 16 17q19 -1 19 -20q-1 -33 -2 -38q1 0 1 -1l18 -1q52 0 85 -27q7 -6 13 -16q9 -13 16 -38q6 -28 6 -39q2 -13 4 -38q1 -13 1 -29v-48q-2 -27 -4 -38q-1 -6 -1 -11l-9 -28q-7 -20 -19 -35q-9 -12 -28 -26q-10 -6 -17 -8q-11 -4 -17 -5q-14 -4 -34 -4
q-11 0 -17 1l-1 -34l4 -270q0 -18 -18 -16q-18 0 -16 18q1 7 1 21l6 247l-2 37q-53 -2 -100 29q-9 9 -13 17q-10 16 -13 37q-1 3 -6 37q-2 24 -2 82v26q2 26 4 37q6 24 11 36q3 8 8 17q4 8 10 17q8 10 13 14q13 29 66 40q7 1 20 1q-2 32 -3 37zM184 340q3 -1 8 -1l8 -2
q16 -2 30 2l15 4q7 1 13 6q14 8 23 21q7 8 16 29q6 15 8 34q3 16 3 35l-1 47q-2 40 -4 64q-3 16 -8 34q-3 16 -12 30q-6 8 -9 11q-7 6 -12 9q-8 5 -28 9q-20 2 -31 2l-17 -1v-26q-2 -28 -2 -43q-2 -28 -2 -43l2 -129l-2 -91zM154 598l1 79l-1 1h-18q-39 0 -64 -40
q-10 -13 -16 -29l-3 -7q-2 -6 -2 -8l-4 -17l-3 -34v-25q2 -58 4 -80q7 -36 6 -34q3 -17 11 -29q42 -37 89 -31l-1 21q0 39 1 54q2 29 2 45z" />
    <glyph glyph-name="uni0425" unicode="&#x425;" horiz-adv-x="240" 
d="M142 351l35 -118q12 -40 17 -59q8 -24 15 -52q2 -5 13 -45l11 -47q4 -16 2 -10q1 -2 1 -6q0 -1 1 -2q2 -14 -11 -16q-12 -4 -16 9l-21 63l-64 224l-52 -179l-12 -45q-5 -23 -9 -34l-8 -30q-4 -15 -18 -10q-13 3 -10 18l36 121l26 99q23 84 31 118l-63 228l-36 120
q-5 14 9 18q14 3 19 -10l30 -109q4 -16 7 -25q2 -9 8 -27l42 -139l5 19q6 26 17 62q9 39 16 59l15 53q8 29 13 44l21 64q5 12 18 8q11 -5 9 -16l-28 -110l-32 -111q-8 -32 -18 -62z" />
    <glyph glyph-name="uni0426" unicode="&#x426;" horiz-adv-x="258" 
d="M232 -105q1 10 0 21l-3 27l-26 -36l-8 -9q-5 -7 -7 -10l-3 -5l-1 -4v-12q-1 0 1 -2q-1 0 0 -2l3 -3q3 -1 11 -1q20 -1 26 10.5t7 25.5zM246 -5q16 18 26.5 12.5t0.5 -24.5l-22 -19q3 -19 2 -38q1 -16 0 -32q-1 -18 -6 -32q-9 -20 -23 -25l-6 -2v1l-4 -2h-20q-5 0 -10 1
l-8 3l-3 1q-5 4 -7 8q-1 0 -3 4l-1 5q-1 4 -2 10v9l3 10q0 1 1 2l2 9q3 5 11 16l8 12l3 3l11 15q2 1 24 36l-1 22q-3 -1 -7 -1l-176 -1q-12 0 -12 12l2 65v86l-4 64v22q0 14 1 21l3 43l-2 108l4 108l-2 108l-3 65q0 16 16 18q17 0 19 -17l-4 -66l-3 -86q0 -15 -1 -22l2 -65
v-97l-2 -32v-22q0 -14 1 -21l1 -11l-1 -75l-2 -22q-2 -28 -2 -43v-117l123 6q4 1 7 0l1 21q2 18 2 33l2 44l-2 80v61q0 9 2 31q0 21 -1 32l-3 32l1 16q1 10 1 16q2 22 2 32q1 10 1 31l-3 248q0 12 14 14q14 0 14 -14l-4 -248q0 -21 1 -31q2 -22 2 -32q2 -22 2 -32
q0 -12 -2 -32q-1 -11 -1 -32l2 -62l-2 -98l4 -107q6 2 10 1h13q9 2 10 -8v-29z" />
    <glyph glyph-name="uni0427" unicode="&#x427;" 
d="M190 356q0 -11 2 -32q2 -22 2 -33q1 -10 1 -32l-3 -250q0 -15 14 -15q13 0 13 15l-3 250q0 22 1 32q0 11 2 33q2 21 2 32q0 10 -2 32q-3 14 -1 33l1 77v4q1 15 1 23v110q3 53 2 46v17q0 17 -18 17t-16 -18v-203q-2 -42 -5 -65l-3 -16q0 -2 -2 -7l-2 -8q-7 -17 -13 -27
q-7 -11 -19 -18l-12 -3l-17 -1l-9 2q-8 2 -11 5q-11 6 -19 19q-8 14 -12 29l-5 15l-3 16q-6 31 -9 64l2 204q0 17 -17 17t-17 -17l7 -156q0 -11 1 -16q0 -11 2 -33q4 -47 7 -67q8 -46 20 -69q4 -8 10 -17l15 -15q9 -6 20 -9q-1 1 10 -3l16 -2l15 2q9 3 20 8q10 6 17 14
q8 8 12 16q1 3 3 6v-6z" />
    <glyph glyph-name="uni0428" unicode="&#x428;" horiz-adv-x="314" 
d="M156 -1l-117 -1q-12 0 -12 12l2 65v86l-4 64v22q0 14 1 21l3 43l-2 108l4 108l-2 108l-3 65q0 16 16 18q17 0 19 -17l-4 -66l-3 -86q0 -15 -1 -22l2 -65v-97l-2 -32v-22q0 -14 1 -21l1 -11l-1 -75l-2 -22q-2 -28 -2 -43v-117l85 6q4 1 7 0l1 21q2 18 2 33l2 44l-2 80v61
q0 9 2 31q0 21 -1 32l-3 32l1 16q1 10 1 16q2 22 2 32q1 10 1 31l-3 248q0 12 14 14q14 0 14 -14l-4 -248q0 -21 1 -31q2 -22 2 -32q2 -22 2 -32q0 -12 -2 -32q-1 -11 -1 -32l2 -62l-2 -98l2 -106h8l59 1q10 0 16 1l1 23q2 18 2 33l2 44l-2 80v61q0 9 2 31q0 21 -1 32l-3 32
l1 16q1 10 1 16q2 22 2 32q1 10 1 31l-3 248q0 12 14 14q14 0 14 -14l-4 -248q0 -21 1 -31q2 -22 2 -32q2 -22 2 -32q0 -12 -2 -32q-1 -11 -1 -32l2 -62l-2 -98l4 -110l2 -10q2 -17 -17 -19l-92 -6l-8 -1v-1h-8q-6 -1 -10 0z" />
    <glyph glyph-name="uni0429" unicode="&#x429;" horiz-adv-x="329" 
d="M304 -105q1 10 0 21l-3 27l-26 -36l-8 -9q-5 -7 -7 -10l-3 -5l-1 -4v-12q-1 0 1 -2q-1 0 0 -2l3 -3q3 -1 11 -1q20 -1 26 10.5t7 25.5zM156 -1l-117 -1q-12 0 -12 12l2 65v86l-4 64v22q0 14 1 21l3 43l-2 108l4 108l-2 108l-3 65q0 16 16 18q17 0 19 -17l-4 -66l-3 -86
q0 -15 -1 -22l2 -65v-97l-2 -32v-22q0 -14 1 -21l1 -11l-1 -75l-2 -22q-2 -28 -2 -43v-117l85 6q4 1 7 0l1 21q2 18 2 33l2 44l-2 80v61q0 9 2 31q0 21 -1 32l-3 32l1 16q1 10 1 16q2 22 2 32q1 10 1 31l-3 248q0 12 14 14q14 0 14 -14l-4 -248q0 -21 1 -31q2 -22 2 -32
q2 -22 2 -32q0 -12 -2 -32q-1 -11 -1 -32l2 -62l-2 -98l2 -106h8l59 1q10 0 16 1l1 23q2 18 2 33l2 44l-2 80v61q0 9 2 31q0 21 -1 32l-3 32l1 16q1 10 1 16q2 22 2 32q1 10 1 31l-3 248q0 12 14 14q14 0 14 -14l-4 -248q0 -21 1 -31q2 -22 2 -32q2 -22 2 -32q0 -12 -2 -32
q-1 -11 -1 -32l2 -62l-2 -98l4 -110l1 -5q5 2 9 1h9q9 2 10 -8v-29q16 18 26.5 12.5t0.5 -24.5l-22 -19q3 -19 2 -38q1 -16 0 -32q-1 -18 -6 -32q-9 -20 -23 -25l-6 -2v1l-4 -2h-20q-5 0 -10 1l-8 3l-3 1q-5 4 -7 8q-1 0 -3 4l-1 5q-1 4 -2 10v9l3 10q0 1 1 2l2 9q3 5 11 16
l8 12l3 3l11 15q2 1 24 36l-1 21h-138z" />
    <glyph glyph-name="uni042A" unicode="&#x42a;" horiz-adv-x="326" 
d="M286 177q0 13 -2 35q-2 24 -5 36q-3 18 -10 33q-7 17 -16 29q-11 13 -25 21t-31 11q-15 4 -35 4q-9 1 -26 1l4 -207l-4 -118l24 -4q18 -2 33 1q18 2 31 9q17 8 26 19q11 12 18 27q8 16 11 32q5 19 6 35zM15 688q-5 8 -5 10q-2 13 12 15l90 5q3 1 7 0q15 1 16 -28
q0 -174 1 -181q0 -8 2 -22q1 -7 1 -22v-22q0 -15 -2 -43v-32l24 1l56 -9q13 -5 22 -10q19 -9 31 -26q14 -17 21 -34q6 -14 11 -38q4 -17 6 -37q2 -26 2 -38l-1 -38q-1 -11 -5 -38q-5 -20 -13 -38q-7 -16 -22 -33q-12 -14 -33 -25q-16 -10 -39 -13q-27 -2 -40 0q-7 0 -29.5 6
t-22.5 15l3 42l3 86l1 107v87l-1 21q0 22 -3 44l-3 43v44q2 14 2 21l1 22q-2 28 -2 43q-1 8 -1 22l-1 65v27l-71 -2z" />
    <glyph glyph-name="uni042B" unicode="&#x42b;" horiz-adv-x="331" 
d="M204 177q0 13 -2 35q-2 24 -5 36q-3 18 -10 33q-7 17 -16 29q-11 13 -25 21t-31 11q-15 4 -35 4q-9 1 -26 1l4 -207l-4 -118l24 -4q18 -2 33 1q18 2 31 9q17 8 26 19q11 12 18 27q8 16 11 32q5 19 6 35zM53 690q0 -174 1 -181q0 -8 2 -22q1 -7 1 -22v-22q0 -15 -2 -43
v-32l24 1l56 -9q13 -5 22 -10q19 -9 31 -26q14 -17 21 -34q6 -14 11 -38q4 -17 6 -37q2 -26 2 -38l-1 -38q-1 -11 -5 -38q-5 -20 -13 -38q-7 -16 -22 -33q-12 -14 -33 -25q-16 -10 -39 -13q-27 -2 -40 0q-7 0 -29.5 6t-22.5 15l3 42l3 86l1 107v87l-1 21q0 22 -3 44l-3 43
v44q2 14 2 21l1 22q-2 28 -2 43q-1 8 -1 22l-1 65v36q0 3 1 5v4q0 15 14 13q15 1 16 -28zM307 706q-2 17 -19 17q-16 -2 -16 -21q1 -3 1 -7l3 -67l1 -80v-6q-1 -10 -1 -30l1 -91q1 -17 0 -33q-3 -16 -3 -32q0 -11 2 -32q2 -22 2 -33q1 -10 1 -32l-3 -250q0 -15 14 -15
q13 0 13 15l-3 250q0 22 1 32q0 11 2 33q2 21 2 32q0 10 -2 32q-3 14 -1 33l1 77l-2 71l3 87q0 11 1 17z" />
    <glyph glyph-name="uni042C" unicode="&#x42c;" horiz-adv-x="243" 
d="M204 177q0 13 -2 35q-2 24 -5 36q-3 18 -10 33q-7 17 -16 29q-11 13 -25 21t-31 11q-15 4 -35 4q-9 1 -26 1l4 -207l-4 -118l24 -4q18 -2 33 1q18 2 31 9q17 8 26 19q11 12 18 27q8 16 11 32q5 19 6 35zM53 690q0 -174 1 -181q0 -8 2 -22q1 -7 1 -22v-22q0 -15 -2 -43
v-32l24 1l56 -9q13 -5 22 -10q19 -9 31 -26q14 -17 21 -34q6 -14 11 -38q4 -17 6 -37q2 -26 2 -38l-1 -38q-1 -11 -5 -38q-5 -20 -13 -38q-7 -16 -22 -33q-12 -14 -33 -25q-16 -10 -39 -13q-27 -2 -40 0q-7 0 -29.5 6t-22.5 15l3 42l3 86l1 107v87l-1 21q0 22 -3 44l-3 43
v44q2 14 2 21l1 22q-2 28 -2 43q-1 8 -1 22l-1 65v36q0 3 1 5v4q0 15 14 13q15 1 16 -28z" />
    <glyph glyph-name="uni042D" unicode="&#x42d;" horiz-adv-x="244" 
d="M194 346l-14 -1q-14 -2 -24 -2l-107 2q-14 0 -14 -14q0 -13 14 -13l107 2q48 0 38 -2h6q0 -9 1 -20v-54l-2 -27q-2 -18 -2 -27l-3 -51q-4 -31 -7 -49q-2 -12 -6 -22q-1 -1 -2 -5l-1 -5l-5 -9q-5 -10 -12 -14q-5 -4 -17 -8l-19 -3l-19 1q-15 1 -28 14q-7 7 -9 12
q-2 2 -7 13q-4 8 -8 28l-4 24q-1 15 -1 36q1 4 1 9v2q2 18 -15 20t-19 -16l1 -1v-15q0 -22 3 -39q1 -12 6 -27q3 -14 11 -32q4 -8 10 -17q6 -10 14 -16q8 -8 19 -13q3 -2 11 -4t12 -2t6 -1l17 1q16 2 24 4q13 3 24 11q9 6 20 20q7 10 12 23q7 20 8 26q6 34 8 51l3 53v54
q0 37 1 55l3 55v27l-8 136q-2 36 -4 53l-3 26q-2 16 -4 25q-1 9 -5 25l-9 24q-8 16 -14 23q-10 10 -23 16q-12 4 -25 6h-22q-25 -2 -43 -10q-12 -7 -18 -13q-10 -10 -13 -15q-11 -18 -14 -33q-5 -15 -6 -27q-3 -17 -3 -39v-14q0 -13 14 -13t14 13l-1 13q-1 -9 2 36l5 25
q4 15 10 25q8 13 21 19q13 7 33 9q24 2 37 -4q9 -4 14 -10q5 -4 11 -16q9 -16 14 -44q2 -8 4 -24q3 -12 3 -25q2 -18 4 -52q1 -17 1 -53l-2 -109v-8z" />
    <glyph glyph-name="uni042E" unicode="&#x42e;" horiz-adv-x="360" 
d="M241 680q7 -2 14 -6q9 -6 16 -15q10 -14 15 -28q7 -14 12 -37q4 -15 10 -44l6 -51q2 -18 4 -56q1 -19 1 -60q-1 -10 -1 -31l-1 -32q0 -22 -2 -66l-4 -68q-2 -22 -4 -35q-1 -13 -5 -34q-3 -16 -9 -33l-6 -15q-7 -12 -9 -14q-4 -6 -10 -11q-3 -4 -11 -8l-13 -4
q-5 -1 -16 -1q-15 0 -26 7q-10 5 -21 20q-9 14 -15 30q-5 10 -11 32q-9 34 -12 68q-2 13 -4 35l-3 67v96q2 79 5 116q4 50 14 96q4 16 11 37q9 19 15 28q9 13 22 17h38zM98 345q-8 -1 -29 -1h-11v12q0 10 -2 32q-3 14 -1 33l1 77l-2 71l3 87q0 11 1 17l2 33q-2 17 -19 17
q-16 -2 -16 -21q1 -3 1 -7l3 -67l1 -80v-6q-1 -10 -1 -30l1 -91q1 -17 0 -33q-3 -16 -3 -32q0 -11 2 -32q2 -22 2 -33q1 -10 1 -32l-3 -250q0 -15 14 -15q13 0 13 15l-3 250q0 22 1 32q0 10 2 28h13q21 0 29 -1l16 -1q0 -21 2 -62q6 -86 17 -140l9 -36q7 -21 16 -35
q5 -10 12 -17q6 -7 16 -14l10 -6q15 -5 11 -4q2 -1 5 -1l16 -1q14 0 21 2q13 2 21 7q12 7 18 14q7 7 12 17q9 14 16 35q4 12 10 36q3 12 7 36q4 21 5 35l3 35q2 22 2 34q2 46 2 67l-1 64l-5 104q0 9 -1 14q-1 22 -5 52q-4 32 -8 48q-3 15 -11 41q-8 21 -18 35q-9 14 -23 24
q-10 7 -23 11h-23l-19 -2q-11 -2 -24 -9q-5 -2 -13 -9q-8 -8 -11 -13q-8 -10 -18 -34q-7 -19 -12 -42q-7 -30 -13 -99q-4 -49 -4 -118v-40z" />
    <glyph glyph-name="uni042F" unicode="&#x42f;" horiz-adv-x="227" 
d="M15 20l4 24l16 63l56 197q7 28 5 22q-1 -7 4 18l1 3q-16 4 -23 8q-11 6 -18 12q-8 6 -14 16q-10 12 -18 36q-6 27 -7 38q-2 13 -4 37q-1 12 -1 37v37q2 26 4 37q2 6 2 10l9 27q8 20 21 34q11 12 31 25q12 6 19 8q12 4 19 5q16 4 38 4q13 0 20 -1l20 -3q10 -2 10 -13
l1 -44q0 -28 -1 -43q-2 -28 -2 -43l2 -129l-1 -86q0 -29 -1 -44l-1 -21l3 -216l2 -43q0 -14 1 -21v-2q0 -18 -18 -16q-17 0 -17 18q2 28 2 43q1 14 1 43l3 172l-2 72h-27q-16 0 -25 1l-13 -45l-51 -213l-13 -48l-9 -28q-1 -3 -2 -4q-4 -10 -13 -8q-15 0 -13 14v10zM154 694
q-12 0 -34 -2q-22 -4 -31 -9q-5 -2 -13 -8q-4 -3 -10 -11q-10 -13 -14 -29q-5 -17 -8 -33q-3 -23 -5 -71l-1 -36q0 -18 3 -34q3 -18 9 -33q10 -20 18 -28q10 -12 25 -20q7 -5 15 -6l17 -4q15 -3 33 -1l9 1q5 0 8 1l5 2v75l3 43l-2 202z" />
    <glyph glyph-name="uni0430" unicode="&#x430;" horiz-adv-x="229" 
d="M214 237l-2 -166q0 -35 -1 -46v-17q0 -13 -14 -13t-14 14q1 6 1 17l4 118l2 193q-5 0 -7 1q0 1 -2 1l-4 1q-2 1 -7 1q-3 1 -10 1l-116 -3l-3 -46q-1 -9 -1 -27v-26q0 -37 2 -93l3 -72q3 -57 3 -46l2 -16q0 -17 -16 -19q-17 0 -19 16v137l2 175q0 19 1 29q0 19 2 61l5 63
q2 21 8 65q4 22 7 33q4 22 7 33l14 51l6 17q9 19 20 33q10 10 18 13q5 4 11 5l12 1q11 0 23 -5q9 -5 18 -14l11 -17q6 -12 8 -18q8 -23 14 -69q3 -27 8 -132q2 -86 2 -124q1 -19 1 -57q0 -36 1 -53zM190 372l-1 98l-3 65q0 12 -2 32l-5 33q-4 22 -7 32q-2 11 -10 31
q-7 16 -15 24q-3 3 -9 7q-6 2 -10 2l-10 -3q-3 -1 -9 -7q-9 -7 -17 -24q-5 -9 -13 -29q-7 -21 -5 -16l-10 -48q0 -5 -2 -16l-9 -81q-6 -68 -8 -100l125 -3z" />
    <glyph glyph-name="uni0431" unicode="&#x431;" horiz-adv-x="236" 
d="M197 177q0 13 -2 35q-2 24 -5 36q-3 18 -10 33q-7 17 -16 29q-11 13 -25 21t-31 11q-15 4 -35 4q-9 1 -26 1l4 -207l-4 -118l24 -4q18 -2 33 1q18 2 31 9q17 8 26 19q11 12 18 27q8 16 11 32q5 19 6 35zM48 368l24 1l56 -9q13 -5 22 -10q19 -9 31 -26q14 -17 21 -34
q6 -14 11 -38q4 -17 6 -37q2 -26 2 -38l-1 -38q-1 -11 -5 -38q-5 -20 -13 -38q-7 -16 -22 -33q-12 -14 -33 -25q-16 -10 -39 -13q-27 -2 -40 0q-7 0 -29.5 6t-22.5 15l3 42l3 86l1 107v87l-1 21q0 22 -3 44l-3 43v44q2 14 2 21l1 22q-2 28 -2 43q-1 8 -1 22l-1 65v36
q0 3 1 5v4q0 15 14 13l42 -3l93 -2l30 -2q14 -2 12 -15q-2 -11 -13 -13l-72 2l-62 5h-15l2 -116q-2 -29 -1 -44q0 -14 1 -21q0 -8 2 -22q1 -7 1 -22v-22q0 -15 -2 -43v-32z" />
    <glyph glyph-name="uni0432" unicode="&#x432;" horiz-adv-x="236" 
d="M221 177l-1 -38q-1 -11 -5 -38q-5 -20 -13 -38q-7 -16 -22 -33q-12 -14 -33 -25q-16 -10 -39 -13q-27 -2 -40 0q-7 0 -19 2l-25 7q-8 3 -8 12l3 42l3 86l2 213q0 28 -1 42l-8 300q0 9 8 11l19 7l19 3q7 1 20 1q6 0 20 -2q8 -1 19 -5q11 -3 18 -8q9 -4 17 -11l15 -14
q12 -14 22 -33q3 -6 7 -18l6 -18q6 -24 7 -37q1 -3 1 -9q1 -3 1 -9q1 -6 1 -19v-50l-4 -24q-3 -19 -12 -37q-7 -17 -22 -32q-14 -15 -31 -24q-12 -6 -18 -8q13 -5 22 -10q19 -9 31 -26q14 -17 21 -34q6 -14 11 -38q4 -17 6 -37q2 -26 2 -38zM43 687q1 -12 1 -34l3 -285l25 1
q11 1 33 5q18 5 31 12q18 11 26 20q11 13 17 27l6 16l3 16q1 3 1 8l1 26l-7 69q-4 22 -7 33l-11 32q-6 15 -16 28q-3 4 -10 11q-5 6 -13 10q-4 3 -14 7l-15 3q-10 2 -16 1q-11 0 -16 -1zM197 177q0 13 -2 35q-2 24 -5 36q-3 18 -10 33q-7 17 -16 29q-11 13 -25 21t-31 11
q-15 4 -35 4q-9 1 -26 1l4 -207v-118l20 -4q18 -2 33 1q18 2 31 9q17 8 26 19q11 12 18 27q8 16 11 32q5 19 6 35z" />
    <glyph glyph-name="uni0433" unicode="&#x433;" horiz-adv-x="222" 
d="M207 696q-2 -11 -13 -13l-72 2l-62 5h-15q1 -10 1 -29l1 -87q-2 -29 -1 -44q0 -14 1 -21q0 -8 2 -22q1 -7 1 -22v-22q0 -15 -2 -43l6 -391q0 -16 -15 -16q-16 0 -16 16v326l-1 21q0 22 -3 44l-3 43v44q2 14 2 21l1 22q-2 28 -2 43q-1 8 -1 22l-1 65q0 29 1 44v1
q0 15 14 13l42 -3l93 -2l30 -2q14 -2 12 -15z" />
    <glyph glyph-name="uni0434" unicode="&#x434;" horiz-adv-x="296" 
d="M118 690l2 -211q-1 -20 0 -56l1 -56q-1 -46 -2 -56l-5 -56l-1 -56q1 -18 -3 -66q-3 -38 -6 -57q-3 -22 -27 -47l118 -3l27 1l3 55l3 86q0 15 1 22l-2 65v97l2 32v22q0 14 -1 21l-1 11l1 75l2 22q2 28 2 43v117zM44 28q3 5 24 26l6 26q1 5 1 14l2 13q1 5 1 14l8 106l2 56
q-2 18 -1 28q-1 10 0 56l5 56q3 36 4 56l-7 111l1 98l-25 -3q-16 0 -16 15q-1 16 16 16h23l155 3q12 0 12 -12l-2 -65v-86l4 -64v-22q0 -14 -1 -21l-3 -43l2 -108l-4 -108l2 -108l2 -54l28 1q12 -1 12 -12v-112q0 -14 -13 -13q-14 0 -14 13l4 94l-129 2l-21 -1l-100 -3
l-5 -88q-2 -19 -19 -15q-17 2 -15 19l5 38l12 64q2 10 11 10z" />
    <glyph glyph-name="uni0435" unicode="&#x435;" horiz-adv-x="218" 
d="M189 26q13 0 13 -14q0 -13 -14 -13l-162 1q-11 0 -11 12l3 217l-2 84q-1 14 -1 43q0 14 2 42t2 42l-1 127l4 127q0 9 10 11l114 11l38 5q17 2 19 -15q4 -17 -15 -19l-143 -4l1 -180l-1 -21q-2 -28 -2 -42q0 -28 1 -42q1 -9 1 -27l28 -2l77 4q15 2 15 -13q2 -15 -14 -15
q-7 -1 -17 -1l-69 -3l-20 -4q0 -16 -1 -24l-3 -42l-1 -42q-1 -14 -1 -43v-163z" />
    <glyph glyph-name="uni0436" unicode="&#x436;" horiz-adv-x="435" 
d="M203 329l-39 13l-107 -339q-6 -16 -22 -11q-14 7 -9 22l117 362l-101 267l-14 35q-2 9 4 13q9 8 17 -2l127 -313l28 -10v65l-3 237q0 19 -1 30q0 17 17 17t17 -16l-3 -291l-1 -8q0 -20 1 -31v-2l26 6l126 311q8 10 17 2q6 -4 4 -13l-113 -297l117 -362q5 -15 -9 -22
q-16 -5 -22 11l-107 339l-38 -12l1 -40l-1 -2v-5q0 -21 1 -32l2 -37l-2 -43q-1 -9 -1 -26l1 -133q2 -16 -15 -16q-15 -2 -17 16l1 30q1 9 1 34v82l-1 13q-1 10 -1 29q-1 9 -1 29l2 22q1 21 1 42v36z" />
    <glyph glyph-name="uni0437" unicode="&#x437;" horiz-adv-x="268" 
d="M253 573l-1 -30q0 -7 -1 -11q-1 -8 -5 -19q0 -3 -6 -20q-7 -17 -22 -36q-14 -16 -33 -26q-5 -3 -20 -9q1 0 2 -1l18 -11l23 -23l7 -11q8 -11 12 -22q10 -24 14 -47q5 -24 6 -47q2 -32 2 -47q1 -8 1 -23l-1 -24q0 -9 -2 -23q0 -12 -3 -24q-1 -8 -5 -24q-3 -14 -8 -23
q-5 -14 -11 -22q-5 -9 -16 -20t-21 -16q-16 -8 -24 -10q-16 -4 -25 -4q-3 -1 -12 -1t-13 1q-15 2 -26 7q-12 4 -23 14q-8 7 -17 21q-7 12 -11 23q-8 27 -11 48q-2 32 -2 48q0 13 14 13q14 2 14 -13q0 -30 1 -45q4 -28 9 -42q9 -23 20 -34q13 -13 35 -15q3 -1 10 -1h10l21 3
q22 7 35 20q14 14 23 34q9 27 7 20l5 22q3 14 5 44l1 46l-3 45q-1 21 -8 44q-3 16 -15 41q-11 19 -25 33l-24 18l-5 2q-2 2 -4 2q-22 10 -40 14h-2q-12 4 -9 15q2 12 12 10q19 0 35 3l17 5q5 2 15 8q14 10 24 22q5 5 9 13q3 4 4 8q2 2 2 4l2 4q6 15 9 33q2 12 2 17l1 18
q-2 24 -4 35q-4 22 -8 34l-12 22q-2 3 -6 7q-11 13 -27 17q-1 1 -3 1q-2 1 -4 1l-8 2l-15 1l-2 -1q-14 0 -32 -7q0 -1 -1 -1l-12 -8l-9 -8l-2 -4q-11 -13 -17 -29l-6 -16q-2 -5 -4 -17l-3 -17q-1 -3 -1 -9v-8q-2 -19 -18 -17q-17 0 -17 17l3 22l11 39q3 9 8 19l5 9q1 3 5 9
q6 9 13 16q14 17 34 26q21 9 42 9l21 -1l18 -5q2 0 3 -1q6 -2 9 -4l16 -10q2 -1 2 -2l4 -4q3 -1 4 -4q3 -2 7 -8l6 -8q4 -6 10 -18q8 -17 13 -39q4 -26 4 -39z" />
    <glyph glyph-name="uni0438" unicode="&#x438;" horiz-adv-x="238" 
d="M28 699q2 17 16 15q16 0 16 -15l-11 -565l6 29q2 14 4 21l20 109q2 14 4 21l9 43l31 129l44 216q4 13 16 13q16 0 16 -16l1 -302l10 -388q0 -17 -17 -17q-16 0 -16 17v129l-3 259q0 28 -1 43l-4 126l-19 -86q-2 -7 -4 -21l-11 -66l-19 -86l-31 -128q-4 -15 -10 -43
l-29 -130q-2 -9 -11 -9q-12 0 -12 12z" />
    <glyph glyph-name="uni0439" unicode="&#x439;" horiz-adv-x="238" 
d="M28 699q2 17 16 15q16 0 16 -15l-11 -565l6 29q2 14 4 21l20 109q2 14 4 21l9 43l31 129l44 216q4 13 16 13q16 0 16 -16l1 -302l10 -388q0 -17 -17 -17q-16 0 -16 17v129l-3 259q0 28 -1 43l-4 126l-19 -86q-2 -7 -4 -21l-11 -66l-19 -86l-31 -128q-4 -15 -10 -43
l-29 -130q-2 -9 -11 -9q-12 0 -12 12zM52 801q8 13 19 3q1 0 1 -1q43 -40 97 -2q9 9 17 -2q7 -11 -2 -20l-10 -10q-59 -35 -113 1q-2 3 -7 7q-11 11 -2 24z" />
    <glyph glyph-name="uni043A" unicode="&#x43a;" horiz-adv-x="250" 
d="M234 14q5 -15 -9 -22q-16 -5 -22 11l-20 63l-47 127l-19 45q-2 3 -4 9q0 2 -2 5l-45 115q-3 -4 -4 -8q-6 -10 -9 -18l-6 -13v-5q0 -21 1 -32l2 -77l-2 -43q-1 -9 -1 -26l1 -133q2 -16 -15 -16q-15 -2 -17 16l1 30q1 9 1 34v82l-1 13q-1 10 -1 29q-1 9 -1 29l2 62
q1 11 1 32l1 158l-3 187q0 19 -1 30q0 17 17 17t17 -16l-3 -241l-1 -8q0 -20 1 -31l1 -32l113 236l48 83q8 10 17 2q6 -4 4 -13l-14 -35l-24 -53l-16 -31q-5 -11 -17 -33l-18 -34q-2 -5 -9 -17l-46 -87l1 -1q3 -3 6 -11q6 -12 9 -20l15 -39q-2 5 5 -16l24 -69q6 -21 13 -38z
" />
    <glyph glyph-name="uni043B" unicode="&#x43b;" horiz-adv-x="284" 
d="M2 42q-6 12 5 19q13 7 21 -4l1 -2q-1 -1 2 -4l4 -8q6 -7 11 -10q9 -4 13.5 -3t3.5 0q10 3 14 12q4 6 8 22l5 26q1 5 1 14l1 13q1 5 1 14l5 96v56q-2 18 -2 28q-1 10 -1 56l3 56q2 36 2 56v111l-2 98l-35 -3q-16 0 -16 15q-2 16 15 16h54l135 3q12 0 12 -12l-2 -65v-86
l4 -64v-22q0 -14 -1 -21l-3 -43l2 -108l-4 -108l2 -108l3 -65q0 -16 -16 -18q-17 0 -19 17l4 66l3 86q0 15 1 22l-2 65v97l2 32v22q0 14 -1 21l-1 11l1 75l2 22q2 28 2 43v117l-114 -6l-2 -210q0 -20 2 -56l3 -56q0 -46 -1 -56l-3 -56l1 -56q1 -18 -1 -56t-5 -57
q-5 -27 -6 -29q-5 -17 -14 -30q-4 -7 -12 -13t-16 -9q-6 -4 -23 -2q-10 3 -16 7q-13 7 -23 20z" />
    <glyph glyph-name="uni043C" unicode="&#x43c;" horiz-adv-x="284" 
d="M265 13q2 -16 -15 -16q-14 -2 -16 15l-16 579l-19 -102l-47 -271q-4 -16 -20 -14q-13 4 -14 14q-4 20 -5 30q-4 20 -5 30q-4 21 -10 61q-1 10 -5 30l-7 45l-27 137l-4 -107q-1 -29 -1 -87l-3 -344q0 -16 -16 -16q-15 0 -15 16l9 388l-1 129q1 29 1 86l1 86q0 16 17 16
q14 0 16 -13l31 -181q6 -40 10 -60l17 -90l14 -64l46 214l35 180q2 12 13 10q10 -2 10 -11z" />
    <glyph glyph-name="uni043D" unicode="&#x43d;" horiz-adv-x="249" 
d="M236 703l-5 -66l-2 -81l2 -42v-60q-2 -20 -2 -31q-2 -15 0 -31l2 -32q0 -22 -1 -32l-3 -32q-1 -10 -1 -31l1 -139q0 -64 1 -107q0 -14 -14 -14t-14 14l5 246q0 21 -1 31q0 10 -2 32l-1 15l-42 -2l-63 2l-15 -1q-8 0 -12 -1q-8 0 -11 -1h-3q-1 -6 -1 -18q-2 -20 -2 -31
q-1 -11 -1 -31l7 -246q2 -14 -13 -14q-14 0 -14 13v246l-1 16q-1 10 -1 15l-3 32q-1 5 -1 16l-1 16q0 11 2 31q1 17 0 32l-2 46v112l-7 118q-2 17 16 19q17 2 19 -15l-4 -87l3 -177v-16q-1 -10 1 -31l2 -18l42 -3h32l31 2l42 -2q0 9 2 27q2 14 1 31l-1 62q0 20 1 29l2 80
q-1 8 -1 23l-2 39l-2 45q-2 16 16 18q17 2 19 -16z" />
    <glyph glyph-name="uni043E" unicode="&#x43e;" horiz-adv-x="225" 
d="M94 717q-13 -2 -25 -8q-4 -2 -14 -10q-9 -9 -12 -14q-9 -14 -16 -37q-6 -28 -7 -43q-5 -39 -5 -101q0 -76 1 -118q0 -86 1 -132q0 -46 1 -69q0 -24 2 -72q2 -26 4 -37q2 -12 4 -19q3 -11 7 -20q6 -12 13 -19q5 -5 9 -7q5 -5 10 -6q4 -2 21 -7l11 -1q7 0 10 -1q26 2 42 10
q9 4 18 13q8 8 13 18q7 12 13 38q3 10 7 37l2 18q2 12 2 18q2 24 2 36q1 6 1 18l1 52l-1 131q-2 42 -2 61v110q0 18 -2 48q-1 22 -6 43q-3 21 -13 38l-12 15q-10 8 -15 10q-12 6 -25 8q-7 1 -15 1zM118 685q7 0 11 -1q9 0 16 -3q8 -5 14 -13q7 -12 11 -28t6 -39q2 -14 4 -46
q1 -9 1 -26l1 -83q1 -20 -1 -61l-2 -165q0 -23 -1 -35q0 -47 -3 -70q-2 -23 -5 -34q-6 -22 -12 -30q-2 -4 -4 -6q-2 -3 -5 -5q-3 -3 -11 -7q-6 -3 -13 -3l-16 -1q-19 0 -30 4l-10 6q-2 1 -9 11q-6 12 -10 31q-1 3 -6 34q-2 22 -4 70v69q0 90 1 132q0 45 2 117q2 61 7 98
q4 26 7 38t12 28q7 9 16 13q7 4 15 4q4 1 10 1h8z" />
    <glyph glyph-name="uni043F" unicode="&#x43f;" horiz-adv-x="226" 
d="M197 719q12 0 12 -12l-2 -65v-86l4 -64v-22q0 -14 -1 -21l-3 -43l2 -108l-4 -108l2 -108l3 -65q0 -16 -16 -18q-17 0 -19 17l4 66l3 86q0 15 1 22l-2 65v97l2 32v22q0 14 -1 21l-1 11l1 75l2 22q2 28 2 43v117l-123 -6q-4 -1 -7 0l-1 -21q-2 -18 -2 -33l-2 -44l2 -80v-61
q0 -9 -2 -31q0 -21 1 -32l3 -32l-1 -16q-1 -10 -1 -16q-2 -22 -2 -32q-1 -10 -1 -31l3 -248q0 -12 -14 -14q-14 0 -14 14l4 248q0 21 -1 31q-2 22 -2 32q-2 22 -2 32q0 12 2 32q1 11 1 32l-2 62l2 98l-4 104q-17 -2 -19 16q-2 17 17 19z" />
    <glyph glyph-name="uni0440" unicode="&#x440;" horiz-adv-x="214" 
d="M199 554v-36q0 -48 -2 -72q-5 -34 -6 -37q-3 -21 -13 -37q-4 -8 -13 -17q-5 -5 -8 -7l-9 -6q-12 -6 -19 -7q-12 -4 -19 -4q-19 -3 -37 -3h-28l-2 -59l6 -237q0 -14 1 -21q2 -18 -16 -18q-18 -2 -18 16l4 260l-3 173l2 129q0 15 -2 43q0 15 -2 43v44q0 12 12 14l3 1h17
q13 0 20 -1q19 -2 37 -9q6 -2 18 -8q9 -5 16 -10q10 -7 15 -13q5 -4 13 -14q6 -9 10 -17q5 -9 8 -17q5 -12 11 -36q2 -11 4 -37zM177 553l-3 34l-4 17q0 2 -2 8l-3 7q-6 16 -16 29q-8 12 -23 22q-7 5 -14 8l-15 6q-22 4 -32 4h-18q-1 -1 -2 -1v-30q0 -13 -2 -43v-43
q0 -29 1 -43l1 -21v-151l28 -1q23 0 33 2q20 2 30 8q12 5 20 20q8 12 11 29q-1 -2 6 34q2 22 4 70v35z" />
    <glyph glyph-name="uni0441" unicode="&#x441;" horiz-adv-x="244" 
d="M228 167q-2 18 -19 16t-15 -20v-2q0 -5 1 -9q0 -21 -1 -36l-4 -24q-4 -20 -8 -28q-5 -11 -7 -13q-2 -5 -9 -12q-13 -13 -28 -14l-19 -1l-19 3q-12 4 -17 8q-7 4 -12 14l-5 9l-1 5q-1 4 -2 5q-4 10 -6 22q-3 18 -7 49l-3 51q0 9 -2 27l-2 27v54q2 36 2 55l-2 109
q0 36 1 53q2 34 4 52q0 13 3 25q2 16 4 24q5 28 14 44q6 12 11 16q5 6 14 10q13 6 37 4q20 -2 33 -9q13 -6 21 -19q6 -10 10 -25l5 -25q3 -45 2 -36l-1 -13q0 -13 14 -13t14 13v14q0 22 -3 39q-1 12 -6 27q-3 15 -14 33q-3 5 -13 15q-6 6 -18 13q-18 8 -43 10h-22
q-13 -2 -25 -6q-13 -6 -23 -16q-6 -7 -14 -23l-9 -24q-4 -16 -5 -25q-2 -9 -4 -25l-3 -26q-2 -17 -4 -53l-8 -136v-27l3 -55q1 -18 1 -55v-54l3 -53q2 -17 8 -51q1 -6 8 -26q5 -13 12 -23q11 -14 20 -20q11 -8 24 -11q8 -2 24 -4l17 -1q2 1 6 1t12 2t11 4q11 5 19 13
q8 6 14 16q6 9 10 17q8 18 11 32q5 15 6 27q3 17 3 39v15z" />
    <glyph glyph-name="uni0442" unicode="&#x442;" horiz-adv-x="209" 
d="M199 692l-22 1l-39 -1q-10 0 -16 -1l-1 -23q-2 -18 -2 -33l-2 -44l2 -80v-61q0 -9 -2 -31q0 -21 1 -32l3 -32l-1 -16q-1 -10 -1 -16q-2 -22 -2 -32q-1 -10 -1 -31l3 -248q0 -12 -14 -14q-14 0 -14 14l4 248q0 21 -1 31q-2 22 -2 32q-2 22 -2 32q0 12 2 32q1 11 1 32
l-2 62l2 98l-4 110l-70 -6q-17 -2 -19 16q-2 17 17 19h41l107 5q7 0 11 1l16 2q16 4 20 -13q3 -17 -13 -21z" />
    <glyph glyph-name="uni0443" unicode="&#x443;" horiz-adv-x="257" 
d="M249 699q-1 -2 -2 -8l-7 -37q-2 -12 -4 -19q-1 -7 -11 -45l-42 -174q-5 -18 -8 -32l-9 -32l-53 -213q-5 -14 -6 -26l-18 -79q-5 -19 -7 -30q-4 -13 -18 -11q-13 4 -11 18l31 121l51 221q-1 0 -1 1q1 -1 -2 5l-9 23l-26 77q-12 36 -20 64l-5 17q-3 9 -5 16q-5 14 -10 32
l-9 29q0 3 -2 7q-1 5 -2 7l-24 66q-5 14 9 19q14 6 18 -9q1 0 1 -1l16 -54q2 -3 4 -13q4 -7 5 -13l75 -211q0 -1 1 -2l30 133l24 96q3 11 10 34q0 3 2 7l7 23q5 12 18 9q11 -5 9 -16z" />
    <glyph glyph-name="uni0444" unicode="&#x444;" horiz-adv-x="363" 
d="M151 743v2q0 19 16 17q19 -1 19 -20q-1 -33 -2 -38q1 0 1 -1l18 -1q52 0 85 -27q7 -6 13 -16q9 -13 16 -38q6 -28 6 -39q2 -13 4 -38q1 -13 1 -29v-48q-2 -27 -4 -38q-1 -6 -1 -11l-9 -28q-7 -20 -19 -35q-9 -12 -28 -26q-10 -6 -17 -8q-11 -4 -17 -5q-14 -4 -34 -4
q-11 0 -17 1l-1 -34l4 -270q0 -18 -18 -16q-18 0 -16 18q1 7 1 21l6 247l-2 37q-53 -2 -100 29q-9 9 -13 17q-10 16 -13 37q-1 3 -6 37q-2 24 -2 82v26q2 26 4 37q6 24 11 36q3 8 8 17q4 8 10 17q8 10 13 14q13 29 66 40q7 1 20 1q-2 32 -3 37zM184 340q3 -1 8 -1l8 -2
q16 -2 30 2l15 4q7 1 13 6q14 8 23 21q7 8 16 29q6 15 8 34q3 16 3 35l-1 47q-2 40 -4 64q-3 16 -8 34q-3 16 -12 30q-6 8 -9 11q-7 6 -12 9q-8 5 -28 9q-20 2 -31 2l-17 -1v-26q-2 -28 -2 -43q-2 -28 -2 -43l2 -129l-2 -91zM154 598l1 79l-1 1h-18q-39 0 -64 -40
q-10 -13 -16 -29l-3 -7q-2 -6 -2 -8l-4 -17l-3 -34v-25q2 -58 4 -80q7 -36 6 -34q3 -17 11 -29q42 -37 89 -31l-1 21q0 39 1 54q2 29 2 45z" />
    <glyph glyph-name="uni0445" unicode="&#x445;" horiz-adv-x="240" 
d="M142 351l35 -118q12 -40 17 -59q8 -24 15 -52q2 -5 13 -45l11 -47q4 -16 2 -10q1 -2 1 -6q0 -1 1 -2q2 -14 -11 -16q-12 -4 -16 9l-21 63l-64 224l-52 -179l-12 -45q-5 -23 -9 -34l-8 -30q-4 -15 -18 -10q-13 3 -10 18l36 121l26 99q23 84 31 118l-63 228l-36 120
q-5 14 9 18q14 3 19 -10l30 -109q4 -16 7 -25q2 -9 8 -27l42 -139l5 19q6 26 17 62q9 39 16 59l15 53q8 29 13 44l21 64q5 12 18 8q11 -5 9 -16l-28 -110l-32 -111q-8 -32 -18 -62z" />
    <glyph glyph-name="uni0446" unicode="&#x446;" horiz-adv-x="258" 
d="M232 -105q1 10 0 21l-3 27l-26 -36l-8 -9q-5 -7 -7 -10l-3 -5l-1 -4v-12q-1 0 1 -2q-1 0 0 -2l3 -3q3 -1 11 -1q20 -1 26 10.5t7 25.5zM246 -5q16 18 26.5 12.5t0.5 -24.5l-22 -19q3 -19 2 -38q1 -16 0 -32q-1 -18 -6 -32q-9 -20 -23 -25l-6 -2v1l-4 -2h-20q-5 0 -10 1
l-8 3l-3 1q-5 4 -7 8q-1 0 -3 4l-1 5q-1 4 -2 10v9l3 10q0 1 1 2l2 9q3 5 11 16l8 12l3 3l11 15q2 1 24 36l-1 22q-3 -1 -7 -1l-176 -1q-12 0 -12 12l2 65v86l-4 64v22q0 14 1 21l3 43l-2 108l4 108l-2 108l-3 65q0 16 16 18q17 0 19 -17l-4 -66l-3 -86q0 -15 -1 -22l2 -65
v-97l-2 -32v-22q0 -14 1 -21l1 -11l-1 -75l-2 -22q-2 -28 -2 -43v-117l123 6q4 1 7 0l1 21q2 18 2 33l2 44l-2 80v61q0 9 2 31q0 21 -1 32l-3 32l1 16q1 10 1 16q2 22 2 32q1 10 1 31l-3 248q0 12 14 14q14 0 14 -14l-4 -248q0 -21 1 -31q2 -22 2 -32q2 -22 2 -32
q0 -12 -2 -32q-1 -11 -1 -32l2 -62l-2 -98l4 -107q6 2 10 1h13q9 2 10 -8v-29z" />
    <glyph glyph-name="uni0447" unicode="&#x447;" 
d="M190 356q0 -11 2 -32q2 -22 2 -33q1 -10 1 -32l-3 -250q0 -15 14 -15q13 0 13 15l-3 250q0 22 1 32q0 11 2 33q2 21 2 32q0 10 -2 32q-3 14 -1 33l1 77v4q1 15 1 23v110q3 53 2 46v17q0 17 -18 17t-16 -18v-203q-2 -42 -5 -65l-3 -16q0 -2 -2 -7l-2 -8q-7 -17 -13 -27
q-7 -11 -19 -18l-12 -3l-17 -1l-9 2q-8 2 -11 5q-11 6 -19 19q-8 14 -12 29l-5 15l-3 16q-6 31 -9 64l2 204q0 17 -17 17t-17 -17l7 -156q0 -11 1 -16q0 -11 2 -33q4 -47 7 -67q8 -46 20 -69q4 -8 10 -17l15 -15q9 -6 20 -9q-1 1 10 -3l16 -2l15 2q9 3 20 8q10 6 17 14
q8 8 12 16q1 3 3 6v-6z" />
    <glyph glyph-name="uni0448" unicode="&#x448;" horiz-adv-x="314" 
d="M156 -1l-117 -1q-12 0 -12 12l2 65v86l-4 64v22q0 14 1 21l3 43l-2 108l4 108l-2 108l-3 65q0 16 16 18q17 0 19 -17l-4 -66l-3 -86q0 -15 -1 -22l2 -65v-97l-2 -32v-22q0 -14 1 -21l1 -11l-1 -75l-2 -22q-2 -28 -2 -43v-117l85 6q4 1 7 0l1 21q2 18 2 33l2 44l-2 80v61
q0 9 2 31q0 21 -1 32l-3 32l1 16q1 10 1 16q2 22 2 32q1 10 1 31l-3 248q0 12 14 14q14 0 14 -14l-4 -248q0 -21 1 -31q2 -22 2 -32q2 -22 2 -32q0 -12 -2 -32q-1 -11 -1 -32l2 -62l-2 -98l2 -106h8l59 1q10 0 16 1l1 23q2 18 2 33l2 44l-2 80v61q0 9 2 31q0 21 -1 32l-3 32
l1 16q1 10 1 16q2 22 2 32q1 10 1 31l-3 248q0 12 14 14q14 0 14 -14l-4 -248q0 -21 1 -31q2 -22 2 -32q2 -22 2 -32q0 -12 -2 -32q-1 -11 -1 -32l2 -62l-2 -98l4 -110l2 -10q2 -17 -17 -19l-92 -6l-8 -1v-1h-8q-6 -1 -10 0z" />
    <glyph glyph-name="uni0449" unicode="&#x449;" horiz-adv-x="329" 
d="M304 -105q1 10 0 21l-3 27l-26 -36l-8 -9q-5 -7 -7 -10l-3 -5l-1 -4v-12q-1 0 1 -2q-1 0 0 -2l3 -3q3 -1 11 -1q20 -1 26 10.5t7 25.5zM156 -1l-117 -1q-12 0 -12 12l2 65v86l-4 64v22q0 14 1 21l3 43l-2 108l4 108l-2 108l-3 65q0 16 16 18q17 0 19 -17l-4 -66l-3 -86
q0 -15 -1 -22l2 -65v-97l-2 -32v-22q0 -14 1 -21l1 -11l-1 -75l-2 -22q-2 -28 -2 -43v-117l85 6q4 1 7 0l1 21q2 18 2 33l2 44l-2 80v61q0 9 2 31q0 21 -1 32l-3 32l1 16q1 10 1 16q2 22 2 32q1 10 1 31l-3 248q0 12 14 14q14 0 14 -14l-4 -248q0 -21 1 -31q2 -22 2 -32
q2 -22 2 -32q0 -12 -2 -32q-1 -11 -1 -32l2 -62l-2 -98l2 -106h8l59 1q10 0 16 1l1 23q2 18 2 33l2 44l-2 80v61q0 9 2 31q0 21 -1 32l-3 32l1 16q1 10 1 16q2 22 2 32q1 10 1 31l-3 248q0 12 14 14q14 0 14 -14l-4 -248q0 -21 1 -31q2 -22 2 -32q2 -22 2 -32q0 -12 -2 -32
q-1 -11 -1 -32l2 -62l-2 -98l4 -110l1 -5q5 2 9 1h9q9 2 10 -8v-29q16 18 26.5 12.5t0.5 -24.5l-22 -19q3 -19 2 -38q1 -16 0 -32q-1 -18 -6 -32q-9 -20 -23 -25l-6 -2v1l-4 -2h-20q-5 0 -10 1l-8 3l-3 1q-5 4 -7 8q-1 0 -3 4l-1 5q-1 4 -2 10v9l3 10q0 1 1 2l2 9q3 5 11 16
l8 12l3 3l11 15q2 1 24 36l-1 21h-138z" />
    <glyph glyph-name="uni044A" unicode="&#x44a;" horiz-adv-x="326" 
d="M286 177q0 13 -2 35q-2 24 -5 36q-3 18 -10 33q-7 17 -16 29q-11 13 -25 21t-31 11q-15 4 -35 4q-9 1 -26 1l4 -207l-4 -118l24 -4q18 -2 33 1q18 2 31 9q17 8 26 19q11 12 18 27q8 16 11 32q5 19 6 35zM15 688q-5 8 -5 10q-2 13 12 15l90 5q3 1 7 0q15 1 16 -28
q0 -174 1 -181q0 -8 2 -22q1 -7 1 -22v-22q0 -15 -2 -43v-32l24 1l56 -9q13 -5 22 -10q19 -9 31 -26q14 -17 21 -34q6 -14 11 -38q4 -17 6 -37q2 -26 2 -38l-1 -38q-1 -11 -5 -38q-5 -20 -13 -38q-7 -16 -22 -33q-12 -14 -33 -25q-16 -10 -39 -13q-27 -2 -40 0q-7 0 -29.5 6
t-22.5 15l3 42l3 86l1 107v87l-1 21q0 22 -3 44l-3 43v44q2 14 2 21l1 22q-2 28 -2 43q-1 8 -1 22l-1 65v27l-71 -2z" />
    <glyph glyph-name="uni044B" unicode="&#x44b;" horiz-adv-x="331" 
d="M204 177q0 13 -2 35q-2 24 -5 36q-3 18 -10 33q-7 17 -16 29q-11 13 -25 21t-31 11q-15 4 -35 4q-9 1 -26 1l4 -207l-4 -118l24 -4q18 -2 33 1q18 2 31 9q17 8 26 19q11 12 18 27q8 16 11 32q5 19 6 35zM53 690q0 -174 1 -181q0 -8 2 -22q1 -7 1 -22v-22q0 -15 -2 -43
v-32l24 1l56 -9q13 -5 22 -10q19 -9 31 -26q14 -17 21 -34q6 -14 11 -38q4 -17 6 -37q2 -26 2 -38l-1 -38q-1 -11 -5 -38q-5 -20 -13 -38q-7 -16 -22 -33q-12 -14 -33 -25q-16 -10 -39 -13q-27 -2 -40 0q-7 0 -29.5 6t-22.5 15l3 42l3 86l1 107v87l-1 21q0 22 -3 44l-3 43
v44q2 14 2 21l1 22q-2 28 -2 43q-1 8 -1 22l-1 65v36q0 3 1 5v4q0 15 14 13q15 1 16 -28zM307 706q-2 17 -19 17q-16 -2 -16 -21q1 -3 1 -7l3 -67l1 -80v-6q-1 -10 -1 -30l1 -91q1 -17 0 -33q-3 -16 -3 -32q0 -11 2 -32q2 -22 2 -33q1 -10 1 -32l-3 -250q0 -15 14 -15
q13 0 13 15l-3 250q0 22 1 32q0 11 2 33q2 21 2 32q0 10 -2 32q-3 14 -1 33l1 77l-2 71l3 87q0 11 1 17z" />
    <glyph glyph-name="uni044C" unicode="&#x44c;" horiz-adv-x="243" 
d="M204 177q0 13 -2 35q-2 24 -5 36q-3 18 -10 33q-7 17 -16 29q-11 13 -25 21t-31 11q-15 4 -35 4q-9 1 -26 1l4 -207l-4 -118l24 -4q18 -2 33 1q18 2 31 9q17 8 26 19q11 12 18 27q8 16 11 32q5 19 6 35zM53 690q0 -174 1 -181q0 -8 2 -22q1 -7 1 -22v-22q0 -15 -2 -43
v-32l24 1l56 -9q13 -5 22 -10q19 -9 31 -26q14 -17 21 -34q6 -14 11 -38q4 -17 6 -37q2 -26 2 -38l-1 -38q-1 -11 -5 -38q-5 -20 -13 -38q-7 -16 -22 -33q-12 -14 -33 -25q-16 -10 -39 -13q-27 -2 -40 0q-7 0 -29.5 6t-22.5 15l3 42l3 86l1 107v87l-1 21q0 22 -3 44l-3 43
v44q2 14 2 21l1 22q-2 28 -2 43q-1 8 -1 22l-1 65v36q0 3 1 5v4q0 15 14 13q15 1 16 -28z" />
    <glyph glyph-name="uni044D" unicode="&#x44d;" horiz-adv-x="244" 
d="M194 346l-14 -1q-14 -2 -24 -2l-107 2q-14 0 -14 -14q0 -13 14 -13l107 2q48 0 38 -2h6q0 -9 1 -20v-54l-2 -27q-2 -18 -2 -27l-3 -51q-4 -31 -7 -49q-2 -12 -6 -22q-1 -1 -2 -5l-1 -5l-5 -9q-5 -10 -12 -14q-5 -4 -17 -8l-19 -3l-19 1q-15 1 -28 14q-7 7 -9 12
q-2 2 -7 13q-4 8 -8 28l-4 24q-1 15 -1 36q1 4 1 9v2q2 18 -15 20t-19 -16l1 -1v-15q0 -22 3 -39q1 -12 6 -27q3 -14 11 -32q4 -8 10 -17q6 -10 14 -16q8 -8 19 -13q3 -2 11 -4t12 -2t6 -1l17 1q16 2 24 4q13 3 24 11q9 6 20 20q7 10 12 23q7 20 8 26q6 34 8 51l3 53v54
q0 37 1 55l3 55v27l-8 136q-2 36 -4 53l-3 26q-2 16 -4 25q-1 9 -5 25l-9 24q-8 16 -14 23q-10 10 -23 16q-12 4 -25 6h-22q-25 -2 -43 -10q-12 -7 -18 -13q-10 -10 -13 -15q-11 -18 -14 -33q-5 -15 -6 -27q-3 -17 -3 -39v-14q0 -13 14 -13t14 13l-1 13q-1 -9 2 36l5 25
q4 15 10 25q8 13 21 19q13 7 33 9q24 2 37 -4q9 -4 14 -10q5 -4 11 -16q9 -16 14 -44q2 -8 4 -24q3 -12 3 -25q2 -18 4 -52q1 -17 1 -53l-2 -109v-8z" />
    <glyph glyph-name="uni044E" unicode="&#x44e;" horiz-adv-x="360" 
d="M241 680q7 -2 14 -6q9 -6 16 -15q10 -14 15 -28q7 -14 12 -37q4 -15 10 -44l6 -51q2 -18 4 -56q1 -19 1 -60q-1 -10 -1 -31l-1 -32q0 -22 -2 -66l-4 -68q-2 -22 -4 -35q-1 -13 -5 -34q-3 -16 -9 -33l-6 -15q-7 -12 -9 -14q-4 -6 -10 -11q-3 -4 -11 -8l-13 -4
q-5 -1 -16 -1q-15 0 -26 7q-10 5 -21 20q-9 14 -15 30q-5 10 -11 32q-9 34 -12 68q-2 13 -4 35l-3 67v96q2 79 5 116q4 50 14 96q4 16 11 37q9 19 15 28q9 13 22 17h38zM98 345q-8 -1 -29 -1h-11v12q0 10 -2 32q-3 14 -1 33l1 77l-2 71l3 87q0 11 1 17l2 33q-2 17 -19 17
q-16 -2 -16 -21q1 -3 1 -7l3 -67l1 -80v-6q-1 -10 -1 -30l1 -91q1 -17 0 -33q-3 -16 -3 -32q0 -11 2 -32q2 -22 2 -33q1 -10 1 -32l-3 -250q0 -15 14 -15q13 0 13 15l-3 250q0 22 1 32q0 10 2 28h13q21 0 29 -1l16 -1q0 -21 2 -62q6 -86 17 -140l9 -36q7 -21 16 -35
q5 -10 12 -17q6 -7 16 -14l10 -6q15 -5 11 -4q2 -1 5 -1l16 -1q14 0 21 2q13 2 21 7q12 7 18 14q7 7 12 17q9 14 16 35q4 12 10 36q3 12 7 36q4 21 5 35l3 35q2 22 2 34q2 46 2 67l-1 64l-5 104q0 9 -1 14q-1 22 -5 52q-4 32 -8 48q-3 15 -11 41q-8 21 -18 35q-9 14 -23 24
q-10 7 -23 11h-23l-19 -2q-11 -2 -24 -9q-5 -2 -13 -9q-8 -8 -11 -13q-8 -10 -18 -34q-7 -19 -12 -42q-7 -30 -13 -99q-4 -49 -4 -118v-40z" />
    <glyph glyph-name="uni044F" unicode="&#x44f;" horiz-adv-x="227" 
d="M15 20l4 24l16 63l56 197q7 28 5 22q-1 -7 4 18l1 3q-16 4 -23 8q-11 6 -18 12q-8 6 -14 16q-10 12 -18 36q-6 27 -7 38q-2 13 -4 37q-1 12 -1 37v37q2 26 4 37q2 6 2 10l9 27q8 20 21 34q11 12 31 25q12 6 19 8q12 4 19 5q16 4 38 4q13 0 20 -1l20 -3q10 -2 10 -13
l1 -44q0 -28 -1 -43q-2 -28 -2 -43l2 -129l-1 -86q0 -29 -1 -44l-1 -21l3 -216l2 -43q0 -14 1 -21v-2q0 -18 -18 -16q-17 0 -17 18q2 28 2 43q1 14 1 43l3 172l-2 72h-27q-16 0 -25 1l-13 -45l-51 -213l-13 -48l-9 -28q-1 -3 -2 -4q-4 -10 -13 -8q-15 0 -13 14v10zM154 694
q-12 0 -34 -2q-22 -4 -31 -9q-5 -2 -13 -8q-4 -3 -10 -11q-10 -13 -14 -29q-5 -17 -8 -33q-3 -23 -5 -71l-1 -36q0 -18 3 -34q3 -18 9 -33q10 -20 18 -28q10 -12 25 -20q7 -5 15 -6l17 -4q15 -3 33 -1l9 1q5 0 8 1l5 2v75l3 43l-2 202z" />
    <glyph glyph-name="uni0451" unicode="&#x451;" horiz-adv-x="218" 
d="M189 26q13 0 13 -14q0 -13 -14 -13l-162 1q-11 0 -11 12l3 217l-2 84q-1 14 -1 43q0 14 2 42t2 42l-1 127l4 127q0 9 10 11l114 11l38 5q17 2 19 -15q4 -17 -15 -19l-143 -4l1 -180l-1 -21q-2 -28 -2 -42q0 -28 1 -42q1 -9 1 -27l28 -2l77 4q15 2 15 -13q2 -15 -14 -15
q-7 -1 -17 -1l-69 -3l-20 -4q0 -16 -1 -24l-3 -42l-1 -42q-1 -14 -1 -43v-163zM130 771q2 -14 13 -17q14 -5 26 2q11 4 12 16q1 11 -6 18q-5 6 -15 6q-18 -2 -27 -16zM34 771q2 -14 13 -17q15 -3 26 2t12 17q1 10 -6 18q-5 5 -15 5q-17 0 -27 -15q1 1 -3 -10z" />
    <glyph glyph-name="Wgrave" unicode="&#x1e80;" horiz-adv-x="298" 
d="M65 811q5 12 19 6l33 -19q10 -5 19 -11q-7 3 19 -10q-3 2 9 -4q2 0 5 -2l21 -9q16 -7 9 -23t-23 -9l-7 5q2 0 -11 7q-3 3 -7 5l-9 6l-55 30q-10 5 -16 9q-14 6 -6 19zM283 701l-5 -129l-28 -517q-1 -15 -5 -43v-1q-3 -12 -14 -10q-8 2 -10 9l-31 145l-22 116l-6 52
q0 5 -1 7l-13 73l-28 -189q-2 -20 -4 -29l-28 -175q-2 -15 -16 -11q-10 1 -12 12l-9 174l-36 520q0 14 12 14q13 2 15 -12l37 -572l13 83l30 175q1 9 5 29l7 36q-1 -2 2 7l6 14q2 6 8 2q1 0 1 -1l2 -1l7 -21l41 -181q1 -1 6 -29l17 -100l31 555q0 15 15 13q15 0 13 -15z" />
    <glyph glyph-name="wgrave" unicode="&#x1e81;" horiz-adv-x="298" 
d="M65 811q5 12 19 6l33 -19q10 -5 19 -11q-7 3 19 -10q-3 2 9 -4q2 0 5 -2l21 -9q16 -7 9 -23t-23 -9l-7 5q2 0 -11 7q-3 3 -7 5l-9 6l-55 30q-10 5 -16 9q-14 6 -6 19zM283 701l-5 -129l-28 -517q-1 -15 -5 -43v-1q-3 -12 -14 -10q-8 2 -10 9l-31 145l-22 116l-6 52
q0 5 -1 7l-13 73l-28 -189q-2 -20 -4 -29l-28 -175q-2 -15 -16 -11q-10 1 -12 12l-9 174l-36 520q0 14 12 14q13 2 15 -12l37 -572l13 83l30 175q1 9 5 29l7 36q-1 -2 2 7l6 14q2 6 8 2q1 0 1 -1l2 -1l7 -21l41 -181q1 -1 6 -29l17 -100l31 555q0 15 15 13q15 0 13 -15z" />
    <glyph glyph-name="Wacute" unicode="&#x1e82;" horiz-adv-x="298" 
d="M91 737q-9 14 5 24l28 12q6 2 9 4l38 21q8 6 17 9l16 10q13 5 19 -6q7 -12 -5 -19l-17 -9q-10 -6 -17 -9q-26 -13 -19 -10l-35 -22q-8 -6 -11 -7zM283 701l-5 -129l-28 -517q-1 -15 -5 -43v-1q-3 -12 -14 -10q-8 2 -10 9l-31 145l-22 116l-6 52q0 5 -1 7l-13 73l-28 -189
q-2 -20 -4 -29l-28 -175q-2 -15 -16 -11q-10 1 -12 12l-9 174l-36 520q0 14 12 14q13 2 15 -12l37 -572l13 83l30 175q1 9 5 29l7 36q-1 -2 2 7l6 14q2 6 8 2q1 0 1 -1l2 -1l7 -21l41 -181q1 -1 6 -29l17 -100l31 555q0 15 15 13q15 0 13 -15z" />
    <glyph glyph-name="wacute" unicode="&#x1e83;" horiz-adv-x="298" 
d="M91 737q-9 14 5 24l28 12q6 2 9 4l38 21q8 6 17 9l16 10q13 5 19 -6q7 -12 -5 -19l-17 -9q-10 -6 -17 -9q-26 -13 -19 -10l-35 -22q-8 -6 -11 -7zM283 701l-5 -129l-28 -517q-1 -15 -5 -43v-1q-3 -12 -14 -10q-8 2 -10 9l-31 145l-22 116l-6 52q0 5 -1 7l-13 73l-28 -189
q-2 -20 -4 -29l-28 -175q-2 -15 -16 -11q-10 1 -12 12l-9 174l-36 520q0 14 12 14q13 2 15 -12l37 -572l13 83l30 175q1 9 5 29l7 36q-1 -2 2 7l6 14q2 6 8 2q1 0 1 -1l2 -1l7 -21l41 -181q1 -1 6 -29l17 -100l31 555q0 15 15 13q15 0 13 -15z" />
    <glyph glyph-name="Wdieresis" unicode="&#x1e84;" horiz-adv-x="298" 
d="M82 774q-1 10 6 18q5 5 15 5q17 0 27 -15q-1 1 3 -10q-2 -14 -13 -17q-14 -3 -26 2q-11 5 -12 17zM163 774q-1 10 5 18q5 5 16 5q16 0 26 -15q-1 1 3 -10q-2 -14 -12 -17q-15 -3 -26 2q-12 5 -12 17zM283 701l-5 -129l-28 -517q-1 -15 -5 -43v-1q-3 -12 -14 -10
q-8 2 -10 9l-31 145l-22 116l-6 52q0 5 -1 7l-13 73l-28 -189q-2 -20 -4 -29l-28 -175q-2 -15 -16 -11q-10 1 -12 12l-9 174l-36 520q0 14 12 14q13 2 15 -12l37 -572l13 83l30 175q1 9 5 29l7 36q-1 -2 2 7l6 14q2 6 8 2q1 0 1 -1l2 -1l7 -21l41 -181q1 -1 6 -29l17 -100
l31 555q0 15 15 13q15 0 13 -15z" />
    <glyph glyph-name="wdieresis" unicode="&#x1e85;" horiz-adv-x="298" 
d="M82 774q-1 10 6 18q5 5 15 5q17 0 27 -15q-1 1 3 -10q-2 -14 -13 -17q-14 -3 -26 2q-11 5 -12 17zM163 774q-1 10 5 18q5 5 16 5q16 0 26 -15q-1 1 3 -10q-2 -14 -12 -17q-15 -3 -26 2q-12 5 -12 17zM283 701l-5 -129l-28 -517q-1 -15 -5 -43v-1q-3 -12 -14 -10
q-8 2 -10 9l-31 145l-22 116l-6 52q0 5 -1 7l-13 73l-28 -189q-2 -20 -4 -29l-28 -175q-2 -15 -16 -11q-10 1 -12 12l-9 174l-36 520q0 14 12 14q13 2 15 -12l37 -572l13 83l30 175q1 9 5 29l7 36q-1 -2 2 7l6 14q2 6 8 2q1 0 1 -1l2 -1l7 -21l41 -181q1 -1 6 -29l17 -100
l31 555q0 15 15 13q15 0 13 -15z" />
    <glyph glyph-name="Ygrave" unicode="&#x1ef2;" horiz-adv-x="260" 
d="M53 811q5 12 19 6l33 -19q10 -5 19 -11q-7 3 19 -10q-3 2 9 -4q2 0 5 -2l21 -9q16 -7 9 -23t-23 -9l-7 5q2 0 -11 7q-3 3 -7 5l-9 6l-55 30q-10 5 -16 9q-13 6 -6 19zM249 699q-1 -2 -2 -8l-7 -37q-2 -12 -4 -19q-1 -7 -11 -45l-42 -174q-5 -18 -8 -32l-9 -32l-53 -213
q-5 -14 -6 -26l-18 -79q-5 -19 -7 -30q-4 -13 -18 -11q-13 4 -11 18l31 121l51 221q-1 0 -1 1q1 -1 -2 5l-9 23l-26 77q-12 36 -20 64l-5 17q-3 9 -5 16q-5 14 -10 32l-9 29q0 3 -2 7q-1 5 -2 7l-24 66q-5 14 9 19q14 6 18 -9q1 0 1 -1l16 -54q2 -3 4 -13q4 -7 5 -13
l75 -211q0 -1 1 -2l30 133l24 96q3 11 10 34q0 3 2 7l7 23q5 12 18 9q11 -5 9 -16z" />
    <glyph glyph-name="ygrave" unicode="&#x1ef3;" horiz-adv-x="260" 
d="M53 811q5 12 19 6l33 -19q10 -5 19 -11q-7 3 19 -10q-3 2 9 -4q2 0 5 -2l21 -9q16 -7 9 -23t-23 -9l-7 5q2 0 -11 7q-3 3 -7 5l-9 6l-55 30q-10 5 -16 9q-13 6 -6 19zM249 699q-1 -2 -2 -8l-7 -37q-2 -12 -4 -19q-1 -7 -11 -45l-42 -174q-5 -18 -8 -32l-9 -32l-53 -213
q-5 -14 -6 -26l-18 -79q-5 -19 -7 -30q-4 -13 -18 -11q-13 4 -11 18l31 121l51 221q-1 0 -1 1q1 -1 -2 5l-9 23l-26 77q-12 36 -20 64l-5 17q-3 9 -5 16q-5 14 -10 32l-9 29q0 3 -2 7q-1 5 -2 7l-24 66q-5 14 9 19q14 6 18 -9q1 0 1 -1l16 -54q2 -3 4 -13q4 -7 5 -13
l75 -211q0 -1 1 -2l30 133l24 96q3 11 10 34q0 3 2 7l7 23q5 12 18 9q11 -5 9 -16z" />
    <glyph glyph-name="endash" unicode="&#x2013;" horiz-adv-x="341" 
d="M310 332q16 2 16 17q0 16 -19 14l-27 -2q-9 -1 -35 -1l-44 -1l-27 3l-14 -1q-14 -2 -24 -2l-107 2q-14 0 -14 -14q0 -13 14 -13l107 2q48 0 38 -2l27 2l44 -1q26 0 35 -1z" />
    <glyph glyph-name="emdash" unicode="&#x2014;" horiz-adv-x="451" 
d="M420 330q16 2 16 19q-2 18 -19 16l-27 -2q-5 -1 -15 -1l-80 -3l-67 3l-52 -3l-147 2q-14 0 -14 -14q0 -13 14 -13l147 2q48 0 38 -2h27q20 0 29 1l6 1l73 -1z" />
    <glyph glyph-name="quoteleft" unicode="&#x2018;" horiz-adv-x="83" 
d="M68 654q1 -10 -6 -18q-5 -5 -15 -5q-17 0 -27 16q-2 0 -2 3l-3 13q0 8 1 13q0 5 1 8l7 14l13 13l13 7q3 2 5 -2q2 -1 -1 -4l-11 -9l-8 -14l-2 -15q14 2 23 -3q11 -5 12 -17z" />
    <glyph glyph-name="quoteright" unicode="&#x2019;" horiz-adv-x="83" 
d="M69 686q0 -8 -1 -13q0 -5 -1 -8l-7 -14l-13 -13l-13 -7q-3 -2 -5 2q-2 2 1 4l11 9l7 11q0 1 1 3l2 15q-14 -2 -23 3q-11 5 -12 17q-1 10 6 18q5 5 15 5q17 0 27 -16q2 0 2 -3z" />
    <glyph glyph-name="quotesinglbase" unicode="&#x201a;" horiz-adv-x="88" 
d="M74 3q0 -8 -1 -13q0 -5 -1 -8l-7 -14l-13 -13l-13 -7q-2 -1 -4 1l-1 -1q-3 -2 -5 2q-2 2 1 4l11 9l7 11q0 1 1 3l2 15h-5q-9 -1 -18 3q-11 5 -12 17q-1 10 6 18q5 5 15 5h5q17 0 27 -16q2 0 2 -3z" />
    <glyph glyph-name="quotedblleft" unicode="&#x201c;" horiz-adv-x="163" 
d="M68 654q1 -10 -6 -18q-5 -5 -15 -5q-17 0 -27 16q-2 0 -2 3l-3 13q0 8 1 13q0 5 1 8l7 14l13 13l13 7q3 2 5 -2q2 -1 -1 -4l-11 -9l-8 -14l-2 -15q14 2 23 -3q11 -5 12 -17zM148 654q1 -10 -6 -18q-5 -5 -15 -5q-17 0 -27 16q-2 0 -2 3l-3 13q0 8 1 13q0 5 1 8l7 14
l13 13l13 7q3 2 5 -2q2 -1 -1 -4l-11 -9l-8 -14l-2 -15q14 2 23 -3q11 -5 12 -17z" />
    <glyph glyph-name="quotedblright" unicode="&#x201d;" horiz-adv-x="163" 
d="M69 686q0 -8 -1 -13q0 -5 -1 -8l-7 -14l-13 -13l-13 -7q-3 -2 -5 2q-2 2 1 4l11 9l7 11q0 1 1 3l2 15q-14 -2 -23 3q-11 5 -12 17q-1 10 6 18q5 5 15 5q17 0 27 -16q2 0 2 -3zM149 686q0 -8 -1 -13q0 -5 -1 -8l-7 -14l-13 -13l-13 -7q-3 -2 -5 2q-2 2 1 4l11 9l7 11
q0 1 1 3l2 15q-14 -2 -23 3q-11 5 -12 17q-1 10 6 18q5 5 15 5q17 0 27 -16q2 0 2 -3z" />
    <glyph glyph-name="quotedblbase" unicode="&#x201e;" horiz-adv-x="88" 
d="M74 3q0 -8 -1 -13q0 -5 -1 -8l-7 -14l-13 -13l-13 -7q-2 -1 -4 1l-1 -1q-3 -2 -5 2q-2 2 1 4l11 9l7 11q0 1 1 3l2 15h-5q-9 -1 -18 3q-11 5 -12 17q-1 10 6 18q5 5 15 5h5q17 0 27 -16q2 0 2 -3z" />
    <glyph glyph-name="bullet" unicode="&#x2022;" horiz-adv-x="265" 
d="M240 353q-46 69 -125 69q-46 0 -69 -23q-31 -36 -27 -84q3 -55 55 -77q53 -25 120 -9q53 13 59 78z" />
    <glyph glyph-name="ellipsis" unicode="&#x2026;" horiz-adv-x="281" 
d="M64 20q-10 15 -27 15q-10 0 -15 -5q-7 -8 -6 -18q1 -12 12 -17t26 -2q11 3 13 17q-4 11 -3 10zM164 20q-10 15 -27 15q-10 0 -15 -5q-7 -8 -6 -18q1 -12 12 -17t26 -2q11 3 13 17q-4 11 -3 10zM264 20q-10 15 -27 15q-10 0 -15 -5q-7 -8 -6 -18q1 -12 12 -17t26 -2
q11 3 13 17q-4 11 -3 10z" />
    <glyph glyph-name="guilsinglleft" unicode="&#x2039;" horiz-adv-x="181" 
d="M165 207q-15 -11 -25 3l-25 29l-14 14l-38 30l-16 18l-21 14q-1 1 -1 2q-10 10 1 21l25 16l22 19l70 68q12 8 20 -2q9 -11 -2 -20l-89 -75l-10 -10l-6 -8q1 0 2 -2l8 -8l20 -15l30 -31l23 -18l24 -16q2 -1 5 -4q11 -15 -3 -25z" />
    <glyph glyph-name="guilsinglright" unicode="&#x203a;" horiz-adv-x="181" 
d="M169 317l-1 -2l-17 -11q-3 -2 -7 -6q-2 -3 -7 -8q-4 -4 -6 -7l-38 -30l-40 -43q-11 -14 -24 -3q-14 10 -3 25l4 4q3 1 9 5q3 4 8 5l30 24q4 3 7 7l21 21q4 4 7 6l23 18l2 3l-9 12q-3 4 -7 7q-3 4 -7 7q-4 4 -7 6l-74 62q-11 9 -2 20q8 9 19 2q0 -1 1 -1l84 -80l25 -17
q4 -2 7 -5q11 -10 2 -21z" />
    <glyph glyph-name="fraction" unicode="&#x2044;" horiz-adv-x="407" 
d="M396 696q6 17 -9 21q-16 4 -24 -13l-2 -8l-59 -127q0 -2 -3 -6l-3 -7q-7 -9 -8 -13q-6 -9 -16 -29l-22 -44l-8 -16q-8 -17 -14 -32q-8 -16 -17 -31q-12 -19 -18 -32q-6 -11 -14 -33l-30 -64l-72 -140q-34 -65 -55 -108q-7 -13 5 -17q14 -4 19 10l122 249q8 16 17 31
l27 47q6 11 8 16l15 33q6 15 14 32l17 31q7 8 8 16l5 8q2 5 4 7q10 20 14 30q10 17 13 28l6 14q3 7 7 14l26 48q6 14 11 20q8 17 18 34z" />
    <glyph glyph-name="Euro" unicode="&#x20ac;" horiz-adv-x="295" 
d="M252 576q0 21 -2 36l-5 25q-4 15 -10 25q-8 13 -21 19q-13 7 -33 9q-25 2 -37 -4q-7 -2 -15 -10l-11 -16q-8 -17 -13 -44q-2 -8 -4 -24q-2 -9 -4 -25l-3 -52q-1 -17 -1 -53l1 -37l98 -1l48 3q17 2 19 -15q4 -17 -15 -19q-2 -2 -4 0l-19 1q-4 1 -13 1l-25 1l-88 -1v-56
l113 -1q4 1 13 1l10 1q6 0 9 1q17 2 19 -15q3 -16 -15 -20l-29 3h-79q-25 0 -38 -1h-4q-1 -3 -1 -10q-1 -27 0 -54l2 -27q2 -18 2 -27l3 -51q5 -40 7 -49q1 -9 5 -22l9 -19q5 -10 12 -14q5 -4 17 -8l24 -3l14 1q13 1 28 14q5 5 9 12q2 2 7 13q4 8 8 28l4 24q1 15 1 36
q-1 4 -1 9v3q-2 17 15 19t19 -17v-15q-5 -44 -4 -39q-1 -12 -6 -27q-3 -14 -11 -32q-4 -8 -10 -17q-6 -10 -14 -16q-8 -8 -19 -13l-11 -4q-8 -2 -12 -2l-15 -1l-8 1q-16 2 -24 4q-13 3 -24 11q-12 8 -20 20q-7 10 -12 23q-7 20 -8 26q-4 17 -8 51q-3 27 -3 53q-1 27 0 54
q0 37 -1 55l-1 9h-25q-6 0 -9 -1q-18 0 -18 17q0 16 18 18h9q5 -1 23 -1v54q-9 -1 -23 -1h-9q-18 -2 -18 16t18 18l34 -1l6 90q2 36 4 53l6 51l6 25q4 15 9 24q8 16 14 23q8 9 23 16q12 5 24 6h23q25 -2 43 -10q12 -7 18 -13q10 -10 13 -15q9 -14 14 -33q5 -15 6 -27
q3 -25 3 -39l1 -14q0 -13 -14 -13t-14 14v12z" />
    <glyph glyph-name="trademark" unicode="&#x2122;" horiz-adv-x="526" 
d="M209 726q16 4 20 -13q3 -17 -13 -21l-22 1l-39 -1q-10 0 -16 -1l-1 -23q-2 -18 -2 -33l-2 -44l2 -80v-61q0 -9 -2 -31q0 -21 1 -32l3 -32l-1 -16q-1 -10 -1 -16q-2 -22 -2 -32q-1 -10 -1 -31l3 -248q0 -12 -14 -14q-14 0 -14 14l4 248q0 21 -1 31q-2 22 -2 32
q-2 22 -2 32q0 12 2 32q1 11 1 32l-2 62l2 98l-4 110l-70 -6q-17 -2 -19 16q-2 17 17 19h41l107 5q7 0 11 1zM509 13q2 -16 -15 -16q-14 -2 -16 15l-16 579l-19 -102l-47 -271q-4 -16 -20 -14q-13 4 -14 14q-4 20 -5 30q-4 20 -5 30q-4 21 -10 61q-1 10 -5 30l-8 45l-26 137
l-4 -107q-1 -29 -1 -87l-3 -344q0 -16 -16 -16q-15 0 -15 16l8 388v129q1 29 1 86l1 86q0 16 17 16q14 0 16 -13l31 -181q6 -40 10 -60l17 -90l14 -65l46 215l35 180q2 12 13 10q10 -2 10 -11z" />
    <glyph glyph-name="minus" unicode="&#x2212;" horiz-adv-x="341" 
d="M310 316q16 2 16 17q0 16 -19 14l-27 -2q-9 -1 -35 -1l-44 -1l-27 3l-14 -1q-14 -2 -24 -2l-107 2q-14 0 -14 -14q0 -13 14 -13l107 2q48 0 38 -2l27 2l44 -1q26 0 35 -1z" />
    </font>
</defs>
</svg>
