<?xml version="1.0" encoding="UTF-8" ?>
<!DOCTYPE svg PUBLIC "-//W3C//DTD SVG 1.1//EN" "http://www.w3.org/Graphics/SVG/1.1/DTD/svg11.dtd">
<svg width="293pt" height="356pt" viewBox="0 0 293 356" version="1.1" xmlns="http://www.w3.org/2000/svg">
<path fill="#6c0099" d=" M 0.00 0.00 L 293.00 0.00 L 293.00 356.00 L 0.00 356.00 L 0.00 0.00 Z"/>
<path fill="#bb17ff" d=" M 117.11 8.39 C 127.33 7.12 137.55 4.99 147.91 5.66 C 181.62 5.74 215.04 18.42 240.52 40.49 C 256.69 54.38 269.35 72.16 277.64 91.76 C 279.41 97.57 282.38 103.00 283.29 109.07 C 286.26 121.16 288.23 133.61 287.76 146.10 C 286.48 165.55 281.55 184.75 273.22 202.37 C 260.37 231.21 241.41 256.82 220.65 280.43 C 217.00 284.52 213.74 288.97 209.60 292.59 C 202.94 299.91 195.87 306.87 188.66 313.65 C 186.61 315.62 184.44 317.45 182.51 319.54 C 179.44 322.11 176.62 324.96 173.63 327.62 C 164.45 335.62 155.17 343.48 145.48 350.86 C 142.48 348.41 139.48 345.96 136.47 343.52 C 104.63 316.84 74.94 287.33 50.14 253.91 C 47.27 250.55 45.43 246.42 42.23 243.31 C 42.12 242.87 41.91 241.98 41.80 241.54 C 35.36 233.23 30.46 223.83 25.45 214.63 C 14.44 193.72 6.84 170.77 5.30 147.09 C 4.66 134.56 6.47 122.01 9.53 109.88 C 10.19 105.86 11.42 101.98 13.01 98.23 C 20.72 75.94 34.67 55.93 52.48 40.49 C 67.20 27.84 84.43 18.06 102.98 12.29 C 107.74 11.16 112.36 9.56 117.11 8.39 Z"
      stroke-width='5' stroke='#fff'/>
<path fill="#ffffff" d=" M 134.34 42.29 C 146.25 40.69 158.33 41.73 170.10 43.76 C 178.20 45.91 186.28 48.33 193.88 51.91 C 213.76 61.42 230.65 77.29 240.87 96.85 C 245.33 105.18 248.11 114.26 250.27 123.41 C 252.10 135.43 252.05 147.74 250.38 159.78 C 247.14 174.78 241.13 189.39 231.49 201.44 C 216.33 221.43 193.45 235.24 168.91 240.07 C 141.62 245.61 112.06 240.67 88.65 225.40 C 74.23 216.50 62.37 203.62 54.08 188.89 C 42.43 167.48 38.45 141.54 45.08 117.91 C 52.77 86.09 77.81 59.61 108.36 48.44 C 116.78 45.51 125.38 42.83 134.34 42.29 Z"/>
<path fill="#802faf" d=" M 136.41 54.55 C 157.55 52.16 179.51 57.17 197.57 68.44 C 212.96 78.20 225.56 92.54 232.42 109.49 C 235.54 115.56 236.55 122.35 237.90 128.96 C 240.23 142.03 238.55 155.45 235.05 168.15 C 230.37 180.95 223.48 193.10 213.71 202.72 C 190.26 226.46 153.43 236.04 121.44 226.48 C 98.50 220.53 78.11 205.08 66.46 184.42 C 56.21 167.12 52.94 146.09 56.63 126.39 C 57.34 118.99 60.57 112.23 63.36 105.46 C 72.26 86.72 88.03 71.40 106.91 62.86 C 116.11 58.20 126.29 56.10 136.41 54.55 Z" />
<path fill="#ffffff" d=" M 97.94 84.91 C 111.20 74.24 128.07 68.68 144.96 67.95 C 165.56 67.72 186.38 75.33 201.28 89.72 C 208.44 96.86 214.42 105.26 218.26 114.65 C 223.01 127.23 225.01 141.10 222.23 154.38 C 217.77 179.84 198.32 201.66 173.98 210.00 C 167.20 213.08 159.72 213.66 152.44 214.70 C 144.24 215.72 136.08 214.00 128.02 212.74 C 123.77 211.85 119.87 209.85 115.71 208.68 C 95.74 200.08 79.44 182.91 73.13 161.99 C 71.00 152.82 68.98 143.34 70.57 133.92 C 71.77 127.11 72.67 120.08 75.76 113.81 C 80.60 102.54 88.23 92.44 97.94 84.91 Z" />
<path fill="#802faf" d=" M 140.91 91.89 C 144.45 90.66 148.31 90.56 151.84 91.91 C 152.89 94.47 154.23 97.04 154.02 99.90 C 154.02 110.82 153.94 121.75 154.04 132.68 C 158.25 136.23 161.08 141.44 160.03 147.08 C 163.60 151.15 167.46 154.94 171.27 158.78 C 176.42 163.78 182.81 168.10 185.60 174.97 C 184.44 177.37 184.04 181.09 180.86 181.64 C 176.85 182.87 173.91 179.15 170.96 177.10 C 163.80 170.66 157.11 163.68 150.02 157.16 C 147.16 156.00 143.87 156.35 141.13 154.83 C 135.46 152.41 132.72 144.91 135.29 139.36 C 136.17 136.84 138.12 134.96 139.92 133.07 C 139.80 122.04 139.90 111.01 139.84 99.99 C 139.80 97.25 140.16 94.52 140.91 91.89 Z" />
</svg>
